M48
; DRILL file KiCad 10.0.6 date 2026-10-09T20:21:17
; FORMAT={-:-/ absolute / metric / decimal}
; #@! TF.CreationDate,2026-10-09T20:21:17+02:00
; #@! TF.GenerationSoftware,Kicad,Pcbnew,10.0.6
; #@! TF.FileFunction,Plated,1,2,PTH
FMAT,2
METRIC
; #@! TA.AperFunction,Plated,PTH,ComponentDrill
T1C0.700
; #@! TA.AperFunction,Plated,PTH,ComponentDrill
T2C0.800
; #@! TA.AperFunction,Plated,PTH,ComponentDrill
T3C0.889
; #@! TA.AperFunction,Plated,PTH,ComponentDrill
T4C1.000
; #@! TA.AperFunction,Plated,PTH,ComponentDrill
T5C1.500
%
G90
G05
T1
X110.5Y-67.5
X118.12Y-67.5
T2
X129.0Y-114.88
X129.0Y-117.42
X129.0Y-119.96
X129.0Y-122.5
T3
X122.38Y-74.76
X122.38Y-90.0
X124.92Y-74.76
X124.92Y-90.0
X127.46Y-74.76
X127.46Y-90.0
X130.0Y-74.76
X130.0Y-90.0
X132.54Y-74.76
X132.54Y-90.0
X135.08Y-74.76
X135.08Y-90.0
X137.62Y-74.76
X137.62Y-90.0
T4
X69.5Y-111.38
X69.5Y-113.92
X69.5Y-116.46
X69.5Y-119.0
X69.5Y-121.54
X69.5Y-124.08
X69.5Y-126.62
X69.5Y-129.16
X87.751Y-130.514
X87.751Y-133.054
X87.751Y-135.594
X87.751Y-138.134
T5
X61.77Y-92.96
X68.12Y-90.42
X79.69Y-67.96
X86.04Y-65.42
M30
