%TF.GenerationSoftware,KiCad,Pcbnew,10.0.6*%
%TF.CreationDate,2026-10-09T20:20:08+02:00*%
%TF.ProjectId,Starbie,53746172-6269-4652-9e6b-696361645f70,rev?*%
%TF.SameCoordinates,Original*%
%TF.FileFunction,Copper,L1,Top*%
%TF.FilePolarity,Positive*%
%FSLAX46Y46*%
G04 Gerber Fmt 4.6, Leading zero omitted, Abs format (unit mm)*
G04 Created by KiCad (PCBNEW 10.0.6) date 2026-10-09 20:20:08*
%MOMM*%
%LPD*%
G01*
G04 APERTURE LIST*
G04 Aperture macros list*
%AMRoundRect*
0 Rectangle with rounded corners*
0 $1 Rounding radius*
0 $2 $3 $4 $5 $6 $7 $8 $9 X,Y pos of 4 corners*
0 Add a 4 corners polygon primitive as box body*
4,1,4,$2,$3,$4,$5,$6,$7,$8,$9,$2,$3,0*
0 Add four circle primitives for the rounded corners*
1,1,$1+$1,$2,$3*
1,1,$1+$1,$4,$5*
1,1,$1+$1,$6,$7*
1,1,$1+$1,$8,$9*
0 Add four rect primitives between the rounded corners*
20,1,$1+$1,$2,$3,$4,$5,0*
20,1,$1+$1,$4,$5,$6,$7,0*
20,1,$1+$1,$6,$7,$8,$9,0*
20,1,$1+$1,$8,$9,$2,$3,0*%
G04 Aperture macros list end*
%TA.AperFunction,ComponentPad*%
%ADD10C,1.400000*%
%TD*%
%TA.AperFunction,ComponentPad*%
%ADD11R,1.700000X1.700000*%
%TD*%
%TA.AperFunction,ComponentPad*%
%ADD12C,1.700000*%
%TD*%
%TA.AperFunction,SMDPad,CuDef*%
%ADD13RoundRect,0.152400X0.609600X-1.063600X0.609600X1.063600X-0.609600X1.063600X-0.609600X-1.063600X0*%
%TD*%
%TA.AperFunction,ComponentPad*%
%ADD14C,1.524000*%
%TD*%
%TA.AperFunction,SMDPad,CuDef*%
%ADD15RoundRect,0.152400X-0.609600X1.063600X-0.609600X-1.063600X0.609600X-1.063600X0.609600X1.063600X0*%
%TD*%
%TA.AperFunction,ComponentPad*%
%ADD16C,2.200000*%
%TD*%
%TA.AperFunction,ComponentPad*%
%ADD17O,1.700000X1.700000*%
%TD*%
%TA.AperFunction,ComponentPad*%
%ADD18R,1.500000X1.500000*%
%TD*%
%TA.AperFunction,ComponentPad*%
%ADD19C,1.500000*%
%TD*%
%TA.AperFunction,Conductor*%
%ADD20C,0.200000*%
%TD*%
G04 APERTURE END LIST*
D10*
%TO.P,R1,1*%
%TO.N,+3.3V*%
X110500000Y-67500000D03*
%TO.P,R1,2*%
%TO.N,/DHT11 DATA*%
X118120000Y-67500000D03*
%TD*%
D11*
%TO.P,J2,1,Pin_1_1*%
%TO.N,+3.3V*%
X69500000Y-111380000D03*
D12*
%TO.P,J2,2,Pin_2_2*%
%TO.N,GND*%
X69500000Y-113920000D03*
%TO.P,J2,3,Pin_3_3*%
%TO.N,/SCL*%
X69500000Y-116460000D03*
%TO.P,J2,4,Pin_4_4*%
%TO.N,/SDA*%
X69500000Y-119000000D03*
%TO.P,J2,5,Pin_5_5*%
%TO.N,unconnected-(J2-Pin_5-Pad5)*%
X69500000Y-121540000D03*
%TO.P,J2,6,Pin_6_6*%
%TO.N,unconnected-(J2-Pin_6-Pad6)*%
X69500000Y-124080000D03*
%TO.P,J2,7,Pin_7_7*%
%TO.N,unconnected-(J2-Pin_7-Pad7)*%
X69500000Y-126620000D03*
%TO.P,J2,8,Pin_8_8*%
%TO.N,unconnected-(J2-Pin_8-Pad8)*%
X69500000Y-129160000D03*
%TD*%
D13*
%TO.P,U2,1,D0_1*%
%TO.N,unconnected-(U2-D0-Pad1)*%
X137620000Y-73925000D03*
D14*
%TO.N,unconnected-(U2-D0-Pad1)_1*%
X137620000Y-74760000D03*
D13*
%TO.P,U2,2,D1_2*%
%TO.N,/DHT11 DATA*%
X135080000Y-73925000D03*
D14*
X135080000Y-74760000D03*
D13*
%TO.P,U2,3,D2_3*%
%TO.N,/GPIO2*%
X132540000Y-73925000D03*
D14*
X132540000Y-74760000D03*
D13*
%TO.P,U2,4,D3_4*%
%TO.N,/GPIO3*%
X130000000Y-73925000D03*
D14*
X130000000Y-74760000D03*
D13*
%TO.P,U2,5,D4_5*%
%TO.N,/SCL*%
X127460000Y-73925000D03*
D14*
X127460000Y-74760000D03*
D13*
%TO.P,U2,6,D5_6*%
%TO.N,/SDA*%
X124920000Y-73925000D03*
D14*
X124920000Y-74760000D03*
D13*
%TO.P,U2,7,D6_7*%
%TO.N,unconnected-(U2-D6-Pad7)*%
X122380000Y-73925000D03*
D14*
%TO.N,unconnected-(U2-D6-Pad7)_1*%
X122380000Y-74760000D03*
%TO.P,U2,8,D7_8*%
%TO.N,unconnected-(U2-D7-Pad8)_1*%
X122380000Y-90000000D03*
D15*
%TO.N,unconnected-(U2-D7-Pad8)*%
X122380000Y-90835000D03*
D14*
%TO.P,U2,9,D8_9*%
%TO.N,unconnected-(U2-D8-Pad9)_1*%
X124920000Y-90000000D03*
D15*
%TO.N,unconnected-(U2-D8-Pad9)*%
X124920000Y-90835000D03*
D14*
%TO.P,U2,10,D9/BOOT_10*%
%TO.N,unconnected-(U2-D9{slash}BOOT-Pad10)_1*%
X127460000Y-90000000D03*
D15*
%TO.N,unconnected-(U2-D9{slash}BOOT-Pad10)*%
X127460000Y-90835000D03*
D14*
%TO.P,U2,11,D10_11*%
%TO.N,unconnected-(U2-D10-Pad11)*%
X130000000Y-90000000D03*
D15*
%TO.N,unconnected-(U2-D10-Pad11)_1*%
X130000000Y-90835000D03*
D14*
%TO.P,U2,12,3V3_OUT_12*%
%TO.N,+3.3V*%
X132540000Y-90000000D03*
D15*
X132540000Y-90835000D03*
D14*
%TO.P,U2,13,GND_13*%
%TO.N,GND*%
X135080000Y-90000000D03*
D15*
X135080000Y-90835000D03*
D14*
%TO.P,U2,14,VBUS_14*%
%TO.N,+5V*%
X137620000Y-90000000D03*
D15*
X137620000Y-90835000D03*
%TD*%
D16*
%TO.P,SW1,1,1_1*%
%TO.N,/GPIO2*%
X68120000Y-90420000D03*
%TO.P,SW1,2,2_2*%
%TO.N,GND*%
X61770000Y-92960000D03*
%TD*%
D11*
%TO.P,J1,1,Pin_1_1*%
%TO.N,GND*%
X87751000Y-138134000D03*
D17*
%TO.P,J1,2,Pin_2_2*%
%TO.N,+3.3V*%
X87751000Y-135594000D03*
%TO.P,J1,3,Pin_3_3*%
%TO.N,/SCL*%
X87751000Y-133054000D03*
%TO.P,J1,4,Pin_4_4*%
%TO.N,/SDA*%
X87751000Y-130514000D03*
%TD*%
D16*
%TO.P,SW2,1,1_1*%
%TO.N,/GPIO3*%
X86040000Y-65420000D03*
%TO.P,SW2,2,2_2*%
%TO.N,GND*%
X79690000Y-67960000D03*
%TD*%
D18*
%TO.P,U1,1,VDD_1*%
%TO.N,+3.3V*%
X129000000Y-114880000D03*
D19*
%TO.P,U1,2,DATA_2*%
%TO.N,/DHT11 DATA*%
X129000000Y-117420000D03*
%TO.P,U1,3,NC_3*%
%TO.N,unconnected-(U1-NC-Pad3)*%
X129000000Y-119960000D03*
%TO.P,U1,4,GND_4*%
%TO.N,GND*%
X129000000Y-122500000D03*
%TD*%
%TO.N,/SCL*%
D20*
X127460000Y-74760000D02*
X127460000Y-73925000D01*
%TD*%
%TA.AperFunction,Conductor*%
%TO.N,+5V*%
G36*
X100695952Y-50505417D02*
G01*
X102080386Y-50544260D01*
X102083735Y-50544401D01*
X103466583Y-50622060D01*
X103470036Y-50622303D01*
X104850124Y-50738712D01*
X104853470Y-50739042D01*
X106193980Y-50890080D01*
X106229760Y-50894112D01*
X106233213Y-50894550D01*
X107604545Y-51088150D01*
X107607935Y-51088677D01*
X108973367Y-51320673D01*
X108976768Y-51321301D01*
X110335101Y-51591490D01*
X110338440Y-51592203D01*
X111688689Y-51900388D01*
X111692063Y-51901207D01*
X113033165Y-52247149D01*
X113036411Y-52248035D01*
X114367349Y-52631472D01*
X114370558Y-52632445D01*
X115690146Y-53053035D01*
X115693377Y-53054115D01*
X117000664Y-53511555D01*
X117003930Y-53512750D01*
X118297789Y-54006642D01*
X118301021Y-54007928D01*
X119580537Y-54537921D01*
X119583731Y-54539297D01*
X120847879Y-55104966D01*
X120851003Y-55106417D01*
X121523320Y-55430188D01*
X122098812Y-55707330D01*
X122101924Y-55708883D01*
X123332385Y-56344554D01*
X123335379Y-56346153D01*
X124270829Y-56863159D01*
X124547556Y-57016101D01*
X124550576Y-57017826D01*
X125743427Y-57721471D01*
X125746398Y-57723280D01*
X126829579Y-58403887D01*
X126919066Y-58460115D01*
X126921975Y-58462000D01*
X128073523Y-59231441D01*
X128076343Y-59233383D01*
X129205920Y-60034859D01*
X129208668Y-60036869D01*
X129904624Y-60560630D01*
X130315241Y-60869651D01*
X130317991Y-60871781D01*
X131400790Y-61735285D01*
X131403478Y-61737491D01*
X132461613Y-62631006D01*
X132464239Y-62633287D01*
X133496909Y-63556136D01*
X133499465Y-63558485D01*
X133899578Y-63936759D01*
X134505866Y-64509954D01*
X134508359Y-64512379D01*
X135487620Y-65491640D01*
X135490045Y-65494133D01*
X136415709Y-66473240D01*
X136441509Y-66500529D01*
X136443863Y-66503090D01*
X137366712Y-67535760D01*
X137368993Y-67538386D01*
X138262508Y-68596521D01*
X138264714Y-68599209D01*
X139128218Y-69682008D01*
X139130348Y-69684758D01*
X139963108Y-70791301D01*
X139965148Y-70794092D01*
X140766601Y-71923634D01*
X140768568Y-71926491D01*
X140989698Y-72257435D01*
X141537992Y-73078014D01*
X141539884Y-73080933D01*
X142276719Y-74253601D01*
X142278528Y-74256572D01*
X142982173Y-75449423D01*
X142983898Y-75452443D01*
X143653826Y-76664584D01*
X143655465Y-76667651D01*
X144291116Y-77898075D01*
X144292669Y-77901187D01*
X144893575Y-79148981D01*
X144895040Y-79152136D01*
X145460702Y-80416268D01*
X145462078Y-80419462D01*
X145992071Y-81698978D01*
X145993357Y-81702210D01*
X146487249Y-82996069D01*
X146488444Y-82999335D01*
X146945873Y-84306589D01*
X146946975Y-84309888D01*
X147367535Y-85629381D01*
X147368541Y-85632695D01*
X147612605Y-86479860D01*
X147751949Y-86963533D01*
X147752865Y-86966889D01*
X148098790Y-88307931D01*
X148099611Y-88311310D01*
X148407789Y-89661528D01*
X148408515Y-89664930D01*
X148678696Y-91023222D01*
X148679327Y-91026642D01*
X148911318Y-92392041D01*
X148911852Y-92395478D01*
X149105449Y-93766789D01*
X149105887Y-93770239D01*
X149260951Y-95146471D01*
X149261292Y-95149933D01*
X149377695Y-96529955D01*
X149377939Y-96533424D01*
X149455595Y-97916202D01*
X149455741Y-97919677D01*
X149494583Y-99304047D01*
X149494632Y-99307525D01*
X149494632Y-100692474D01*
X149494583Y-100695952D01*
X149455741Y-102080322D01*
X149455595Y-102083797D01*
X149377939Y-103466575D01*
X149377695Y-103470044D01*
X149261292Y-104850066D01*
X149260951Y-104853528D01*
X149105887Y-106229760D01*
X149105449Y-106233210D01*
X148911852Y-107604521D01*
X148911318Y-107607958D01*
X148679327Y-108973357D01*
X148678696Y-108976777D01*
X148408515Y-110335069D01*
X148407789Y-110338471D01*
X148099611Y-111688689D01*
X148098790Y-111692068D01*
X147752865Y-113033110D01*
X147751949Y-113036466D01*
X147368545Y-114367290D01*
X147367535Y-114370618D01*
X146946975Y-115690111D01*
X146945873Y-115693410D01*
X146488444Y-117000664D01*
X146487249Y-117003930D01*
X145993357Y-118297789D01*
X145992071Y-118301021D01*
X145462078Y-119580537D01*
X145460702Y-119583731D01*
X144895040Y-120847863D01*
X144893575Y-120851018D01*
X144292669Y-122098812D01*
X144291116Y-122101924D01*
X143655465Y-123332348D01*
X143653826Y-123335415D01*
X142983898Y-124547556D01*
X142982173Y-124550576D01*
X142278528Y-125743427D01*
X142276719Y-125746398D01*
X141539884Y-126919066D01*
X141537992Y-126921985D01*
X140768573Y-128073501D01*
X140766601Y-128076365D01*
X139965161Y-129205890D01*
X139963108Y-129208698D01*
X139130348Y-130315241D01*
X139128218Y-130317991D01*
X138264714Y-131400790D01*
X138262508Y-131403478D01*
X137368993Y-132461613D01*
X137366712Y-132464239D01*
X136443863Y-133496909D01*
X136441509Y-133499470D01*
X135490045Y-134505866D01*
X135487620Y-134508359D01*
X134508359Y-135487620D01*
X134505866Y-135490045D01*
X133499470Y-136441509D01*
X133496909Y-136443863D01*
X132464239Y-137366712D01*
X132461613Y-137368993D01*
X131403478Y-138262508D01*
X131400790Y-138264714D01*
X130317991Y-139128218D01*
X130315241Y-139130348D01*
X129208698Y-139963108D01*
X129205890Y-139965161D01*
X128076365Y-140766601D01*
X128073501Y-140768573D01*
X126921985Y-141537992D01*
X126919066Y-141539884D01*
X125746398Y-142276719D01*
X125743427Y-142278528D01*
X124550576Y-142982173D01*
X124547556Y-142983898D01*
X123335415Y-143653826D01*
X123332348Y-143655465D01*
X122101924Y-144291116D01*
X122098812Y-144292669D01*
X120851018Y-144893575D01*
X120847863Y-144895040D01*
X119583731Y-145460702D01*
X119580537Y-145462078D01*
X118301021Y-145992071D01*
X118297789Y-145993357D01*
X117003930Y-146487249D01*
X117000664Y-146488444D01*
X115693410Y-146945873D01*
X115690111Y-146946975D01*
X114370618Y-147367535D01*
X114367290Y-147368545D01*
X113036466Y-147751949D01*
X113033110Y-147752865D01*
X112548984Y-147877746D01*
X112479153Y-147875430D01*
X112421659Y-147835728D01*
X112394757Y-147771245D01*
X112406987Y-147702454D01*
X112454467Y-147651196D01*
X112455950Y-147650324D01*
X112585965Y-147575261D01*
X112788813Y-147419610D01*
X112969610Y-147238813D01*
X113125261Y-147035965D01*
X113253104Y-146814535D01*
X113350950Y-146578313D01*
X113417126Y-146331340D01*
X113450500Y-146077843D01*
X113450500Y-144922157D01*
X113417126Y-144668660D01*
X113350950Y-144421687D01*
X113253104Y-144185465D01*
X113253102Y-144185462D01*
X113253100Y-144185457D01*
X113125265Y-143964042D01*
X113125261Y-143964035D01*
X112969610Y-143761187D01*
X112969605Y-143761181D01*
X112788818Y-143580394D01*
X112788811Y-143580388D01*
X112585973Y-143424745D01*
X112585971Y-143424743D01*
X112585965Y-143424739D01*
X112585960Y-143424736D01*
X112585957Y-143424734D01*
X112364542Y-143296899D01*
X112364531Y-143296894D01*
X112128322Y-143199053D01*
X112128315Y-143199051D01*
X112128313Y-143199050D01*
X111881340Y-143132874D01*
X111825007Y-143125457D01*
X111627850Y-143099500D01*
X111627843Y-143099500D01*
X111372157Y-143099500D01*
X111372149Y-143099500D01*
X111146826Y-143129165D01*
X111118660Y-143132874D01*
X110871687Y-143199050D01*
X110871677Y-143199053D01*
X110635468Y-143296894D01*
X110635457Y-143296899D01*
X110414042Y-143424734D01*
X110414026Y-143424745D01*
X110211188Y-143580388D01*
X110211181Y-143580394D01*
X110030394Y-143761181D01*
X110030388Y-143761188D01*
X109874745Y-143964026D01*
X109874734Y-143964042D01*
X109746899Y-144185457D01*
X109746894Y-144185468D01*
X109649053Y-144421677D01*
X109649050Y-144421687D01*
X109582874Y-144668661D01*
X109549500Y-144922149D01*
X109549500Y-146077850D01*
X109575457Y-146275007D01*
X109582874Y-146331340D01*
X109624650Y-146487249D01*
X109649050Y-146578312D01*
X109649053Y-146578322D01*
X109746894Y-146814531D01*
X109746899Y-146814542D01*
X109874734Y-147035957D01*
X109874745Y-147035973D01*
X110030388Y-147238811D01*
X110030394Y-147238818D01*
X110211181Y-147419605D01*
X110211188Y-147419611D01*
X110355638Y-147530452D01*
X110414035Y-147575261D01*
X110414042Y-147575265D01*
X110635457Y-147703100D01*
X110635462Y-147703102D01*
X110635465Y-147703104D01*
X110753388Y-147751949D01*
X110799972Y-147771245D01*
X110871687Y-147800950D01*
X111118660Y-147867126D01*
X111372157Y-147900500D01*
X111372164Y-147900500D01*
X111460524Y-147900500D01*
X111527563Y-147920185D01*
X111573318Y-147972989D01*
X111583262Y-148042147D01*
X111554237Y-148105703D01*
X111495459Y-148143477D01*
X111488116Y-148145391D01*
X110338470Y-148407789D01*
X110335069Y-148408515D01*
X108976777Y-148678696D01*
X108973357Y-148679327D01*
X107607958Y-148911318D01*
X107604521Y-148911852D01*
X106233210Y-149105449D01*
X106229760Y-149105887D01*
X104853528Y-149260951D01*
X104850066Y-149261292D01*
X103470044Y-149377695D01*
X103466575Y-149377939D01*
X102083797Y-149455595D01*
X102080322Y-149455741D01*
X100695952Y-149494583D01*
X100692474Y-149494632D01*
X99307526Y-149494632D01*
X99304048Y-149494583D01*
X97919677Y-149455741D01*
X97916202Y-149455595D01*
X96533424Y-149377939D01*
X96529955Y-149377695D01*
X95149933Y-149261292D01*
X95146471Y-149260951D01*
X93770239Y-149105887D01*
X93766789Y-149105449D01*
X92395478Y-148911852D01*
X92392041Y-148911318D01*
X91026642Y-148679327D01*
X91023222Y-148678696D01*
X89664930Y-148408515D01*
X89661528Y-148407789D01*
X88505479Y-148143929D01*
X88444501Y-148109820D01*
X88411643Y-148048159D01*
X88417338Y-147978522D01*
X88459778Y-147923018D01*
X88516886Y-147900099D01*
X88767340Y-147867126D01*
X89014313Y-147800950D01*
X89250535Y-147703104D01*
X89471965Y-147575261D01*
X89674813Y-147419610D01*
X89855610Y-147238813D01*
X90011261Y-147035965D01*
X90139104Y-146814535D01*
X90236950Y-146578313D01*
X90303126Y-146331340D01*
X90336500Y-146077843D01*
X90336500Y-144922157D01*
X90303126Y-144668660D01*
X90236950Y-144421687D01*
X90139104Y-144185465D01*
X90139102Y-144185462D01*
X90139100Y-144185457D01*
X90011265Y-143964042D01*
X90011261Y-143964035D01*
X89855610Y-143761187D01*
X89855605Y-143761181D01*
X89674818Y-143580394D01*
X89674811Y-143580388D01*
X89471973Y-143424745D01*
X89471971Y-143424743D01*
X89471965Y-143424739D01*
X89471960Y-143424736D01*
X89471957Y-143424734D01*
X89250542Y-143296899D01*
X89250531Y-143296894D01*
X89014322Y-143199053D01*
X89014315Y-143199051D01*
X89014313Y-143199050D01*
X88767340Y-143132874D01*
X88711007Y-143125457D01*
X88513850Y-143099500D01*
X88513843Y-143099500D01*
X88258157Y-143099500D01*
X88258149Y-143099500D01*
X88032826Y-143129165D01*
X88004660Y-143132874D01*
X87757687Y-143199050D01*
X87757677Y-143199053D01*
X87521468Y-143296894D01*
X87521457Y-143296899D01*
X87300042Y-143424734D01*
X87300026Y-143424745D01*
X87097188Y-143580388D01*
X87097181Y-143580394D01*
X86916394Y-143761181D01*
X86916388Y-143761188D01*
X86760745Y-143964026D01*
X86760734Y-143964042D01*
X86632899Y-144185457D01*
X86632894Y-144185468D01*
X86535053Y-144421677D01*
X86535050Y-144421687D01*
X86468874Y-144668661D01*
X86435500Y-144922149D01*
X86435500Y-146077850D01*
X86461457Y-146275007D01*
X86468874Y-146331340D01*
X86510650Y-146487249D01*
X86535050Y-146578312D01*
X86535053Y-146578322D01*
X86632894Y-146814531D01*
X86632899Y-146814542D01*
X86760734Y-147035957D01*
X86760745Y-147035973D01*
X86916388Y-147238811D01*
X86916394Y-147238818D01*
X87097181Y-147419605D01*
X87097188Y-147419611D01*
X87241638Y-147530452D01*
X87300035Y-147575261D01*
X87300046Y-147575267D01*
X87300047Y-147575268D01*
X87337920Y-147597135D01*
X87386135Y-147647702D01*
X87399357Y-147716310D01*
X87373389Y-147781174D01*
X87316474Y-147821702D01*
X87246683Y-147825025D01*
X87244972Y-147824597D01*
X86966882Y-147752863D01*
X86963533Y-147751949D01*
X85632695Y-147368541D01*
X85629396Y-147367539D01*
X84309888Y-146946975D01*
X84306589Y-146945873D01*
X82999335Y-146488444D01*
X82996069Y-146487249D01*
X81702210Y-145993357D01*
X81698978Y-145992071D01*
X80419462Y-145462078D01*
X80416268Y-145460702D01*
X79152136Y-144895040D01*
X79148981Y-144893575D01*
X77901187Y-144292669D01*
X77898075Y-144291116D01*
X76667651Y-143655465D01*
X76664584Y-143653826D01*
X75452443Y-142983898D01*
X75449423Y-142982173D01*
X74256572Y-142278528D01*
X74253601Y-142276719D01*
X73080933Y-141539884D01*
X73078014Y-141537992D01*
X71926498Y-140768573D01*
X71923634Y-140766601D01*
X70794092Y-139965148D01*
X70791318Y-139963120D01*
X70155343Y-139484500D01*
X69684758Y-139130348D01*
X69682008Y-139128218D01*
X68599209Y-138264714D01*
X68596521Y-138262508D01*
X67538386Y-137368993D01*
X67535760Y-137366712D01*
X66503090Y-136443863D01*
X66500529Y-136441509D01*
X65494133Y-135490045D01*
X65491640Y-135487620D01*
X64512379Y-134508359D01*
X64509954Y-134505866D01*
X64338015Y-134324000D01*
X63558485Y-133499465D01*
X63556136Y-133496909D01*
X62633287Y-132464239D01*
X62631006Y-132461613D01*
X61737491Y-131403478D01*
X61735285Y-131400790D01*
X60871781Y-130317991D01*
X60869651Y-130315241D01*
X60390389Y-129678414D01*
X60036869Y-129208668D01*
X60034859Y-129205920D01*
X59233383Y-128076343D01*
X59231426Y-128073501D01*
X59185622Y-128004951D01*
X58462000Y-126921975D01*
X58460115Y-126919066D01*
X58338983Y-126726286D01*
X57723280Y-125746398D01*
X57721471Y-125743427D01*
X57017826Y-124550576D01*
X57016101Y-124547556D01*
X56969115Y-124462542D01*
X56346153Y-123335379D01*
X56344554Y-123332385D01*
X55863687Y-122401577D01*
X55708883Y-122101924D01*
X55707330Y-122098812D01*
X55285926Y-121223757D01*
X55106417Y-120851003D01*
X55104959Y-120847863D01*
X55074983Y-120780874D01*
X54594821Y-119707816D01*
X54539297Y-119583731D01*
X54537921Y-119580537D01*
X54007928Y-118301021D01*
X54006642Y-118297789D01*
X54004502Y-118292184D01*
X53512749Y-117003928D01*
X53511555Y-117000664D01*
X53349120Y-116536453D01*
X53054115Y-115693377D01*
X53053035Y-115690146D01*
X52632445Y-114370558D01*
X52631472Y-114367349D01*
X52248035Y-113036411D01*
X52247149Y-113033165D01*
X51901207Y-111692063D01*
X51900388Y-111688689D01*
X51864224Y-111530242D01*
X51625000Y-110482135D01*
X68149500Y-110482135D01*
X68149500Y-112277870D01*
X68149501Y-112277876D01*
X68155908Y-112337483D01*
X68206202Y-112472328D01*
X68206206Y-112472335D01*
X68292452Y-112587544D01*
X68292455Y-112587547D01*
X68407664Y-112673793D01*
X68407671Y-112673797D01*
X68539082Y-112722810D01*
X68595016Y-112764681D01*
X68619433Y-112830145D01*
X68604582Y-112898418D01*
X68583431Y-112926673D01*
X68469889Y-113040215D01*
X68344951Y-113212179D01*
X68248444Y-113401585D01*
X68182753Y-113603760D01*
X68169695Y-113686206D01*
X68149500Y-113813713D01*
X68149500Y-114026287D01*
X68182754Y-114236243D01*
X68226415Y-114370618D01*
X68248444Y-114438414D01*
X68344951Y-114627820D01*
X68469890Y-114799786D01*
X68620213Y-114950109D01*
X68792182Y-115075050D01*
X68800946Y-115079516D01*
X68851742Y-115127491D01*
X68868536Y-115195312D01*
X68845998Y-115261447D01*
X68800946Y-115300484D01*
X68792182Y-115304949D01*
X68620213Y-115429890D01*
X68469890Y-115580213D01*
X68344951Y-115752179D01*
X68248444Y-115941585D01*
X68182753Y-116143760D01*
X68152353Y-116335700D01*
X68149500Y-116353713D01*
X68149500Y-116566287D01*
X68182754Y-116776243D01*
X68235952Y-116939970D01*
X68248444Y-116978414D01*
X68344951Y-117167820D01*
X68469890Y-117339786D01*
X68620213Y-117490109D01*
X68792182Y-117615050D01*
X68800946Y-117619516D01*
X68851742Y-117667491D01*
X68868536Y-117735312D01*
X68845998Y-117801447D01*
X68800946Y-117840484D01*
X68792182Y-117844949D01*
X68620213Y-117969890D01*
X68469890Y-118120213D01*
X68344951Y-118292179D01*
X68248444Y-118481585D01*
X68182753Y-118683760D01*
X68171864Y-118752511D01*
X68149500Y-118893713D01*
X68149500Y-119106287D01*
X68182754Y-119316243D01*
X68240790Y-119494860D01*
X68248444Y-119518414D01*
X68344951Y-119707820D01*
X68469890Y-119879786D01*
X68620213Y-120030109D01*
X68792182Y-120155050D01*
X68800946Y-120159516D01*
X68851742Y-120207491D01*
X68868536Y-120275312D01*
X68845998Y-120341447D01*
X68800946Y-120380484D01*
X68792182Y-120384949D01*
X68620213Y-120509890D01*
X68469890Y-120660213D01*
X68344951Y-120832179D01*
X68248444Y-121021585D01*
X68182753Y-121223760D01*
X68149500Y-121433713D01*
X68149500Y-121646286D01*
X68179146Y-121833468D01*
X68182754Y-121856243D01*
X68235952Y-122019970D01*
X68248444Y-122058414D01*
X68344951Y-122247820D01*
X68469890Y-122419786D01*
X68620213Y-122570109D01*
X68792182Y-122695050D01*
X68800946Y-122699516D01*
X68851742Y-122747491D01*
X68868536Y-122815312D01*
X68845998Y-122881447D01*
X68800946Y-122920484D01*
X68792182Y-122924949D01*
X68620213Y-123049890D01*
X68469890Y-123200213D01*
X68344951Y-123372179D01*
X68248444Y-123561585D01*
X68182753Y-123763760D01*
X68149500Y-123973713D01*
X68149500Y-124186287D01*
X68182754Y-124396243D01*
X68204292Y-124462531D01*
X68248444Y-124598414D01*
X68344951Y-124787820D01*
X68469890Y-124959786D01*
X68620213Y-125110109D01*
X68792182Y-125235050D01*
X68800946Y-125239516D01*
X68851742Y-125287491D01*
X68868536Y-125355312D01*
X68845998Y-125421447D01*
X68800946Y-125460484D01*
X68792182Y-125464949D01*
X68620213Y-125589890D01*
X68469890Y-125740213D01*
X68344951Y-125912179D01*
X68248444Y-126101585D01*
X68182753Y-126303760D01*
X68149500Y-126513713D01*
X68149500Y-126726286D01*
X68182753Y-126936239D01*
X68248444Y-127138414D01*
X68344951Y-127327820D01*
X68469890Y-127499786D01*
X68620213Y-127650109D01*
X68792182Y-127775050D01*
X68800946Y-127779516D01*
X68851742Y-127827491D01*
X68868536Y-127895312D01*
X68845998Y-127961447D01*
X68800946Y-128000484D01*
X68792182Y-128004949D01*
X68620213Y-128129890D01*
X68469890Y-128280213D01*
X68344951Y-128452179D01*
X68248444Y-128641585D01*
X68182753Y-128843760D01*
X68149500Y-129053713D01*
X68149500Y-129266287D01*
X68182754Y-129476243D01*
X68234080Y-129634208D01*
X68248444Y-129678414D01*
X68344951Y-129867820D01*
X68469890Y-130039786D01*
X68620213Y-130190109D01*
X68792179Y-130315048D01*
X68792181Y-130315049D01*
X68792184Y-130315051D01*
X68981588Y-130411557D01*
X69183757Y-130477246D01*
X69393713Y-130510500D01*
X69393714Y-130510500D01*
X69606286Y-130510500D01*
X69606287Y-130510500D01*
X69816243Y-130477246D01*
X70018412Y-130411557D01*
X70025956Y-130407713D01*
X86400500Y-130407713D01*
X86400500Y-130620287D01*
X86433754Y-130830243D01*
X86467065Y-130932764D01*
X86499444Y-131032414D01*
X86595951Y-131221820D01*
X86720890Y-131393786D01*
X86871213Y-131544109D01*
X87043182Y-131669050D01*
X87051946Y-131673516D01*
X87102742Y-131721491D01*
X87119536Y-131789312D01*
X87096998Y-131855447D01*
X87051946Y-131894484D01*
X87043182Y-131898949D01*
X86871213Y-132023890D01*
X86720890Y-132174213D01*
X86595951Y-132346179D01*
X86499444Y-132535585D01*
X86433753Y-132737760D01*
X86400500Y-132947713D01*
X86400500Y-133160287D01*
X86433754Y-133370243D01*
X86474910Y-133496909D01*
X86499444Y-133572414D01*
X86595951Y-133761820D01*
X86720890Y-133933786D01*
X86871213Y-134084109D01*
X87043182Y-134209050D01*
X87051946Y-134213516D01*
X87102742Y-134261491D01*
X87119536Y-134329312D01*
X87096998Y-134395447D01*
X87051946Y-134434484D01*
X87043182Y-134438949D01*
X86871213Y-134563890D01*
X86720890Y-134714213D01*
X86595951Y-134886179D01*
X86499444Y-135075585D01*
X86433753Y-135277760D01*
X86400500Y-135487713D01*
X86400500Y-135700286D01*
X86433753Y-135910239D01*
X86499444Y-136112414D01*
X86595951Y-136301820D01*
X86720890Y-136473786D01*
X86834430Y-136587326D01*
X86867915Y-136648649D01*
X86862931Y-136718341D01*
X86821059Y-136774274D01*
X86790083Y-136791189D01*
X86658669Y-136840203D01*
X86658664Y-136840206D01*
X86543455Y-136926452D01*
X86543452Y-136926455D01*
X86457206Y-137041664D01*
X86457202Y-137041671D01*
X86406908Y-137176517D01*
X86400501Y-137236116D01*
X86400501Y-137236123D01*
X86400500Y-137236135D01*
X86400500Y-139031870D01*
X86400501Y-139031876D01*
X86406908Y-139091483D01*
X86457202Y-139226328D01*
X86457206Y-139226335D01*
X86543452Y-139341544D01*
X86543455Y-139341547D01*
X86658664Y-139427793D01*
X86658671Y-139427797D01*
X86793517Y-139478091D01*
X86793516Y-139478091D01*
X86800444Y-139478835D01*
X86853127Y-139484500D01*
X88648872Y-139484499D01*
X88708483Y-139478091D01*
X88843331Y-139427796D01*
X88958546Y-139341546D01*
X89044796Y-139226331D01*
X89095091Y-139091483D01*
X89101500Y-139031873D01*
X89101499Y-137236128D01*
X89095091Y-137176517D01*
X89044796Y-137041669D01*
X89044795Y-137041668D01*
X89044793Y-137041664D01*
X88958547Y-136926455D01*
X88958544Y-136926452D01*
X88843335Y-136840206D01*
X88843328Y-136840202D01*
X88711917Y-136791189D01*
X88655983Y-136749318D01*
X88631566Y-136683853D01*
X88646418Y-136615580D01*
X88667563Y-136587332D01*
X88781104Y-136473792D01*
X88906051Y-136301816D01*
X89002557Y-136112412D01*
X89068246Y-135910243D01*
X89101500Y-135700287D01*
X89101500Y-135487713D01*
X89068246Y-135277757D01*
X89002557Y-135075588D01*
X88906051Y-134886184D01*
X88906049Y-134886181D01*
X88906048Y-134886179D01*
X88781109Y-134714213D01*
X88630786Y-134563890D01*
X88458820Y-134438951D01*
X88458115Y-134438591D01*
X88450054Y-134434485D01*
X88399259Y-134386512D01*
X88382463Y-134318692D01*
X88404999Y-134252556D01*
X88450054Y-134213515D01*
X88458816Y-134209051D01*
X88500200Y-134178984D01*
X88630786Y-134084109D01*
X88630788Y-134084106D01*
X88630792Y-134084104D01*
X88781104Y-133933792D01*
X88781106Y-133933788D01*
X88781109Y-133933786D01*
X88906048Y-133761820D01*
X88906047Y-133761820D01*
X88906051Y-133761816D01*
X89002557Y-133572412D01*
X89068246Y-133370243D01*
X89101500Y-133160287D01*
X89101500Y-132947713D01*
X89068246Y-132737757D01*
X89002557Y-132535588D01*
X88906051Y-132346184D01*
X88906049Y-132346181D01*
X88906048Y-132346179D01*
X88781109Y-132174213D01*
X88630786Y-132023890D01*
X88458820Y-131898951D01*
X88458115Y-131898591D01*
X88450054Y-131894485D01*
X88399259Y-131846512D01*
X88382463Y-131778692D01*
X88404999Y-131712556D01*
X88450054Y-131673515D01*
X88458816Y-131669051D01*
X88480789Y-131653086D01*
X88630786Y-131544109D01*
X88630788Y-131544106D01*
X88630792Y-131544104D01*
X88781104Y-131393792D01*
X88781106Y-131393788D01*
X88781109Y-131393786D01*
X88906048Y-131221820D01*
X88906047Y-131221820D01*
X88906051Y-131221816D01*
X89002557Y-131032412D01*
X89068246Y-130830243D01*
X89101500Y-130620287D01*
X89101500Y-130407713D01*
X89068246Y-130197757D01*
X89002557Y-129995588D01*
X88906051Y-129806184D01*
X88906049Y-129806181D01*
X88906048Y-129806179D01*
X88781109Y-129634213D01*
X88630786Y-129483890D01*
X88458820Y-129358951D01*
X88269414Y-129262444D01*
X88269413Y-129262443D01*
X88269412Y-129262443D01*
X88067243Y-129196754D01*
X88067241Y-129196753D01*
X88067240Y-129196753D01*
X87905957Y-129171208D01*
X87857287Y-129163500D01*
X87644713Y-129163500D01*
X87596042Y-129171208D01*
X87434760Y-129196753D01*
X87232585Y-129262444D01*
X87043179Y-129358951D01*
X86871213Y-129483890D01*
X86720890Y-129634213D01*
X86595951Y-129806179D01*
X86499444Y-129995585D01*
X86433753Y-130197760D01*
X86400500Y-130407713D01*
X70025956Y-130407713D01*
X70207816Y-130315051D01*
X70379792Y-130190104D01*
X70530104Y-130039792D01*
X70530106Y-130039788D01*
X70530109Y-130039786D01*
X70655048Y-129867820D01*
X70655047Y-129867820D01*
X70655051Y-129867816D01*
X70751557Y-129678412D01*
X70817246Y-129476243D01*
X70850500Y-129266287D01*
X70850500Y-129053713D01*
X70817246Y-128843757D01*
X70751557Y-128641588D01*
X70655051Y-128452184D01*
X70655049Y-128452181D01*
X70655048Y-128452179D01*
X70530109Y-128280213D01*
X70379786Y-128129890D01*
X70207820Y-128004951D01*
X70207115Y-128004591D01*
X70199054Y-128000485D01*
X70148259Y-127952512D01*
X70131463Y-127884692D01*
X70153999Y-127818556D01*
X70199054Y-127779515D01*
X70207816Y-127775051D01*
X70229789Y-127759086D01*
X70379786Y-127650109D01*
X70379788Y-127650106D01*
X70379792Y-127650104D01*
X70530104Y-127499792D01*
X70530106Y-127499788D01*
X70530109Y-127499786D01*
X70655048Y-127327820D01*
X70655047Y-127327820D01*
X70655051Y-127327816D01*
X70751557Y-127138412D01*
X70817246Y-126936243D01*
X70850500Y-126726287D01*
X70850500Y-126513713D01*
X70817246Y-126303757D01*
X70751557Y-126101588D01*
X70655051Y-125912184D01*
X70655049Y-125912181D01*
X70655048Y-125912179D01*
X70530109Y-125740213D01*
X70379786Y-125589890D01*
X70207820Y-125464951D01*
X70207115Y-125464591D01*
X70199054Y-125460485D01*
X70148259Y-125412512D01*
X70131463Y-125344692D01*
X70153999Y-125278556D01*
X70199054Y-125239515D01*
X70207816Y-125235051D01*
X70229789Y-125219086D01*
X70379786Y-125110109D01*
X70379788Y-125110106D01*
X70379792Y-125110104D01*
X70530104Y-124959792D01*
X70530106Y-124959788D01*
X70530109Y-124959786D01*
X70655048Y-124787820D01*
X70655047Y-124787820D01*
X70655051Y-124787816D01*
X70751557Y-124598412D01*
X70817246Y-124396243D01*
X70850500Y-124186287D01*
X70850500Y-123973713D01*
X70817246Y-123763757D01*
X70751557Y-123561588D01*
X70655051Y-123372184D01*
X70655049Y-123372181D01*
X70655048Y-123372179D01*
X70530109Y-123200213D01*
X70379786Y-123049890D01*
X70207820Y-122924951D01*
X70207115Y-122924591D01*
X70199054Y-122920485D01*
X70148259Y-122872512D01*
X70131463Y-122804692D01*
X70153999Y-122738556D01*
X70199054Y-122699515D01*
X70207816Y-122695051D01*
X70229789Y-122679086D01*
X70379731Y-122570149D01*
X86435500Y-122570149D01*
X86435500Y-123725850D01*
X86446331Y-123808112D01*
X86468874Y-123979340D01*
X86524325Y-124186286D01*
X86535050Y-124226312D01*
X86535053Y-124226322D01*
X86632894Y-124462531D01*
X86632899Y-124462542D01*
X86760734Y-124683957D01*
X86760745Y-124683973D01*
X86916388Y-124886811D01*
X86916394Y-124886818D01*
X87097181Y-125067605D01*
X87097188Y-125067611D01*
X87241638Y-125178452D01*
X87300035Y-125223261D01*
X87300042Y-125223265D01*
X87521457Y-125351100D01*
X87521462Y-125351102D01*
X87521465Y-125351104D01*
X87757687Y-125448950D01*
X88004660Y-125515126D01*
X88258157Y-125548500D01*
X88258164Y-125548500D01*
X88513836Y-125548500D01*
X88513843Y-125548500D01*
X88767340Y-125515126D01*
X89014313Y-125448950D01*
X89250535Y-125351104D01*
X89471965Y-125223261D01*
X89674813Y-125067610D01*
X89855610Y-124886813D01*
X90011261Y-124683965D01*
X90139104Y-124462535D01*
X90236950Y-124226313D01*
X90303126Y-123979340D01*
X90336500Y-123725843D01*
X90336500Y-122570157D01*
X90336499Y-122570149D01*
X109549500Y-122570149D01*
X109549500Y-123725850D01*
X109560331Y-123808112D01*
X109582874Y-123979340D01*
X109638325Y-124186286D01*
X109649050Y-124226312D01*
X109649053Y-124226322D01*
X109746894Y-124462531D01*
X109746899Y-124462542D01*
X109874734Y-124683957D01*
X109874745Y-124683973D01*
X110030388Y-124886811D01*
X110030394Y-124886818D01*
X110211181Y-125067605D01*
X110211188Y-125067611D01*
X110355638Y-125178452D01*
X110414035Y-125223261D01*
X110414042Y-125223265D01*
X110635457Y-125351100D01*
X110635462Y-125351102D01*
X110635465Y-125351104D01*
X110871687Y-125448950D01*
X111118660Y-125515126D01*
X111372157Y-125548500D01*
X111372164Y-125548500D01*
X111627836Y-125548500D01*
X111627843Y-125548500D01*
X111881340Y-125515126D01*
X112128313Y-125448950D01*
X112364535Y-125351104D01*
X112585965Y-125223261D01*
X112788813Y-125067610D01*
X112969610Y-124886813D01*
X113125261Y-124683965D01*
X113253104Y-124462535D01*
X113350950Y-124226313D01*
X113417126Y-123979340D01*
X113450500Y-123725843D01*
X113450500Y-122570157D01*
X113417126Y-122316660D01*
X113350950Y-122069687D01*
X113253104Y-121833465D01*
X113253102Y-121833462D01*
X113253100Y-121833457D01*
X113125265Y-121612042D01*
X113125261Y-121612035D01*
X113074722Y-121546172D01*
X112969611Y-121409188D01*
X112969605Y-121409181D01*
X112788818Y-121228394D01*
X112788811Y-121228388D01*
X112585973Y-121072745D01*
X112585971Y-121072743D01*
X112585965Y-121072739D01*
X112585960Y-121072736D01*
X112585957Y-121072734D01*
X112364542Y-120944899D01*
X112364531Y-120944894D01*
X112128322Y-120847053D01*
X112128315Y-120847051D01*
X112128313Y-120847050D01*
X111881340Y-120780874D01*
X111825007Y-120773457D01*
X111627850Y-120747500D01*
X111627843Y-120747500D01*
X111372157Y-120747500D01*
X111372149Y-120747500D01*
X111165950Y-120774648D01*
X111118660Y-120780874D01*
X110927187Y-120832179D01*
X110871687Y-120847050D01*
X110871677Y-120847053D01*
X110635468Y-120944894D01*
X110635457Y-120944899D01*
X110414042Y-121072734D01*
X110414026Y-121072745D01*
X110211188Y-121228388D01*
X110211181Y-121228394D01*
X110030394Y-121409181D01*
X110030388Y-121409188D01*
X109874745Y-121612026D01*
X109874734Y-121612042D01*
X109746899Y-121833457D01*
X109746894Y-121833468D01*
X109649053Y-122069677D01*
X109649050Y-122069687D01*
X109640828Y-122100374D01*
X109582874Y-122316661D01*
X109549500Y-122570149D01*
X90336499Y-122570149D01*
X90303126Y-122316660D01*
X90236950Y-122069687D01*
X90139104Y-121833465D01*
X90139102Y-121833462D01*
X90139100Y-121833457D01*
X90011265Y-121612042D01*
X90011261Y-121612035D01*
X89960722Y-121546172D01*
X89855611Y-121409188D01*
X89855605Y-121409181D01*
X89674818Y-121228394D01*
X89674811Y-121228388D01*
X89471973Y-121072745D01*
X89471971Y-121072743D01*
X89471965Y-121072739D01*
X89471960Y-121072736D01*
X89471957Y-121072734D01*
X89250542Y-120944899D01*
X89250531Y-120944894D01*
X89014322Y-120847053D01*
X89014315Y-120847051D01*
X89014313Y-120847050D01*
X88767340Y-120780874D01*
X88711007Y-120773457D01*
X88513850Y-120747500D01*
X88513843Y-120747500D01*
X88258157Y-120747500D01*
X88258149Y-120747500D01*
X88051950Y-120774648D01*
X88004660Y-120780874D01*
X87813187Y-120832179D01*
X87757687Y-120847050D01*
X87757677Y-120847053D01*
X87521468Y-120944894D01*
X87521457Y-120944899D01*
X87300042Y-121072734D01*
X87300026Y-121072745D01*
X87097188Y-121228388D01*
X87097181Y-121228394D01*
X86916394Y-121409181D01*
X86916388Y-121409188D01*
X86760745Y-121612026D01*
X86760734Y-121612042D01*
X86632899Y-121833457D01*
X86632894Y-121833468D01*
X86535053Y-122069677D01*
X86535050Y-122069687D01*
X86526828Y-122100374D01*
X86468874Y-122316661D01*
X86435500Y-122570149D01*
X70379731Y-122570149D01*
X70379786Y-122570109D01*
X70379788Y-122570106D01*
X70379792Y-122570104D01*
X70530104Y-122419792D01*
X70530106Y-122419788D01*
X70530109Y-122419786D01*
X70655048Y-122247820D01*
X70655047Y-122247820D01*
X70655051Y-122247816D01*
X70751557Y-122058412D01*
X70817246Y-121856243D01*
X70850500Y-121646287D01*
X70850500Y-121433713D01*
X70817246Y-121223757D01*
X70751557Y-121021588D01*
X70655051Y-120832184D01*
X70655049Y-120832181D01*
X70655048Y-120832179D01*
X70530109Y-120660213D01*
X70379786Y-120509890D01*
X70207820Y-120384951D01*
X70204976Y-120383502D01*
X70199054Y-120380485D01*
X70148259Y-120332512D01*
X70131463Y-120264692D01*
X70153999Y-120198556D01*
X70199054Y-120159515D01*
X70207816Y-120155051D01*
X70267929Y-120111377D01*
X70379786Y-120030109D01*
X70379788Y-120030106D01*
X70379792Y-120030104D01*
X70530104Y-119879792D01*
X70530106Y-119879788D01*
X70530109Y-119879786D01*
X70655048Y-119707820D01*
X70655047Y-119707820D01*
X70655051Y-119707816D01*
X70751557Y-119518412D01*
X70817246Y-119316243D01*
X70850500Y-119106287D01*
X70850500Y-118893713D01*
X70817246Y-118683757D01*
X70751557Y-118481588D01*
X70655051Y-118292184D01*
X70655049Y-118292181D01*
X70655048Y-118292179D01*
X70530109Y-118120213D01*
X70379786Y-117969890D01*
X70207820Y-117844951D01*
X70207115Y-117844591D01*
X70199054Y-117840485D01*
X70148259Y-117792512D01*
X70131463Y-117724692D01*
X70153999Y-117658556D01*
X70199054Y-117619515D01*
X70207816Y-117615051D01*
X70324471Y-117530297D01*
X70379786Y-117490109D01*
X70379788Y-117490106D01*
X70379792Y-117490104D01*
X70530104Y-117339792D01*
X70530106Y-117339788D01*
X70530109Y-117339786D01*
X70655048Y-117167820D01*
X70655047Y-117167820D01*
X70655051Y-117167816D01*
X70751557Y-116978412D01*
X70817246Y-116776243D01*
X70850500Y-116566287D01*
X70850500Y-116353713D01*
X70817246Y-116143757D01*
X70751557Y-115941588D01*
X70655051Y-115752184D01*
X70655049Y-115752181D01*
X70655048Y-115752179D01*
X70530109Y-115580213D01*
X70379786Y-115429890D01*
X70207820Y-115304951D01*
X70207115Y-115304591D01*
X70199054Y-115300485D01*
X70148259Y-115252512D01*
X70131463Y-115184692D01*
X70153999Y-115118556D01*
X70199054Y-115079515D01*
X70207816Y-115075051D01*
X70229789Y-115059086D01*
X70379786Y-114950109D01*
X70379788Y-114950106D01*
X70379792Y-114950104D01*
X70530104Y-114799792D01*
X70530106Y-114799788D01*
X70530109Y-114799786D01*
X70655048Y-114627820D01*
X70655047Y-114627820D01*
X70655051Y-114627816D01*
X70751557Y-114438412D01*
X70817246Y-114236243D01*
X70850500Y-114026287D01*
X70850500Y-113813713D01*
X70817246Y-113603757D01*
X70751557Y-113401588D01*
X70655051Y-113212184D01*
X70655049Y-113212181D01*
X70655048Y-113212179D01*
X70530109Y-113040213D01*
X70416569Y-112926673D01*
X70383084Y-112865350D01*
X70388068Y-112795658D01*
X70429940Y-112739725D01*
X70460915Y-112722810D01*
X70592331Y-112673796D01*
X70707546Y-112587546D01*
X70793796Y-112472331D01*
X70844091Y-112337483D01*
X70850500Y-112277873D01*
X70850499Y-110482128D01*
X70844091Y-110422517D01*
X70812117Y-110336791D01*
X70793797Y-110287671D01*
X70793793Y-110287664D01*
X70707547Y-110172455D01*
X70707544Y-110172452D01*
X70592335Y-110086206D01*
X70592328Y-110086202D01*
X70457482Y-110035908D01*
X70457483Y-110035908D01*
X70397883Y-110029501D01*
X70397881Y-110029500D01*
X70397873Y-110029500D01*
X70397864Y-110029500D01*
X68602129Y-110029500D01*
X68602123Y-110029501D01*
X68542516Y-110035908D01*
X68407671Y-110086202D01*
X68407664Y-110086206D01*
X68292455Y-110172452D01*
X68292452Y-110172455D01*
X68206206Y-110287664D01*
X68206202Y-110287671D01*
X68155908Y-110422517D01*
X68149501Y-110482116D01*
X68149501Y-110482123D01*
X68149500Y-110482135D01*
X51625000Y-110482135D01*
X51592206Y-110338455D01*
X51591484Y-110335069D01*
X51559138Y-110172455D01*
X51321301Y-108976768D01*
X51320672Y-108973357D01*
X51261383Y-108624408D01*
X51088677Y-107607935D01*
X51088147Y-107604521D01*
X50894550Y-106233210D01*
X50894112Y-106229760D01*
X50838704Y-105738000D01*
X50739042Y-104853470D01*
X50738712Y-104850124D01*
X50622303Y-103470036D01*
X50622060Y-103466575D01*
X50593967Y-102966330D01*
X50544401Y-102083735D01*
X50544260Y-102080386D01*
X50505417Y-100695952D01*
X50505368Y-100692474D01*
X50505368Y-99552677D01*
X79499500Y-99552677D01*
X79499500Y-100447322D01*
X79538524Y-101341120D01*
X79616497Y-102232357D01*
X79733271Y-103119348D01*
X79888622Y-104000387D01*
X79888624Y-104000398D01*
X79888625Y-104000401D01*
X80082262Y-104873840D01*
X80118962Y-105010808D01*
X80313811Y-105737995D01*
X80582840Y-106591244D01*
X80888822Y-107431927D01*
X81231190Y-108258475D01*
X81609285Y-109069302D01*
X82022383Y-109862855D01*
X82201131Y-110172455D01*
X82469707Y-110637643D01*
X82894490Y-111304418D01*
X82950405Y-111392187D01*
X83463546Y-112125028D01*
X84008172Y-112834800D01*
X84324832Y-113212179D01*
X84583239Y-113520136D01*
X85187652Y-114179738D01*
X85820262Y-114812348D01*
X86479864Y-115416761D01*
X86674658Y-115580213D01*
X87165199Y-115991827D01*
X87874971Y-116536453D01*
X88506156Y-116978414D01*
X88607821Y-117049600D01*
X89362357Y-117530293D01*
X89717461Y-117735312D01*
X90137144Y-117977616D01*
X90930697Y-118390714D01*
X91559136Y-118683760D01*
X91741526Y-118768810D01*
X92043068Y-118893713D01*
X92568072Y-119111177D01*
X92883859Y-119226113D01*
X93408762Y-119417162D01*
X94262000Y-119686187D01*
X95126160Y-119917738D01*
X95999599Y-120111375D01*
X96544701Y-120207491D01*
X96880651Y-120266728D01*
X96997426Y-120282101D01*
X97767643Y-120383503D01*
X98658884Y-120461476D01*
X99552677Y-120500500D01*
X100447323Y-120500500D01*
X101341116Y-120461476D01*
X102232357Y-120383503D01*
X103119348Y-120266728D01*
X104000401Y-120111375D01*
X104873840Y-119917738D01*
X105738000Y-119686187D01*
X106591238Y-119417162D01*
X107431930Y-119111176D01*
X108258474Y-118768810D01*
X109069298Y-118390716D01*
X109369106Y-118234646D01*
X109862855Y-117977616D01*
X109862857Y-117977615D01*
X110637643Y-117530293D01*
X111392179Y-117049600D01*
X112125029Y-116536453D01*
X112834799Y-115991828D01*
X113520136Y-115416761D01*
X114179738Y-114812348D01*
X114812348Y-114179738D01*
X114901785Y-114082135D01*
X127749500Y-114082135D01*
X127749500Y-115677870D01*
X127749501Y-115677876D01*
X127755908Y-115737483D01*
X127806202Y-115872328D01*
X127806206Y-115872335D01*
X127892452Y-115987544D01*
X127892455Y-115987547D01*
X128007664Y-116073793D01*
X128007671Y-116073797D01*
X128142517Y-116124091D01*
X128142516Y-116124091D01*
X128149444Y-116124835D01*
X128202127Y-116130500D01*
X128265733Y-116130499D01*
X128332770Y-116150183D01*
X128378526Y-116202986D01*
X128388470Y-116272144D01*
X128359446Y-116335700D01*
X128338619Y-116354816D01*
X128185354Y-116466171D01*
X128046174Y-116605351D01*
X128046174Y-116605352D01*
X128046172Y-116605354D01*
X127996485Y-116673741D01*
X127930476Y-116764594D01*
X127841117Y-116939970D01*
X127780290Y-117127173D01*
X127749500Y-117321577D01*
X127749500Y-117518422D01*
X127780290Y-117712826D01*
X127841117Y-117900029D01*
X127880650Y-117977616D01*
X127930476Y-118075405D01*
X128046172Y-118234646D01*
X128185354Y-118373828D01*
X128344595Y-118489524D01*
X128467992Y-118552397D01*
X128521213Y-118579515D01*
X128572009Y-118627489D01*
X128588804Y-118695310D01*
X128566267Y-118761445D01*
X128521213Y-118800485D01*
X128344594Y-118890476D01*
X128253741Y-118956485D01*
X128185354Y-119006172D01*
X128185352Y-119006174D01*
X128185351Y-119006174D01*
X128046174Y-119145351D01*
X128046174Y-119145352D01*
X128046172Y-119145354D01*
X127996485Y-119213741D01*
X127930476Y-119304594D01*
X127841117Y-119479970D01*
X127780290Y-119667173D01*
X127749500Y-119861577D01*
X127749500Y-120058422D01*
X127780290Y-120252826D01*
X127841117Y-120440029D01*
X127930476Y-120615405D01*
X128046172Y-120774646D01*
X128185354Y-120913828D01*
X128344595Y-121029524D01*
X128429400Y-121072734D01*
X128521213Y-121119515D01*
X128572009Y-121167489D01*
X128588804Y-121235310D01*
X128566267Y-121301445D01*
X128521213Y-121340485D01*
X128344594Y-121430476D01*
X128253741Y-121496485D01*
X128185354Y-121546172D01*
X128185352Y-121546174D01*
X128185351Y-121546174D01*
X128046174Y-121685351D01*
X128046174Y-121685352D01*
X128046172Y-121685354D01*
X127996485Y-121753741D01*
X127930476Y-121844594D01*
X127841117Y-122019970D01*
X127780290Y-122207173D01*
X127749500Y-122401577D01*
X127749500Y-122598422D01*
X127780290Y-122792826D01*
X127841117Y-122980029D01*
X127930476Y-123155405D01*
X128046172Y-123314646D01*
X128185354Y-123453828D01*
X128344595Y-123569524D01*
X128427455Y-123611743D01*
X128519970Y-123658882D01*
X128519972Y-123658882D01*
X128519975Y-123658884D01*
X128620317Y-123691487D01*
X128707173Y-123719709D01*
X128901578Y-123750500D01*
X128901583Y-123750500D01*
X129098422Y-123750500D01*
X129292826Y-123719709D01*
X129480025Y-123658884D01*
X129655405Y-123569524D01*
X129814646Y-123453828D01*
X129953828Y-123314646D01*
X130069524Y-123155405D01*
X130158884Y-122980025D01*
X130219709Y-122792826D01*
X130226889Y-122747491D01*
X130250500Y-122598422D01*
X130250500Y-122401577D01*
X130219709Y-122207173D01*
X130184500Y-122098812D01*
X130158884Y-122019975D01*
X130158882Y-122019972D01*
X130158882Y-122019970D01*
X130111743Y-121927455D01*
X130069524Y-121844595D01*
X129953828Y-121685354D01*
X129814646Y-121546172D01*
X129735025Y-121488324D01*
X129655403Y-121430474D01*
X129478787Y-121340485D01*
X129427990Y-121292511D01*
X129411195Y-121224690D01*
X129433732Y-121158555D01*
X129478787Y-121119515D01*
X129655403Y-121029525D01*
X129655402Y-121029525D01*
X129655405Y-121029524D01*
X129814646Y-120913828D01*
X129953828Y-120774646D01*
X130069524Y-120615405D01*
X130158884Y-120440025D01*
X130219709Y-120252826D01*
X130226889Y-120207491D01*
X130250500Y-120058422D01*
X130250500Y-119861577D01*
X130219709Y-119667173D01*
X130191487Y-119580317D01*
X130158884Y-119479975D01*
X130158882Y-119479972D01*
X130158882Y-119479970D01*
X130109780Y-119383602D01*
X130069524Y-119304595D01*
X129953828Y-119145354D01*
X129814646Y-119006172D01*
X129724511Y-118940685D01*
X129655403Y-118890474D01*
X129478787Y-118800485D01*
X129427990Y-118752511D01*
X129411195Y-118684690D01*
X129433732Y-118618555D01*
X129478787Y-118579515D01*
X129655403Y-118489525D01*
X129655402Y-118489525D01*
X129655405Y-118489524D01*
X129814646Y-118373828D01*
X129953828Y-118234646D01*
X130069524Y-118075405D01*
X130158884Y-117900025D01*
X130219709Y-117712826D01*
X130226889Y-117667491D01*
X130250500Y-117518422D01*
X130250500Y-117321577D01*
X130219709Y-117127173D01*
X130178603Y-117000664D01*
X130158884Y-116939975D01*
X130158882Y-116939972D01*
X130158882Y-116939970D01*
X130111743Y-116847455D01*
X130069524Y-116764595D01*
X129953828Y-116605354D01*
X129814646Y-116466172D01*
X129661377Y-116354815D01*
X129618714Y-116299487D01*
X129612735Y-116229873D01*
X129645341Y-116168078D01*
X129706180Y-116133721D01*
X129734264Y-116130499D01*
X129797872Y-116130499D01*
X129857483Y-116124091D01*
X129992331Y-116073796D01*
X130107546Y-115987546D01*
X130193796Y-115872331D01*
X130244091Y-115737483D01*
X130250500Y-115677873D01*
X130250499Y-114082128D01*
X130244091Y-114022517D01*
X130193796Y-113887669D01*
X130193795Y-113887668D01*
X130193793Y-113887664D01*
X130107547Y-113772455D01*
X130107544Y-113772452D01*
X129992335Y-113686206D01*
X129992328Y-113686202D01*
X129857482Y-113635908D01*
X129857483Y-113635908D01*
X129797883Y-113629501D01*
X129797881Y-113629500D01*
X129797873Y-113629500D01*
X129797864Y-113629500D01*
X128202129Y-113629500D01*
X128202123Y-113629501D01*
X128142516Y-113635908D01*
X128007671Y-113686202D01*
X128007664Y-113686206D01*
X127892455Y-113772452D01*
X127892452Y-113772455D01*
X127806206Y-113887664D01*
X127806202Y-113887671D01*
X127755908Y-114022517D01*
X127749501Y-114082116D01*
X127749501Y-114082123D01*
X127749500Y-114082135D01*
X114901785Y-114082135D01*
X115416761Y-113520136D01*
X115991828Y-112834799D01*
X116536453Y-112125029D01*
X117049600Y-111392179D01*
X117530293Y-110637643D01*
X117977615Y-109862857D01*
X118390716Y-109069298D01*
X118768810Y-108258474D01*
X119111176Y-107431930D01*
X119417162Y-106591238D01*
X119686187Y-105738000D01*
X119917738Y-104873840D01*
X120111375Y-104000401D01*
X120266728Y-103119348D01*
X120383503Y-102232357D01*
X120461476Y-101341116D01*
X120500500Y-100447323D01*
X120500500Y-99552677D01*
X120461476Y-98658884D01*
X120383503Y-97767643D01*
X120266728Y-96880652D01*
X120111375Y-95999599D01*
X119917738Y-95126160D01*
X119686187Y-94262000D01*
X119417162Y-93408762D01*
X119207980Y-92834038D01*
X119111177Y-92568072D01*
X118841636Y-91917344D01*
X118768810Y-91741526D01*
X118543732Y-91258845D01*
X118390714Y-90930697D01*
X117977616Y-90137144D01*
X117856030Y-89926552D01*
X117728382Y-89705458D01*
X121117500Y-89705458D01*
X121117500Y-91964541D01*
X121120412Y-92001546D01*
X121120413Y-92001552D01*
X121166434Y-92159954D01*
X121166435Y-92159957D01*
X121250405Y-92301943D01*
X121250412Y-92301952D01*
X121367047Y-92418587D01*
X121367051Y-92418590D01*
X121367053Y-92418592D01*
X121509041Y-92502564D01*
X121550816Y-92514701D01*
X121667447Y-92548586D01*
X121667450Y-92548586D01*
X121667452Y-92548587D01*
X121704466Y-92551500D01*
X121704474Y-92551500D01*
X123055526Y-92551500D01*
X123055534Y-92551500D01*
X123092548Y-92548587D01*
X123092550Y-92548586D01*
X123092552Y-92548586D01*
X123134323Y-92536449D01*
X123250959Y-92502564D01*
X123392947Y-92418592D01*
X123509592Y-92301947D01*
X123543268Y-92245003D01*
X123594337Y-92197321D01*
X123663079Y-92184817D01*
X123727668Y-92211462D01*
X123756732Y-92245004D01*
X123790406Y-92301944D01*
X123790412Y-92301952D01*
X123907047Y-92418587D01*
X123907051Y-92418590D01*
X123907053Y-92418592D01*
X124049041Y-92502564D01*
X124090816Y-92514701D01*
X124207447Y-92548586D01*
X124207450Y-92548586D01*
X124207452Y-92548587D01*
X124244466Y-92551500D01*
X124244474Y-92551500D01*
X125595526Y-92551500D01*
X125595534Y-92551500D01*
X125632548Y-92548587D01*
X125632550Y-92548586D01*
X125632552Y-92548586D01*
X125674323Y-92536449D01*
X125790959Y-92502564D01*
X125932947Y-92418592D01*
X126049592Y-92301947D01*
X126083268Y-92245003D01*
X126134337Y-92197321D01*
X126203079Y-92184817D01*
X126267668Y-92211462D01*
X126296732Y-92245004D01*
X126330406Y-92301944D01*
X126330412Y-92301952D01*
X126447047Y-92418587D01*
X126447051Y-92418590D01*
X126447053Y-92418592D01*
X126589041Y-92502564D01*
X126630816Y-92514701D01*
X126747447Y-92548586D01*
X126747450Y-92548586D01*
X126747452Y-92548587D01*
X126784466Y-92551500D01*
X126784474Y-92551500D01*
X128135526Y-92551500D01*
X128135534Y-92551500D01*
X128172548Y-92548587D01*
X128172550Y-92548586D01*
X128172552Y-92548586D01*
X128214323Y-92536449D01*
X128330959Y-92502564D01*
X128472947Y-92418592D01*
X128589592Y-92301947D01*
X128623268Y-92245003D01*
X128674337Y-92197321D01*
X128743079Y-92184817D01*
X128807668Y-92211462D01*
X128836732Y-92245004D01*
X128870406Y-92301944D01*
X128870412Y-92301952D01*
X128987047Y-92418587D01*
X128987051Y-92418590D01*
X128987053Y-92418592D01*
X129129041Y-92502564D01*
X129170816Y-92514701D01*
X129287447Y-92548586D01*
X129287450Y-92548586D01*
X129287452Y-92548587D01*
X129324466Y-92551500D01*
X129324474Y-92551500D01*
X130675526Y-92551500D01*
X130675534Y-92551500D01*
X130712548Y-92548587D01*
X130712550Y-92548586D01*
X130712552Y-92548586D01*
X130754323Y-92536449D01*
X130870959Y-92502564D01*
X131012947Y-92418592D01*
X131129592Y-92301947D01*
X131163268Y-92245003D01*
X131214337Y-92197321D01*
X131283079Y-92184817D01*
X131347668Y-92211462D01*
X131376732Y-92245004D01*
X131410406Y-92301944D01*
X131410412Y-92301952D01*
X131527047Y-92418587D01*
X131527051Y-92418590D01*
X131527053Y-92418592D01*
X131669041Y-92502564D01*
X131710816Y-92514701D01*
X131827447Y-92548586D01*
X131827450Y-92548586D01*
X131827452Y-92548587D01*
X131864466Y-92551500D01*
X131864474Y-92551500D01*
X133215526Y-92551500D01*
X133215534Y-92551500D01*
X133252548Y-92548587D01*
X133252550Y-92548586D01*
X133252552Y-92548586D01*
X133294323Y-92536449D01*
X133410959Y-92502564D01*
X133552947Y-92418592D01*
X133669592Y-92301947D01*
X133703268Y-92245003D01*
X133754337Y-92197321D01*
X133823079Y-92184817D01*
X133887668Y-92211462D01*
X133916732Y-92245004D01*
X133950406Y-92301944D01*
X133950412Y-92301952D01*
X134067047Y-92418587D01*
X134067051Y-92418590D01*
X134067053Y-92418592D01*
X134209041Y-92502564D01*
X134250816Y-92514701D01*
X134367447Y-92548586D01*
X134367450Y-92548586D01*
X134367452Y-92548587D01*
X134404466Y-92551500D01*
X134404474Y-92551500D01*
X135755526Y-92551500D01*
X135755534Y-92551500D01*
X135792548Y-92548587D01*
X135792550Y-92548586D01*
X135792552Y-92548586D01*
X135834323Y-92536449D01*
X135950959Y-92502564D01*
X136092947Y-92418592D01*
X136209592Y-92301947D01*
X136209778Y-92301634D01*
X136243558Y-92244514D01*
X136294626Y-92196830D01*
X136363368Y-92184326D01*
X136427958Y-92210971D01*
X136457022Y-92244513D01*
X136490803Y-92301634D01*
X136490810Y-92301643D01*
X136607356Y-92418189D01*
X136607365Y-92418196D01*
X136749243Y-92502102D01*
X136749246Y-92502103D01*
X136907526Y-92548088D01*
X136907532Y-92548089D01*
X136944518Y-92550999D01*
X138295469Y-92550999D01*
X138295491Y-92550998D01*
X138332466Y-92548089D01*
X138490757Y-92502102D01*
X138632632Y-92418197D01*
X138632636Y-92418194D01*
X138741139Y-92309691D01*
X137656319Y-91224871D01*
X137622834Y-91163548D01*
X137620000Y-91137190D01*
X137620000Y-90834999D01*
X137973553Y-90834999D01*
X137973553Y-90835000D01*
X138881998Y-91743446D01*
X138881999Y-91743445D01*
X138881999Y-90105456D01*
X138882000Y-90105435D01*
X138882000Y-89926553D01*
X138881999Y-89926552D01*
X137973553Y-90834999D01*
X137620000Y-90834999D01*
X137620000Y-90532808D01*
X137639685Y-90465769D01*
X137656319Y-90445127D01*
X137656946Y-90444500D01*
X137678520Y-90444500D01*
X137791571Y-90414208D01*
X137892930Y-90355689D01*
X137975689Y-90272930D01*
X138034208Y-90171571D01*
X138064500Y-90058520D01*
X138064500Y-90036946D01*
X138741139Y-89360307D01*
X138677192Y-89296360D01*
X138677191Y-89296360D01*
X138057647Y-89915904D01*
X138034208Y-89828429D01*
X137975689Y-89727070D01*
X137892930Y-89644311D01*
X137791571Y-89585792D01*
X137704094Y-89562352D01*
X138318716Y-88947731D01*
X138318715Y-88947730D01*
X138281432Y-88920641D01*
X138104437Y-88830457D01*
X137915522Y-88769075D01*
X137719321Y-88738000D01*
X137520679Y-88738000D01*
X137324479Y-88769075D01*
X137324476Y-88769075D01*
X137135562Y-88830457D01*
X136958564Y-88920643D01*
X136921283Y-88947729D01*
X136921282Y-88947730D01*
X137535906Y-89562352D01*
X137448429Y-89585792D01*
X137347070Y-89644311D01*
X137264311Y-89727070D01*
X137205792Y-89828429D01*
X137182352Y-89915905D01*
X136562807Y-89296360D01*
X136490810Y-89368357D01*
X136490800Y-89368370D01*
X136457021Y-89425487D01*
X136405952Y-89473170D01*
X136337210Y-89485673D01*
X136272621Y-89459027D01*
X136243558Y-89425486D01*
X136209594Y-89368056D01*
X136209590Y-89368051D01*
X136201846Y-89360307D01*
X136113390Y-89271851D01*
X136100758Y-89257060D01*
X136042984Y-89177539D01*
X135902466Y-89037021D01*
X135902464Y-89037019D01*
X135741694Y-88920213D01*
X135564632Y-88829994D01*
X135564629Y-88829993D01*
X135375637Y-88768587D01*
X135277498Y-88753043D01*
X135179361Y-88737500D01*
X134980639Y-88737500D01*
X134915214Y-88747862D01*
X134784362Y-88768587D01*
X134595370Y-88829993D01*
X134595367Y-88829994D01*
X134418305Y-88920213D01*
X134257533Y-89037021D01*
X134117018Y-89177536D01*
X134059239Y-89257061D01*
X134046604Y-89271854D01*
X133950413Y-89368046D01*
X133950408Y-89368053D01*
X133916732Y-89424996D01*
X133865662Y-89472679D01*
X133796921Y-89485182D01*
X133732331Y-89458536D01*
X133703268Y-89424996D01*
X133669592Y-89368053D01*
X133573390Y-89271851D01*
X133560758Y-89257060D01*
X133502984Y-89177539D01*
X133362466Y-89037021D01*
X133362464Y-89037019D01*
X133201694Y-88920213D01*
X133024632Y-88829994D01*
X133024629Y-88829993D01*
X132835637Y-88768587D01*
X132737498Y-88753043D01*
X132639361Y-88737500D01*
X132440639Y-88737500D01*
X132375214Y-88747862D01*
X132244362Y-88768587D01*
X132055370Y-88829993D01*
X132055367Y-88829994D01*
X131878305Y-88920213D01*
X131717533Y-89037021D01*
X131577018Y-89177536D01*
X131519239Y-89257061D01*
X131506604Y-89271854D01*
X131410413Y-89368046D01*
X131410408Y-89368053D01*
X131376732Y-89424996D01*
X131325662Y-89472679D01*
X131256921Y-89485182D01*
X131192331Y-89458536D01*
X131163268Y-89424996D01*
X131129592Y-89368053D01*
X131033390Y-89271851D01*
X131020758Y-89257060D01*
X130962984Y-89177539D01*
X130822466Y-89037021D01*
X130822464Y-89037019D01*
X130661694Y-88920213D01*
X130484632Y-88829994D01*
X130484629Y-88829993D01*
X130295637Y-88768587D01*
X130197498Y-88753043D01*
X130099361Y-88737500D01*
X129900639Y-88737500D01*
X129835214Y-88747862D01*
X129704362Y-88768587D01*
X129515370Y-88829993D01*
X129515367Y-88829994D01*
X129338305Y-88920213D01*
X129177533Y-89037021D01*
X129037018Y-89177536D01*
X128979239Y-89257061D01*
X128966604Y-89271854D01*
X128870413Y-89368046D01*
X128870408Y-89368053D01*
X128836732Y-89424996D01*
X128785662Y-89472679D01*
X128716921Y-89485182D01*
X128652331Y-89458536D01*
X128623268Y-89424996D01*
X128589592Y-89368053D01*
X128493390Y-89271851D01*
X128480758Y-89257060D01*
X128422984Y-89177539D01*
X128282466Y-89037021D01*
X128282464Y-89037019D01*
X128121694Y-88920213D01*
X127944632Y-88829994D01*
X127944629Y-88829993D01*
X127755637Y-88768587D01*
X127657498Y-88753043D01*
X127559361Y-88737500D01*
X127360639Y-88737500D01*
X127295214Y-88747862D01*
X127164362Y-88768587D01*
X126975370Y-88829993D01*
X126975367Y-88829994D01*
X126798305Y-88920213D01*
X126637533Y-89037021D01*
X126497018Y-89177536D01*
X126439239Y-89257061D01*
X126426604Y-89271854D01*
X126330413Y-89368046D01*
X126330408Y-89368053D01*
X126296732Y-89424996D01*
X126245662Y-89472679D01*
X126176921Y-89485182D01*
X126112331Y-89458536D01*
X126083268Y-89424996D01*
X126049592Y-89368053D01*
X125953390Y-89271851D01*
X125940758Y-89257060D01*
X125882984Y-89177539D01*
X125742466Y-89037021D01*
X125742464Y-89037019D01*
X125581694Y-88920213D01*
X125404632Y-88829994D01*
X125404629Y-88829993D01*
X125215637Y-88768587D01*
X125117498Y-88753043D01*
X125019361Y-88737500D01*
X124820639Y-88737500D01*
X124755214Y-88747862D01*
X124624362Y-88768587D01*
X124435370Y-88829993D01*
X124435367Y-88829994D01*
X124258305Y-88920213D01*
X124097533Y-89037021D01*
X123957018Y-89177536D01*
X123899239Y-89257061D01*
X123886604Y-89271854D01*
X123790413Y-89368046D01*
X123790408Y-89368053D01*
X123756732Y-89424996D01*
X123705662Y-89472679D01*
X123636921Y-89485182D01*
X123572331Y-89458536D01*
X123543268Y-89424996D01*
X123509592Y-89368053D01*
X123413390Y-89271851D01*
X123400758Y-89257060D01*
X123342984Y-89177539D01*
X123202466Y-89037021D01*
X123202464Y-89037019D01*
X123041694Y-88920213D01*
X122864632Y-88829994D01*
X122864629Y-88829993D01*
X122675637Y-88768587D01*
X122577498Y-88753043D01*
X122479361Y-88737500D01*
X122280639Y-88737500D01*
X122215214Y-88747862D01*
X122084362Y-88768587D01*
X121895370Y-88829993D01*
X121895367Y-88829994D01*
X121718305Y-88920213D01*
X121557533Y-89037021D01*
X121417018Y-89177536D01*
X121359239Y-89257061D01*
X121346604Y-89271854D01*
X121250413Y-89368046D01*
X121250405Y-89368056D01*
X121166435Y-89510042D01*
X121166434Y-89510045D01*
X121120413Y-89668447D01*
X121120412Y-89668453D01*
X121117500Y-89705458D01*
X117728382Y-89705458D01*
X117530293Y-89362357D01*
X117049600Y-88607821D01*
X116952927Y-88469758D01*
X116536453Y-87874971D01*
X115991827Y-87165199D01*
X115446949Y-86515841D01*
X115416761Y-86479864D01*
X114812348Y-85820262D01*
X114179738Y-85187652D01*
X113520136Y-84583239D01*
X113190438Y-84306589D01*
X112834800Y-84008172D01*
X112125028Y-83463546D01*
X111392187Y-82950405D01*
X111304418Y-82894490D01*
X110637643Y-82469707D01*
X110491714Y-82385455D01*
X109862855Y-82022383D01*
X109069302Y-81609285D01*
X108258475Y-81231190D01*
X107431927Y-80888822D01*
X106591244Y-80582840D01*
X105737995Y-80313811D01*
X104873847Y-80082264D01*
X104873849Y-80082264D01*
X104873840Y-80082262D01*
X104000401Y-79888625D01*
X104000398Y-79888624D01*
X104000387Y-79888622D01*
X103119348Y-79733271D01*
X102232357Y-79616497D01*
X101341120Y-79538524D01*
X100447323Y-79499500D01*
X99552677Y-79499500D01*
X98658879Y-79538524D01*
X97767642Y-79616497D01*
X96880651Y-79733271D01*
X95999612Y-79888622D01*
X95700435Y-79954948D01*
X95126160Y-80082262D01*
X95126155Y-80082263D01*
X95126152Y-80082264D01*
X94262004Y-80313811D01*
X93408755Y-80582840D01*
X92568072Y-80888822D01*
X91741524Y-81231190D01*
X90930697Y-81609285D01*
X90137144Y-82022383D01*
X89362365Y-82469702D01*
X88607812Y-82950405D01*
X87874971Y-83463546D01*
X87165199Y-84008172D01*
X86479860Y-84583242D01*
X85820262Y-85187651D01*
X85187651Y-85820262D01*
X84583242Y-86479860D01*
X84008172Y-87165199D01*
X83463546Y-87874971D01*
X82950405Y-88607812D01*
X82469702Y-89362365D01*
X82022383Y-90137144D01*
X81609285Y-90930697D01*
X81231190Y-91741524D01*
X80888822Y-92568072D01*
X80582840Y-93408755D01*
X80313811Y-94262004D01*
X80082264Y-95126152D01*
X80082262Y-95126160D01*
X80018585Y-95413389D01*
X79888622Y-95999612D01*
X79733271Y-96880651D01*
X79616497Y-97767642D01*
X79538524Y-98658879D01*
X79499500Y-99552677D01*
X50505368Y-99552677D01*
X50505368Y-99307525D01*
X50505417Y-99304047D01*
X50505764Y-99291686D01*
X50544260Y-97919610D01*
X50544401Y-97916267D01*
X50622060Y-96533411D01*
X50622304Y-96529955D01*
X50716485Y-95413389D01*
X59399500Y-95413389D01*
X59399500Y-95586611D01*
X59426598Y-95757701D01*
X59480127Y-95922445D01*
X59558768Y-96076788D01*
X59660586Y-96216928D01*
X59783072Y-96339414D01*
X59923212Y-96441232D01*
X60077555Y-96519873D01*
X60242299Y-96573402D01*
X60413389Y-96600500D01*
X60413390Y-96600500D01*
X60586610Y-96600500D01*
X60586611Y-96600500D01*
X60757701Y-96573402D01*
X60922445Y-96519873D01*
X61076788Y-96441232D01*
X61216928Y-96339414D01*
X61339414Y-96216928D01*
X61441232Y-96076788D01*
X61519873Y-95922445D01*
X61573402Y-95757701D01*
X61600500Y-95586611D01*
X61600500Y-95413389D01*
X61590854Y-95352486D01*
X63329500Y-95352486D01*
X63329500Y-95647513D01*
X63361571Y-95891113D01*
X63368007Y-95939993D01*
X63442212Y-96216930D01*
X63444361Y-96224951D01*
X63444364Y-96224961D01*
X63557254Y-96497500D01*
X63557258Y-96497510D01*
X63704761Y-96752993D01*
X63884352Y-96987040D01*
X63884358Y-96987047D01*
X64092952Y-97195641D01*
X64092959Y-97195647D01*
X64327006Y-97375238D01*
X64582489Y-97522741D01*
X64582490Y-97522741D01*
X64582493Y-97522743D01*
X64855048Y-97635639D01*
X65140007Y-97711993D01*
X65432494Y-97750500D01*
X65432501Y-97750500D01*
X65727499Y-97750500D01*
X65727506Y-97750500D01*
X66019993Y-97711993D01*
X66304952Y-97635639D01*
X66577507Y-97522743D01*
X66832994Y-97375238D01*
X67067042Y-97195646D01*
X67275646Y-96987042D01*
X67455238Y-96752994D01*
X67602743Y-96497507D01*
X67715639Y-96224952D01*
X67791993Y-95939993D01*
X67830500Y-95647506D01*
X67830500Y-95413389D01*
X69559500Y-95413389D01*
X69559500Y-95586611D01*
X69586598Y-95757701D01*
X69640127Y-95922445D01*
X69718768Y-96076788D01*
X69820586Y-96216928D01*
X69943072Y-96339414D01*
X70083212Y-96441232D01*
X70237555Y-96519873D01*
X70402299Y-96573402D01*
X70573389Y-96600500D01*
X70573390Y-96600500D01*
X70746610Y-96600500D01*
X70746611Y-96600500D01*
X70917701Y-96573402D01*
X71082445Y-96519873D01*
X71236788Y-96441232D01*
X71376928Y-96339414D01*
X71499414Y-96216928D01*
X71601232Y-96076788D01*
X71679873Y-95922445D01*
X71733402Y-95757701D01*
X71760500Y-95586611D01*
X71760500Y-95413389D01*
X71733402Y-95242299D01*
X71679873Y-95077555D01*
X71601232Y-94923212D01*
X71499414Y-94783072D01*
X71376928Y-94660586D01*
X71236788Y-94558768D01*
X71082445Y-94480127D01*
X70917701Y-94426598D01*
X70917699Y-94426597D01*
X70917698Y-94426597D01*
X70786271Y-94405781D01*
X70746611Y-94399500D01*
X70573389Y-94399500D01*
X70533728Y-94405781D01*
X70402302Y-94426597D01*
X70237552Y-94480128D01*
X70083211Y-94558768D01*
X70026289Y-94600125D01*
X69943072Y-94660586D01*
X69943070Y-94660588D01*
X69943069Y-94660588D01*
X69820588Y-94783069D01*
X69820588Y-94783070D01*
X69820586Y-94783072D01*
X69776859Y-94843256D01*
X69718768Y-94923211D01*
X69640128Y-95077552D01*
X69586597Y-95242302D01*
X69561922Y-95398095D01*
X69559500Y-95413389D01*
X67830500Y-95413389D01*
X67830500Y-95352494D01*
X67791993Y-95060007D01*
X67715639Y-94775048D01*
X67602743Y-94502493D01*
X67547309Y-94406479D01*
X67455238Y-94247006D01*
X67275647Y-94012959D01*
X67275641Y-94012952D01*
X67067047Y-93804358D01*
X67067040Y-93804352D01*
X66832993Y-93624761D01*
X66577510Y-93477258D01*
X66577500Y-93477254D01*
X66304961Y-93364364D01*
X66304954Y-93364362D01*
X66304952Y-93364361D01*
X66019993Y-93288007D01*
X65971113Y-93281571D01*
X65727513Y-93249500D01*
X65727506Y-93249500D01*
X65432494Y-93249500D01*
X65432486Y-93249500D01*
X65154085Y-93286153D01*
X65140007Y-93288007D01*
X64965428Y-93334785D01*
X64855048Y-93364361D01*
X64855038Y-93364364D01*
X64582499Y-93477254D01*
X64582489Y-93477258D01*
X64327006Y-93624761D01*
X64092959Y-93804352D01*
X64092952Y-93804358D01*
X63884358Y-94012952D01*
X63884352Y-94012959D01*
X63704761Y-94247006D01*
X63557258Y-94502489D01*
X63557254Y-94502499D01*
X63444364Y-94775038D01*
X63444361Y-94775048D01*
X63368008Y-95060004D01*
X63368006Y-95060015D01*
X63329500Y-95352486D01*
X61590854Y-95352486D01*
X61573402Y-95242299D01*
X61519873Y-95077555D01*
X61441232Y-94923212D01*
X61339414Y-94783072D01*
X61287482Y-94731140D01*
X61253997Y-94669817D01*
X61258981Y-94600125D01*
X61300853Y-94544192D01*
X61366317Y-94519775D01*
X61394561Y-94520986D01*
X61395212Y-94521089D01*
X61395215Y-94521090D01*
X61644038Y-94560500D01*
X61644039Y-94560500D01*
X61895961Y-94560500D01*
X61895962Y-94560500D01*
X62144785Y-94521090D01*
X62384379Y-94443241D01*
X62608845Y-94328870D01*
X62812656Y-94180793D01*
X62990793Y-94002656D01*
X63138870Y-93798845D01*
X63253241Y-93574379D01*
X63331090Y-93334785D01*
X63370500Y-93085962D01*
X63370500Y-92834038D01*
X63331090Y-92585215D01*
X63253241Y-92345621D01*
X63253239Y-92345618D01*
X63253239Y-92345616D01*
X63198996Y-92239159D01*
X63138870Y-92121155D01*
X63051971Y-92001548D01*
X62990798Y-91917350D01*
X62990794Y-91917345D01*
X62812654Y-91739205D01*
X62812649Y-91739201D01*
X62608848Y-91591132D01*
X62608847Y-91591131D01*
X62608845Y-91591130D01*
X62538747Y-91555413D01*
X62384383Y-91476760D01*
X62144785Y-91398910D01*
X61997562Y-91375592D01*
X61895962Y-91359500D01*
X61644038Y-91359500D01*
X61542438Y-91375592D01*
X61395214Y-91398910D01*
X61155616Y-91476760D01*
X60931151Y-91591132D01*
X60727350Y-91739201D01*
X60727345Y-91739205D01*
X60549205Y-91917345D01*
X60549201Y-91917350D01*
X60401132Y-92121151D01*
X60286760Y-92345616D01*
X60208910Y-92585214D01*
X60169500Y-92834038D01*
X60169500Y-93085961D01*
X60208910Y-93334785D01*
X60286760Y-93574383D01*
X60401132Y-93798848D01*
X60549201Y-94002649D01*
X60549205Y-94002654D01*
X60549207Y-94002656D01*
X60727344Y-94180793D01*
X60727345Y-94180794D01*
X60727344Y-94180794D01*
X60733661Y-94185383D01*
X60776327Y-94240714D01*
X60782305Y-94310327D01*
X60749699Y-94372122D01*
X60688860Y-94406479D01*
X60641378Y-94408174D01*
X60586611Y-94399500D01*
X60413389Y-94399500D01*
X60373728Y-94405781D01*
X60242302Y-94426597D01*
X60077552Y-94480128D01*
X59923211Y-94558768D01*
X59866289Y-94600125D01*
X59783072Y-94660586D01*
X59783070Y-94660588D01*
X59783069Y-94660588D01*
X59660588Y-94783069D01*
X59660588Y-94783070D01*
X59660586Y-94783072D01*
X59616859Y-94843256D01*
X59558768Y-94923211D01*
X59480128Y-95077552D01*
X59426597Y-95242302D01*
X59401922Y-95398095D01*
X59399500Y-95413389D01*
X50716485Y-95413389D01*
X50738713Y-95149868D01*
X50739041Y-95146536D01*
X50894112Y-93770232D01*
X50894550Y-93766789D01*
X50951363Y-93364364D01*
X51088152Y-92395443D01*
X51088675Y-92392075D01*
X51320676Y-91026619D01*
X51321303Y-91023222D01*
X51339707Y-90930702D01*
X51466347Y-90294038D01*
X66519500Y-90294038D01*
X66519500Y-90545961D01*
X66558910Y-90794785D01*
X66636760Y-91034383D01*
X66702574Y-91163548D01*
X66733819Y-91224871D01*
X66751132Y-91258848D01*
X66899201Y-91462649D01*
X66899205Y-91462654D01*
X67077345Y-91640794D01*
X67077350Y-91640798D01*
X67215991Y-91741526D01*
X67281155Y-91788870D01*
X67424184Y-91861747D01*
X67505616Y-91903239D01*
X67505618Y-91903239D01*
X67505621Y-91903241D01*
X67745215Y-91981090D01*
X67994038Y-92020500D01*
X67994039Y-92020500D01*
X68245961Y-92020500D01*
X68245962Y-92020500D01*
X68494785Y-91981090D01*
X68734379Y-91903241D01*
X68958845Y-91788870D01*
X69162656Y-91640793D01*
X69340793Y-91462656D01*
X69488870Y-91258845D01*
X69603241Y-91034379D01*
X69681090Y-90794785D01*
X69720500Y-90545962D01*
X69720500Y-90294038D01*
X69681090Y-90045215D01*
X69603241Y-89805621D01*
X69603239Y-89805618D01*
X69603239Y-89805616D01*
X69561747Y-89724184D01*
X69488870Y-89581155D01*
X69437203Y-89510041D01*
X69340798Y-89377350D01*
X69340794Y-89377345D01*
X69162654Y-89199205D01*
X69162649Y-89199201D01*
X68958848Y-89051132D01*
X68958847Y-89051131D01*
X68958845Y-89051130D01*
X68888747Y-89015413D01*
X68734383Y-88936760D01*
X68494785Y-88858910D01*
X68312224Y-88829995D01*
X68245962Y-88819500D01*
X67994038Y-88819500D01*
X67927782Y-88829994D01*
X67745214Y-88858910D01*
X67505616Y-88936760D01*
X67281151Y-89051132D01*
X67077350Y-89199201D01*
X67077345Y-89199205D01*
X66899205Y-89377345D01*
X66899201Y-89377350D01*
X66751132Y-89581151D01*
X66636760Y-89805616D01*
X66558910Y-90045214D01*
X66519500Y-90294038D01*
X51466347Y-90294038D01*
X51591493Y-89664883D01*
X51592200Y-89661573D01*
X51900392Y-88311289D01*
X51901209Y-88307931D01*
X52247153Y-86966816D01*
X52248029Y-86963606D01*
X52631477Y-85632630D01*
X52632439Y-85629461D01*
X53053042Y-84309832D01*
X53054107Y-84306643D01*
X53511563Y-82999310D01*
X53512750Y-82996069D01*
X53644021Y-82652176D01*
X54006653Y-81702181D01*
X54007928Y-81698978D01*
X54045081Y-81609285D01*
X54537927Y-80419446D01*
X54539297Y-80416268D01*
X54775402Y-79888625D01*
X55104979Y-79152092D01*
X55106404Y-79149023D01*
X55707337Y-77901171D01*
X55708883Y-77898075D01*
X56344569Y-76667584D01*
X56346137Y-76664649D01*
X57016118Y-75452411D01*
X57017807Y-75449454D01*
X57721483Y-74256550D01*
X57723280Y-74253601D01*
X58460142Y-73080890D01*
X58461978Y-73078057D01*
X58650805Y-72795458D01*
X121117500Y-72795458D01*
X121117500Y-75054541D01*
X121120412Y-75091546D01*
X121120413Y-75091552D01*
X121166434Y-75249954D01*
X121166435Y-75249957D01*
X121250405Y-75391943D01*
X121250406Y-75391944D01*
X121250408Y-75391947D01*
X121346608Y-75488147D01*
X121359240Y-75502938D01*
X121417019Y-75582464D01*
X121557536Y-75722981D01*
X121718306Y-75839787D01*
X121805149Y-75884035D01*
X121895367Y-75930005D01*
X121895370Y-75930006D01*
X121989866Y-75960709D01*
X122084364Y-75991413D01*
X122280639Y-76022500D01*
X122280640Y-76022500D01*
X122479360Y-76022500D01*
X122479361Y-76022500D01*
X122675636Y-75991413D01*
X122864632Y-75930005D01*
X123041694Y-75839787D01*
X123202464Y-75722981D01*
X123342981Y-75582464D01*
X123400760Y-75502936D01*
X123413389Y-75488148D01*
X123509592Y-75391947D01*
X123543268Y-75335003D01*
X123594337Y-75287321D01*
X123663079Y-75274817D01*
X123727668Y-75301462D01*
X123756732Y-75335004D01*
X123790405Y-75391943D01*
X123790408Y-75391947D01*
X123886608Y-75488147D01*
X123899240Y-75502938D01*
X123957019Y-75582464D01*
X124097536Y-75722981D01*
X124258306Y-75839787D01*
X124345149Y-75884035D01*
X124435367Y-75930005D01*
X124435370Y-75930006D01*
X124529866Y-75960709D01*
X124624364Y-75991413D01*
X124820639Y-76022500D01*
X124820640Y-76022500D01*
X125019360Y-76022500D01*
X125019361Y-76022500D01*
X125215636Y-75991413D01*
X125404632Y-75930005D01*
X125581694Y-75839787D01*
X125742464Y-75722981D01*
X125882981Y-75582464D01*
X125940760Y-75502936D01*
X125953389Y-75488148D01*
X126049592Y-75391947D01*
X126083268Y-75335003D01*
X126134337Y-75287321D01*
X126203079Y-75274817D01*
X126267668Y-75301462D01*
X126296732Y-75335004D01*
X126330405Y-75391943D01*
X126330408Y-75391947D01*
X126426608Y-75488147D01*
X126439240Y-75502938D01*
X126497019Y-75582464D01*
X126637536Y-75722981D01*
X126798306Y-75839787D01*
X126885149Y-75884035D01*
X126975367Y-75930005D01*
X126975370Y-75930006D01*
X127069866Y-75960709D01*
X127164364Y-75991413D01*
X127360639Y-76022500D01*
X127360640Y-76022500D01*
X127559360Y-76022500D01*
X127559361Y-76022500D01*
X127755636Y-75991413D01*
X127944632Y-75930005D01*
X128121694Y-75839787D01*
X128282464Y-75722981D01*
X128422981Y-75582464D01*
X128480760Y-75502936D01*
X128493389Y-75488148D01*
X128589592Y-75391947D01*
X128623268Y-75335003D01*
X128674337Y-75287321D01*
X128743079Y-75274817D01*
X128807668Y-75301462D01*
X128836732Y-75335004D01*
X128870405Y-75391943D01*
X128870408Y-75391947D01*
X128966608Y-75488147D01*
X128979240Y-75502938D01*
X129037019Y-75582464D01*
X129177536Y-75722981D01*
X129338306Y-75839787D01*
X129425149Y-75884035D01*
X129515367Y-75930005D01*
X129515370Y-75930006D01*
X129609866Y-75960709D01*
X129704364Y-75991413D01*
X129900639Y-76022500D01*
X129900640Y-76022500D01*
X130099360Y-76022500D01*
X130099361Y-76022500D01*
X130295636Y-75991413D01*
X130484632Y-75930005D01*
X130661694Y-75839787D01*
X130822464Y-75722981D01*
X130962981Y-75582464D01*
X131020760Y-75502936D01*
X131033389Y-75488148D01*
X131129592Y-75391947D01*
X131163268Y-75335003D01*
X131214337Y-75287321D01*
X131283079Y-75274817D01*
X131347668Y-75301462D01*
X131376732Y-75335004D01*
X131410405Y-75391943D01*
X131410408Y-75391947D01*
X131506608Y-75488147D01*
X131519240Y-75502938D01*
X131577019Y-75582464D01*
X131717536Y-75722981D01*
X131878306Y-75839787D01*
X131965149Y-75884035D01*
X132055367Y-75930005D01*
X132055370Y-75930006D01*
X132149866Y-75960709D01*
X132244364Y-75991413D01*
X132440639Y-76022500D01*
X132440640Y-76022500D01*
X132639360Y-76022500D01*
X132639361Y-76022500D01*
X132835636Y-75991413D01*
X133024632Y-75930005D01*
X133201694Y-75839787D01*
X133362464Y-75722981D01*
X133502981Y-75582464D01*
X133560760Y-75502936D01*
X133573389Y-75488148D01*
X133669592Y-75391947D01*
X133703268Y-75335003D01*
X133754337Y-75287321D01*
X133823079Y-75274817D01*
X133887668Y-75301462D01*
X133916732Y-75335004D01*
X133950405Y-75391943D01*
X133950408Y-75391947D01*
X134046608Y-75488147D01*
X134059240Y-75502938D01*
X134117019Y-75582464D01*
X134257536Y-75722981D01*
X134418306Y-75839787D01*
X134505149Y-75884035D01*
X134595367Y-75930005D01*
X134595370Y-75930006D01*
X134689866Y-75960709D01*
X134784364Y-75991413D01*
X134980639Y-76022500D01*
X134980640Y-76022500D01*
X135179360Y-76022500D01*
X135179361Y-76022500D01*
X135375636Y-75991413D01*
X135564632Y-75930005D01*
X135741694Y-75839787D01*
X135902464Y-75722981D01*
X136042981Y-75582464D01*
X136100760Y-75502936D01*
X136113389Y-75488148D01*
X136209592Y-75391947D01*
X136243268Y-75335003D01*
X136294337Y-75287321D01*
X136363079Y-75274817D01*
X136427668Y-75301462D01*
X136456732Y-75335004D01*
X136490405Y-75391943D01*
X136490408Y-75391947D01*
X136586608Y-75488147D01*
X136599240Y-75502938D01*
X136657019Y-75582464D01*
X136797536Y-75722981D01*
X136958306Y-75839787D01*
X137045149Y-75884035D01*
X137135367Y-75930005D01*
X137135370Y-75930006D01*
X137229866Y-75960709D01*
X137324364Y-75991413D01*
X137520639Y-76022500D01*
X137520640Y-76022500D01*
X137719360Y-76022500D01*
X137719361Y-76022500D01*
X137915636Y-75991413D01*
X138104632Y-75930005D01*
X138281694Y-75839787D01*
X138442464Y-75722981D01*
X138582981Y-75582464D01*
X138640760Y-75502936D01*
X138653389Y-75488148D01*
X138749592Y-75391947D01*
X138833564Y-75249959D01*
X138879587Y-75091548D01*
X138882500Y-75054534D01*
X138882500Y-72795466D01*
X138879587Y-72758452D01*
X138877276Y-72750499D01*
X138833565Y-72600045D01*
X138833564Y-72600042D01*
X138833564Y-72600041D01*
X138749592Y-72458053D01*
X138749590Y-72458051D01*
X138749587Y-72458047D01*
X138632952Y-72341412D01*
X138632943Y-72341405D01*
X138490957Y-72257435D01*
X138490954Y-72257434D01*
X138332552Y-72211413D01*
X138332546Y-72211412D01*
X138295541Y-72208500D01*
X138295534Y-72208500D01*
X136944466Y-72208500D01*
X136944458Y-72208500D01*
X136907453Y-72211412D01*
X136907447Y-72211413D01*
X136749045Y-72257434D01*
X136749042Y-72257435D01*
X136607056Y-72341405D01*
X136607047Y-72341412D01*
X136490412Y-72458047D01*
X136490408Y-72458053D01*
X136456732Y-72514996D01*
X136405662Y-72562679D01*
X136336921Y-72575182D01*
X136272331Y-72548536D01*
X136243268Y-72514996D01*
X136209592Y-72458053D01*
X136209589Y-72458050D01*
X136209587Y-72458047D01*
X136092952Y-72341412D01*
X136092943Y-72341405D01*
X135950957Y-72257435D01*
X135950954Y-72257434D01*
X135792552Y-72211413D01*
X135792546Y-72211412D01*
X135755541Y-72208500D01*
X135755534Y-72208500D01*
X134404466Y-72208500D01*
X134404458Y-72208500D01*
X134367453Y-72211412D01*
X134367447Y-72211413D01*
X134209045Y-72257434D01*
X134209042Y-72257435D01*
X134067056Y-72341405D01*
X134067047Y-72341412D01*
X133950412Y-72458047D01*
X133950408Y-72458053D01*
X133916732Y-72514996D01*
X133865662Y-72562679D01*
X133796921Y-72575182D01*
X133732331Y-72548536D01*
X133703268Y-72514996D01*
X133669592Y-72458053D01*
X133669589Y-72458050D01*
X133669587Y-72458047D01*
X133552952Y-72341412D01*
X133552943Y-72341405D01*
X133410957Y-72257435D01*
X133410954Y-72257434D01*
X133252552Y-72211413D01*
X133252546Y-72211412D01*
X133215541Y-72208500D01*
X133215534Y-72208500D01*
X131864466Y-72208500D01*
X131864458Y-72208500D01*
X131827453Y-72211412D01*
X131827447Y-72211413D01*
X131669045Y-72257434D01*
X131669042Y-72257435D01*
X131527056Y-72341405D01*
X131527047Y-72341412D01*
X131410412Y-72458047D01*
X131410408Y-72458053D01*
X131376732Y-72514996D01*
X131325662Y-72562679D01*
X131256921Y-72575182D01*
X131192331Y-72548536D01*
X131163268Y-72514996D01*
X131129592Y-72458053D01*
X131129589Y-72458050D01*
X131129587Y-72458047D01*
X131012952Y-72341412D01*
X131012943Y-72341405D01*
X130870957Y-72257435D01*
X130870954Y-72257434D01*
X130712552Y-72211413D01*
X130712546Y-72211412D01*
X130675541Y-72208500D01*
X130675534Y-72208500D01*
X129324466Y-72208500D01*
X129324458Y-72208500D01*
X129287453Y-72211412D01*
X129287447Y-72211413D01*
X129129045Y-72257434D01*
X129129042Y-72257435D01*
X128987056Y-72341405D01*
X128987047Y-72341412D01*
X128870412Y-72458047D01*
X128870408Y-72458053D01*
X128836732Y-72514996D01*
X128785662Y-72562679D01*
X128716921Y-72575182D01*
X128652331Y-72548536D01*
X128623268Y-72514996D01*
X128589592Y-72458053D01*
X128589589Y-72458050D01*
X128589587Y-72458047D01*
X128472952Y-72341412D01*
X128472943Y-72341405D01*
X128330957Y-72257435D01*
X128330954Y-72257434D01*
X128172552Y-72211413D01*
X128172546Y-72211412D01*
X128135541Y-72208500D01*
X128135534Y-72208500D01*
X126784466Y-72208500D01*
X126784458Y-72208500D01*
X126747453Y-72211412D01*
X126747447Y-72211413D01*
X126589045Y-72257434D01*
X126589042Y-72257435D01*
X126447056Y-72341405D01*
X126447047Y-72341412D01*
X126330412Y-72458047D01*
X126330408Y-72458053D01*
X126296732Y-72514996D01*
X126245662Y-72562679D01*
X126176921Y-72575182D01*
X126112331Y-72548536D01*
X126083268Y-72514996D01*
X126049592Y-72458053D01*
X126049589Y-72458050D01*
X126049587Y-72458047D01*
X125932952Y-72341412D01*
X125932943Y-72341405D01*
X125790957Y-72257435D01*
X125790954Y-72257434D01*
X125632552Y-72211413D01*
X125632546Y-72211412D01*
X125595541Y-72208500D01*
X125595534Y-72208500D01*
X124244466Y-72208500D01*
X124244458Y-72208500D01*
X124207453Y-72211412D01*
X124207447Y-72211413D01*
X124049045Y-72257434D01*
X124049042Y-72257435D01*
X123907056Y-72341405D01*
X123907047Y-72341412D01*
X123790412Y-72458047D01*
X123790408Y-72458053D01*
X123756732Y-72514996D01*
X123705662Y-72562679D01*
X123636921Y-72575182D01*
X123572331Y-72548536D01*
X123543268Y-72514996D01*
X123509592Y-72458053D01*
X123509589Y-72458050D01*
X123509587Y-72458047D01*
X123392952Y-72341412D01*
X123392943Y-72341405D01*
X123250957Y-72257435D01*
X123250954Y-72257434D01*
X123092552Y-72211413D01*
X123092546Y-72211412D01*
X123055541Y-72208500D01*
X123055534Y-72208500D01*
X121704466Y-72208500D01*
X121704458Y-72208500D01*
X121667453Y-72211412D01*
X121667447Y-72211413D01*
X121509045Y-72257434D01*
X121509042Y-72257435D01*
X121367056Y-72341405D01*
X121367047Y-72341412D01*
X121250412Y-72458047D01*
X121250405Y-72458056D01*
X121166435Y-72600042D01*
X121166434Y-72600045D01*
X121120413Y-72758447D01*
X121120412Y-72758453D01*
X121117500Y-72795458D01*
X58650805Y-72795458D01*
X59231464Y-71926442D01*
X59233360Y-71923689D01*
X60034883Y-70794046D01*
X60036843Y-70791365D01*
X60321299Y-70413389D01*
X77319500Y-70413389D01*
X77319500Y-70586611D01*
X77346598Y-70757701D01*
X77400127Y-70922445D01*
X77478768Y-71076788D01*
X77580586Y-71216928D01*
X77703072Y-71339414D01*
X77843212Y-71441232D01*
X77997555Y-71519873D01*
X78162299Y-71573402D01*
X78333389Y-71600500D01*
X78333390Y-71600500D01*
X78506610Y-71600500D01*
X78506611Y-71600500D01*
X78677701Y-71573402D01*
X78842445Y-71519873D01*
X78996788Y-71441232D01*
X79136928Y-71339414D01*
X79259414Y-71216928D01*
X79361232Y-71076788D01*
X79439873Y-70922445D01*
X79493402Y-70757701D01*
X79520500Y-70586611D01*
X79520500Y-70413389D01*
X79510854Y-70352486D01*
X81249500Y-70352486D01*
X81249500Y-70647513D01*
X81281571Y-70891113D01*
X81288007Y-70939993D01*
X81362212Y-71216930D01*
X81364361Y-71224951D01*
X81364364Y-71224961D01*
X81477254Y-71497500D01*
X81477258Y-71497510D01*
X81624761Y-71752993D01*
X81804352Y-71987040D01*
X81804358Y-71987047D01*
X82012952Y-72195641D01*
X82012959Y-72195647D01*
X82247006Y-72375238D01*
X82502489Y-72522741D01*
X82502490Y-72522741D01*
X82502493Y-72522743D01*
X82775048Y-72635639D01*
X83060007Y-72711993D01*
X83352494Y-72750500D01*
X83352501Y-72750500D01*
X83647499Y-72750500D01*
X83647506Y-72750500D01*
X83939993Y-72711993D01*
X84224952Y-72635639D01*
X84497507Y-72522743D01*
X84752994Y-72375238D01*
X84987042Y-72195646D01*
X85195646Y-71987042D01*
X85375238Y-71752994D01*
X85522743Y-71497507D01*
X85635639Y-71224952D01*
X85711993Y-70939993D01*
X85750500Y-70647506D01*
X85750500Y-70413389D01*
X87479500Y-70413389D01*
X87479500Y-70586611D01*
X87506598Y-70757701D01*
X87560127Y-70922445D01*
X87638768Y-71076788D01*
X87740586Y-71216928D01*
X87863072Y-71339414D01*
X88003212Y-71441232D01*
X88157555Y-71519873D01*
X88322299Y-71573402D01*
X88493389Y-71600500D01*
X88493390Y-71600500D01*
X88666610Y-71600500D01*
X88666611Y-71600500D01*
X88837701Y-71573402D01*
X89002445Y-71519873D01*
X89156788Y-71441232D01*
X89296928Y-71339414D01*
X89419414Y-71216928D01*
X89521232Y-71076788D01*
X89599873Y-70922445D01*
X89653402Y-70757701D01*
X89680500Y-70586611D01*
X89680500Y-70413389D01*
X89653402Y-70242299D01*
X89599873Y-70077555D01*
X89521232Y-69923212D01*
X89419414Y-69783072D01*
X89296928Y-69660586D01*
X89156788Y-69558768D01*
X89002445Y-69480127D01*
X88837701Y-69426598D01*
X88837699Y-69426597D01*
X88837698Y-69426597D01*
X88706271Y-69405781D01*
X88666611Y-69399500D01*
X88493389Y-69399500D01*
X88453728Y-69405781D01*
X88322302Y-69426597D01*
X88157552Y-69480128D01*
X88003211Y-69558768D01*
X87946289Y-69600125D01*
X87863072Y-69660586D01*
X87863070Y-69660588D01*
X87863069Y-69660588D01*
X87740588Y-69783069D01*
X87740588Y-69783070D01*
X87740586Y-69783072D01*
X87696859Y-69843256D01*
X87638768Y-69923211D01*
X87560128Y-70077552D01*
X87506597Y-70242302D01*
X87479500Y-70413389D01*
X85750500Y-70413389D01*
X85750500Y-70352494D01*
X85711993Y-70060007D01*
X85635639Y-69775048D01*
X85522743Y-69502493D01*
X85467309Y-69406479D01*
X85375238Y-69247006D01*
X85195647Y-69012959D01*
X85195641Y-69012952D01*
X84987047Y-68804358D01*
X84987040Y-68804352D01*
X84752993Y-68624761D01*
X84497510Y-68477258D01*
X84497500Y-68477254D01*
X84224961Y-68364364D01*
X84224954Y-68364362D01*
X84224952Y-68364361D01*
X83939993Y-68288007D01*
X83891113Y-68281571D01*
X83647513Y-68249500D01*
X83647506Y-68249500D01*
X83352494Y-68249500D01*
X83352486Y-68249500D01*
X83074085Y-68286153D01*
X83060007Y-68288007D01*
X82885428Y-68334785D01*
X82775048Y-68364361D01*
X82775038Y-68364364D01*
X82502499Y-68477254D01*
X82502489Y-68477258D01*
X82247006Y-68624761D01*
X82012959Y-68804352D01*
X82012952Y-68804358D01*
X81804358Y-69012952D01*
X81804352Y-69012959D01*
X81624761Y-69247006D01*
X81477258Y-69502489D01*
X81477254Y-69502499D01*
X81364364Y-69775038D01*
X81364361Y-69775048D01*
X81288008Y-70060004D01*
X81288006Y-70060015D01*
X81249500Y-70352486D01*
X79510854Y-70352486D01*
X79493402Y-70242299D01*
X79439873Y-70077555D01*
X79361232Y-69923212D01*
X79259414Y-69783072D01*
X79207482Y-69731140D01*
X79173997Y-69669817D01*
X79178981Y-69600125D01*
X79220853Y-69544192D01*
X79286317Y-69519775D01*
X79314561Y-69520986D01*
X79315212Y-69521089D01*
X79315215Y-69521090D01*
X79564038Y-69560500D01*
X79564039Y-69560500D01*
X79815961Y-69560500D01*
X79815962Y-69560500D01*
X80064785Y-69521090D01*
X80304379Y-69443241D01*
X80528845Y-69328870D01*
X80732656Y-69180793D01*
X80910793Y-69002656D01*
X81058870Y-68798845D01*
X81173241Y-68574379D01*
X81251090Y-68334785D01*
X81290500Y-68085962D01*
X81290500Y-67834038D01*
X81282118Y-67781118D01*
X81251090Y-67585214D01*
X81235021Y-67535760D01*
X81192701Y-67405513D01*
X109299500Y-67405513D01*
X109299500Y-67594486D01*
X109329059Y-67781118D01*
X109387454Y-67960836D01*
X109473240Y-68129199D01*
X109584310Y-68282073D01*
X109717927Y-68415690D01*
X109870801Y-68526760D01*
X109950347Y-68567290D01*
X110039163Y-68612545D01*
X110039165Y-68612545D01*
X110039168Y-68612547D01*
X110076759Y-68624761D01*
X110218881Y-68670940D01*
X110405514Y-68700500D01*
X110405519Y-68700500D01*
X110594486Y-68700500D01*
X110781118Y-68670940D01*
X110960832Y-68612547D01*
X111129199Y-68526760D01*
X111282073Y-68415690D01*
X111415690Y-68282073D01*
X111526760Y-68129199D01*
X111612547Y-67960832D01*
X111670940Y-67781118D01*
X111700500Y-67594486D01*
X111700500Y-67405513D01*
X116919500Y-67405513D01*
X116919500Y-67594486D01*
X116949059Y-67781118D01*
X117007454Y-67960836D01*
X117093240Y-68129199D01*
X117204310Y-68282073D01*
X117337927Y-68415690D01*
X117490801Y-68526760D01*
X117570347Y-68567290D01*
X117659163Y-68612545D01*
X117659165Y-68612545D01*
X117659168Y-68612547D01*
X117696759Y-68624761D01*
X117838881Y-68670940D01*
X118025514Y-68700500D01*
X118025519Y-68700500D01*
X118214486Y-68700500D01*
X118401118Y-68670940D01*
X118580832Y-68612547D01*
X118749199Y-68526760D01*
X118902073Y-68415690D01*
X119035690Y-68282073D01*
X119146760Y-68129199D01*
X119232547Y-67960832D01*
X119290940Y-67781118D01*
X119320500Y-67594486D01*
X119320500Y-67405513D01*
X119290940Y-67218881D01*
X119232545Y-67039163D01*
X119163288Y-66903239D01*
X119146760Y-66870801D01*
X119035690Y-66717927D01*
X118902073Y-66584310D01*
X118749199Y-66473240D01*
X118728413Y-66462649D01*
X118580836Y-66387454D01*
X118401118Y-66329059D01*
X118214486Y-66299500D01*
X118214481Y-66299500D01*
X118025519Y-66299500D01*
X118025514Y-66299500D01*
X117838881Y-66329059D01*
X117659163Y-66387454D01*
X117490800Y-66473240D01*
X117449716Y-66503090D01*
X117337927Y-66584310D01*
X117337925Y-66584312D01*
X117337924Y-66584312D01*
X117204312Y-66717924D01*
X117204312Y-66717925D01*
X117204310Y-66717927D01*
X117188851Y-66739205D01*
X117093240Y-66870800D01*
X117007454Y-67039163D01*
X116949059Y-67218881D01*
X116919500Y-67405513D01*
X111700500Y-67405513D01*
X111670940Y-67218881D01*
X111612545Y-67039163D01*
X111543288Y-66903239D01*
X111526760Y-66870801D01*
X111415690Y-66717927D01*
X111282073Y-66584310D01*
X111129199Y-66473240D01*
X111108413Y-66462649D01*
X110960836Y-66387454D01*
X110781118Y-66329059D01*
X110594486Y-66299500D01*
X110594481Y-66299500D01*
X110405519Y-66299500D01*
X110405514Y-66299500D01*
X110218881Y-66329059D01*
X110039163Y-66387454D01*
X109870800Y-66473240D01*
X109829716Y-66503090D01*
X109717927Y-66584310D01*
X109717925Y-66584312D01*
X109717924Y-66584312D01*
X109584312Y-66717924D01*
X109584312Y-66717925D01*
X109584310Y-66717927D01*
X109568851Y-66739205D01*
X109473240Y-66870800D01*
X109387454Y-67039163D01*
X109329059Y-67218881D01*
X109299500Y-67405513D01*
X81192701Y-67405513D01*
X81173241Y-67345621D01*
X81058870Y-67121155D01*
X80999303Y-67039168D01*
X80910798Y-66917350D01*
X80910794Y-66917345D01*
X80732654Y-66739205D01*
X80732649Y-66739201D01*
X80528848Y-66591132D01*
X80528847Y-66591131D01*
X80528845Y-66591130D01*
X80458747Y-66555413D01*
X80304383Y-66476760D01*
X80064785Y-66398910D01*
X79992449Y-66387453D01*
X79815962Y-66359500D01*
X79564038Y-66359500D01*
X79439626Y-66379205D01*
X79315214Y-66398910D01*
X79075616Y-66476760D01*
X78851151Y-66591132D01*
X78647350Y-66739201D01*
X78647345Y-66739205D01*
X78469205Y-66917345D01*
X78469201Y-66917350D01*
X78321132Y-67121151D01*
X78206760Y-67345616D01*
X78128910Y-67585214D01*
X78097882Y-67781118D01*
X78089500Y-67834038D01*
X78089500Y-68085962D01*
X78121501Y-68288006D01*
X78128910Y-68334785D01*
X78206760Y-68574383D01*
X78321132Y-68798848D01*
X78469201Y-69002649D01*
X78469205Y-69002654D01*
X78469207Y-69002656D01*
X78647344Y-69180793D01*
X78647345Y-69180794D01*
X78647344Y-69180794D01*
X78653661Y-69185383D01*
X78696327Y-69240714D01*
X78702305Y-69310327D01*
X78669699Y-69372122D01*
X78608860Y-69406479D01*
X78561378Y-69408174D01*
X78506611Y-69399500D01*
X78333389Y-69399500D01*
X78293728Y-69405781D01*
X78162302Y-69426597D01*
X77997552Y-69480128D01*
X77843211Y-69558768D01*
X77786289Y-69600125D01*
X77703072Y-69660586D01*
X77703070Y-69660588D01*
X77703069Y-69660588D01*
X77580588Y-69783069D01*
X77580588Y-69783070D01*
X77580586Y-69783072D01*
X77536859Y-69843256D01*
X77478768Y-69923211D01*
X77400128Y-70077552D01*
X77346597Y-70242302D01*
X77319500Y-70413389D01*
X60321299Y-70413389D01*
X60869664Y-69684740D01*
X60871781Y-69682008D01*
X60888865Y-69660586D01*
X61735293Y-68599198D01*
X61737491Y-68596521D01*
X61838200Y-68477258D01*
X62631030Y-67538357D01*
X62633262Y-67535788D01*
X63556173Y-66503049D01*
X63558452Y-66500569D01*
X64509988Y-65494097D01*
X64512343Y-65491676D01*
X64709981Y-65294038D01*
X84439500Y-65294038D01*
X84439500Y-65545961D01*
X84478910Y-65794785D01*
X84556760Y-66034383D01*
X84671132Y-66258848D01*
X84819201Y-66462649D01*
X84819205Y-66462654D01*
X84997345Y-66640794D01*
X84997350Y-66640798D01*
X85175117Y-66769952D01*
X85201155Y-66788870D01*
X85344184Y-66861747D01*
X85425616Y-66903239D01*
X85425618Y-66903239D01*
X85425621Y-66903241D01*
X85665215Y-66981090D01*
X85914038Y-67020500D01*
X85914039Y-67020500D01*
X86165961Y-67020500D01*
X86165962Y-67020500D01*
X86414785Y-66981090D01*
X86654379Y-66903241D01*
X86878845Y-66788870D01*
X87082656Y-66640793D01*
X87260793Y-66462656D01*
X87408870Y-66258845D01*
X87523241Y-66034379D01*
X87601090Y-65794785D01*
X87640500Y-65545962D01*
X87640500Y-65294038D01*
X87601090Y-65045215D01*
X87523241Y-64805621D01*
X87523239Y-64805618D01*
X87523239Y-64805616D01*
X87481747Y-64724184D01*
X87408870Y-64581155D01*
X87389952Y-64555117D01*
X87260798Y-64377350D01*
X87260794Y-64377345D01*
X87082654Y-64199205D01*
X87082649Y-64199201D01*
X86878848Y-64051132D01*
X86878847Y-64051131D01*
X86878845Y-64051130D01*
X86808747Y-64015413D01*
X86654383Y-63936760D01*
X86414785Y-63858910D01*
X86165962Y-63819500D01*
X85914038Y-63819500D01*
X85789626Y-63839205D01*
X85665214Y-63858910D01*
X85425616Y-63936760D01*
X85201151Y-64051132D01*
X84997350Y-64199201D01*
X84997345Y-64199205D01*
X84819205Y-64377345D01*
X84819201Y-64377350D01*
X84671132Y-64581151D01*
X84556760Y-64805616D01*
X84478910Y-65045214D01*
X84439500Y-65294038D01*
X64709981Y-65294038D01*
X65491676Y-64512343D01*
X65494097Y-64509988D01*
X66500569Y-63558452D01*
X66503049Y-63556173D01*
X67535788Y-62633262D01*
X67538357Y-62631030D01*
X68596531Y-61737482D01*
X68599209Y-61735285D01*
X69682025Y-60871767D01*
X69684740Y-60869664D01*
X70791365Y-60036843D01*
X70794046Y-60034883D01*
X71923689Y-59233360D01*
X71926442Y-59231464D01*
X73078057Y-58461978D01*
X73080890Y-58460142D01*
X74253621Y-57723267D01*
X74256550Y-57721483D01*
X75449454Y-57017807D01*
X75452411Y-57016118D01*
X76664649Y-56346137D01*
X76667584Y-56344569D01*
X77898090Y-55708875D01*
X77901171Y-55707337D01*
X79149023Y-55106404D01*
X79152092Y-55104979D01*
X80416284Y-54539290D01*
X80419446Y-54537927D01*
X81699006Y-54007916D01*
X81702181Y-54006653D01*
X82996094Y-53512740D01*
X82999310Y-53511563D01*
X84306643Y-53054107D01*
X84309832Y-53053042D01*
X85629461Y-52632439D01*
X85632630Y-52631477D01*
X86963606Y-52248029D01*
X86966816Y-52247153D01*
X88307952Y-51901203D01*
X88311289Y-51900392D01*
X89661573Y-51592200D01*
X89664883Y-51591493D01*
X91023244Y-51321298D01*
X91026619Y-51320676D01*
X92392075Y-51088675D01*
X92395443Y-51088152D01*
X93766795Y-50894549D01*
X93770232Y-50894112D01*
X95146536Y-50739041D01*
X95149868Y-50738713D01*
X96529968Y-50622303D01*
X96533411Y-50622060D01*
X97916267Y-50544401D01*
X97919610Y-50544260D01*
X99304048Y-50505417D01*
X99307526Y-50505368D01*
X100692474Y-50505368D01*
X100695952Y-50505417D01*
G37*
%TD.AperFunction*%
%TD*%
M02*
