%TF.GenerationSoftware,KiCad,Pcbnew,10.0.6*%
%TF.CreationDate,2026-10-09T20:20:08+02:00*%
%TF.ProjectId,Starbie,53746172-6269-4652-9e6b-696361645f70,rev?*%
%TF.SameCoordinates,Original*%
%TF.FileFunction,Legend,Top*%
%TF.FilePolarity,Positive*%
%FSLAX46Y46*%
G04 Gerber Fmt 4.6, Leading zero omitted, Abs format (unit mm)*
G04 Created by KiCad (PCBNEW 10.0.6) date 2026-10-09 20:20:08*
%MOMM*%
%LPD*%
G01*
G04 APERTURE LIST*
%ADD10C,0.150000*%
%ADD11C,0.101600*%
%ADD12C,0.300000*%
%ADD13C,0.120000*%
%ADD14C,0.127000*%
%ADD15C,0.100000*%
%ADD16C,0.504000*%
%ADD17C,0.000000*%
G04 APERTURE END LIST*
D10*
X114143333Y-66034819D02*
X113810000Y-65558628D01*
X113571905Y-66034819D02*
X113571905Y-65034819D01*
X113571905Y-65034819D02*
X113952857Y-65034819D01*
X113952857Y-65034819D02*
X114048095Y-65082438D01*
X114048095Y-65082438D02*
X114095714Y-65130057D01*
X114095714Y-65130057D02*
X114143333Y-65225295D01*
X114143333Y-65225295D02*
X114143333Y-65368152D01*
X114143333Y-65368152D02*
X114095714Y-65463390D01*
X114095714Y-65463390D02*
X114048095Y-65511009D01*
X114048095Y-65511009D02*
X113952857Y-65558628D01*
X113952857Y-65558628D02*
X113571905Y-65558628D01*
X115095714Y-66034819D02*
X114524286Y-66034819D01*
X114810000Y-66034819D02*
X114810000Y-65034819D01*
X114810000Y-65034819D02*
X114714762Y-65177676D01*
X114714762Y-65177676D02*
X114619524Y-65272914D01*
X114619524Y-65272914D02*
X114524286Y-65320533D01*
X69166666Y-108454819D02*
X69166666Y-109169104D01*
X69166666Y-109169104D02*
X69119047Y-109311961D01*
X69119047Y-109311961D02*
X69023809Y-109407200D01*
X69023809Y-109407200D02*
X68880952Y-109454819D01*
X68880952Y-109454819D02*
X68785714Y-109454819D01*
X69595238Y-108550057D02*
X69642857Y-108502438D01*
X69642857Y-108502438D02*
X69738095Y-108454819D01*
X69738095Y-108454819D02*
X69976190Y-108454819D01*
X69976190Y-108454819D02*
X70071428Y-108502438D01*
X70071428Y-108502438D02*
X70119047Y-108550057D01*
X70119047Y-108550057D02*
X70166666Y-108645295D01*
X70166666Y-108645295D02*
X70166666Y-108740533D01*
X70166666Y-108740533D02*
X70119047Y-108883390D01*
X70119047Y-108883390D02*
X69547619Y-109454819D01*
X69547619Y-109454819D02*
X70166666Y-109454819D01*
D11*
X129391190Y-71783479D02*
X129391190Y-72297526D01*
X129391190Y-72297526D02*
X129421428Y-72358002D01*
X129421428Y-72358002D02*
X129451666Y-72388241D01*
X129451666Y-72388241D02*
X129512142Y-72418479D01*
X129512142Y-72418479D02*
X129633095Y-72418479D01*
X129633095Y-72418479D02*
X129693571Y-72388241D01*
X129693571Y-72388241D02*
X129723809Y-72358002D01*
X129723809Y-72358002D02*
X129754047Y-72297526D01*
X129754047Y-72297526D02*
X129754047Y-71783479D01*
X130026190Y-71843955D02*
X130056428Y-71813717D01*
X130056428Y-71813717D02*
X130116904Y-71783479D01*
X130116904Y-71783479D02*
X130268095Y-71783479D01*
X130268095Y-71783479D02*
X130328571Y-71813717D01*
X130328571Y-71813717D02*
X130358809Y-71843955D01*
X130358809Y-71843955D02*
X130389047Y-71904431D01*
X130389047Y-71904431D02*
X130389047Y-71964907D01*
X130389047Y-71964907D02*
X130358809Y-72055621D01*
X130358809Y-72055621D02*
X129995952Y-72418479D01*
X129995952Y-72418479D02*
X130389047Y-72418479D01*
D12*
X98178572Y-136749757D02*
X98035715Y-136678328D01*
X98035715Y-136678328D02*
X97821429Y-136678328D01*
X97821429Y-136678328D02*
X97607143Y-136749757D01*
X97607143Y-136749757D02*
X97464286Y-136892614D01*
X97464286Y-136892614D02*
X97392857Y-137035471D01*
X97392857Y-137035471D02*
X97321429Y-137321185D01*
X97321429Y-137321185D02*
X97321429Y-137535471D01*
X97321429Y-137535471D02*
X97392857Y-137821185D01*
X97392857Y-137821185D02*
X97464286Y-137964042D01*
X97464286Y-137964042D02*
X97607143Y-138106900D01*
X97607143Y-138106900D02*
X97821429Y-138178328D01*
X97821429Y-138178328D02*
X97964286Y-138178328D01*
X97964286Y-138178328D02*
X98178572Y-138106900D01*
X98178572Y-138106900D02*
X98250000Y-138035471D01*
X98250000Y-138035471D02*
X98250000Y-137535471D01*
X98250000Y-137535471D02*
X97964286Y-137535471D01*
X99107143Y-136678328D02*
X99107143Y-137035471D01*
X98750000Y-136892614D02*
X99107143Y-137035471D01*
X99107143Y-137035471D02*
X99464286Y-136892614D01*
X98892857Y-137321185D02*
X99107143Y-137035471D01*
X99107143Y-137035471D02*
X99321429Y-137321185D01*
X100250000Y-136678328D02*
X100250000Y-137035471D01*
X99892857Y-136892614D02*
X100250000Y-137035471D01*
X100250000Y-137035471D02*
X100607143Y-136892614D01*
X100035714Y-137321185D02*
X100250000Y-137035471D01*
X100250000Y-137035471D02*
X100464286Y-137321185D01*
X101392857Y-136678328D02*
X101392857Y-137035471D01*
X101035714Y-136892614D02*
X101392857Y-137035471D01*
X101392857Y-137035471D02*
X101750000Y-136892614D01*
X101178571Y-137321185D02*
X101392857Y-137035471D01*
X101392857Y-137035471D02*
X101607143Y-137321185D01*
D10*
X64246667Y-88033200D02*
X64389524Y-88080819D01*
X64389524Y-88080819D02*
X64627619Y-88080819D01*
X64627619Y-88080819D02*
X64722857Y-88033200D01*
X64722857Y-88033200D02*
X64770476Y-87985580D01*
X64770476Y-87985580D02*
X64818095Y-87890342D01*
X64818095Y-87890342D02*
X64818095Y-87795104D01*
X64818095Y-87795104D02*
X64770476Y-87699866D01*
X64770476Y-87699866D02*
X64722857Y-87652247D01*
X64722857Y-87652247D02*
X64627619Y-87604628D01*
X64627619Y-87604628D02*
X64437143Y-87557009D01*
X64437143Y-87557009D02*
X64341905Y-87509390D01*
X64341905Y-87509390D02*
X64294286Y-87461771D01*
X64294286Y-87461771D02*
X64246667Y-87366533D01*
X64246667Y-87366533D02*
X64246667Y-87271295D01*
X64246667Y-87271295D02*
X64294286Y-87176057D01*
X64294286Y-87176057D02*
X64341905Y-87128438D01*
X64341905Y-87128438D02*
X64437143Y-87080819D01*
X64437143Y-87080819D02*
X64675238Y-87080819D01*
X64675238Y-87080819D02*
X64818095Y-87128438D01*
X65151429Y-87080819D02*
X65389524Y-88080819D01*
X65389524Y-88080819D02*
X65580000Y-87366533D01*
X65580000Y-87366533D02*
X65770476Y-88080819D01*
X65770476Y-88080819D02*
X66008572Y-87080819D01*
X66913333Y-88080819D02*
X66341905Y-88080819D01*
X66627619Y-88080819D02*
X66627619Y-87080819D01*
X66627619Y-87080819D02*
X66532381Y-87223676D01*
X66532381Y-87223676D02*
X66437143Y-87318914D01*
X66437143Y-87318914D02*
X66341905Y-87366533D01*
X98077019Y-134885933D02*
X98791304Y-134885933D01*
X98791304Y-134885933D02*
X98934161Y-134933552D01*
X98934161Y-134933552D02*
X99029400Y-135028790D01*
X99029400Y-135028790D02*
X99077019Y-135171647D01*
X99077019Y-135171647D02*
X99077019Y-135266885D01*
X99077019Y-133885933D02*
X99077019Y-134457361D01*
X99077019Y-134171647D02*
X98077019Y-134171647D01*
X98077019Y-134171647D02*
X98219876Y-134266885D01*
X98219876Y-134266885D02*
X98315114Y-134362123D01*
X98315114Y-134362123D02*
X98362733Y-134457361D01*
X90317200Y-131236999D02*
X90364819Y-131136999D01*
X90364819Y-131136999D02*
X90364819Y-130970333D01*
X90364819Y-130970333D02*
X90317200Y-130903666D01*
X90317200Y-130903666D02*
X90269580Y-130870333D01*
X90269580Y-130870333D02*
X90174342Y-130836999D01*
X90174342Y-130836999D02*
X90079104Y-130836999D01*
X90079104Y-130836999D02*
X89983866Y-130870333D01*
X89983866Y-130870333D02*
X89936247Y-130903666D01*
X89936247Y-130903666D02*
X89888628Y-130970333D01*
X89888628Y-130970333D02*
X89841009Y-131103666D01*
X89841009Y-131103666D02*
X89793390Y-131170333D01*
X89793390Y-131170333D02*
X89745771Y-131203666D01*
X89745771Y-131203666D02*
X89650533Y-131236999D01*
X89650533Y-131236999D02*
X89555295Y-131236999D01*
X89555295Y-131236999D02*
X89460057Y-131203666D01*
X89460057Y-131203666D02*
X89412438Y-131170333D01*
X89412438Y-131170333D02*
X89364819Y-131103666D01*
X89364819Y-131103666D02*
X89364819Y-130936999D01*
X89364819Y-130936999D02*
X89412438Y-130836999D01*
X90364819Y-130536999D02*
X89364819Y-130536999D01*
X89364819Y-130536999D02*
X89364819Y-130370332D01*
X89364819Y-130370332D02*
X89412438Y-130270332D01*
X89412438Y-130270332D02*
X89507676Y-130203666D01*
X89507676Y-130203666D02*
X89602914Y-130170332D01*
X89602914Y-130170332D02*
X89793390Y-130136999D01*
X89793390Y-130136999D02*
X89936247Y-130136999D01*
X89936247Y-130136999D02*
X90126723Y-130170332D01*
X90126723Y-130170332D02*
X90221961Y-130203666D01*
X90221961Y-130203666D02*
X90317200Y-130270332D01*
X90317200Y-130270332D02*
X90364819Y-130370332D01*
X90364819Y-130370332D02*
X90364819Y-130536999D01*
X90079104Y-129870332D02*
X90079104Y-129536999D01*
X90364819Y-129936999D02*
X89364819Y-129703666D01*
X89364819Y-129703666D02*
X90364819Y-129470332D01*
X90317200Y-133887333D02*
X90364819Y-133787333D01*
X90364819Y-133787333D02*
X90364819Y-133620667D01*
X90364819Y-133620667D02*
X90317200Y-133554000D01*
X90317200Y-133554000D02*
X90269580Y-133520667D01*
X90269580Y-133520667D02*
X90174342Y-133487333D01*
X90174342Y-133487333D02*
X90079104Y-133487333D01*
X90079104Y-133487333D02*
X89983866Y-133520667D01*
X89983866Y-133520667D02*
X89936247Y-133554000D01*
X89936247Y-133554000D02*
X89888628Y-133620667D01*
X89888628Y-133620667D02*
X89841009Y-133754000D01*
X89841009Y-133754000D02*
X89793390Y-133820667D01*
X89793390Y-133820667D02*
X89745771Y-133854000D01*
X89745771Y-133854000D02*
X89650533Y-133887333D01*
X89650533Y-133887333D02*
X89555295Y-133887333D01*
X89555295Y-133887333D02*
X89460057Y-133854000D01*
X89460057Y-133854000D02*
X89412438Y-133820667D01*
X89412438Y-133820667D02*
X89364819Y-133754000D01*
X89364819Y-133754000D02*
X89364819Y-133587333D01*
X89364819Y-133587333D02*
X89412438Y-133487333D01*
X90269580Y-132787333D02*
X90317200Y-132820666D01*
X90317200Y-132820666D02*
X90364819Y-132920666D01*
X90364819Y-132920666D02*
X90364819Y-132987333D01*
X90364819Y-132987333D02*
X90317200Y-133087333D01*
X90317200Y-133087333D02*
X90221961Y-133154000D01*
X90221961Y-133154000D02*
X90126723Y-133187333D01*
X90126723Y-133187333D02*
X89936247Y-133220666D01*
X89936247Y-133220666D02*
X89793390Y-133220666D01*
X89793390Y-133220666D02*
X89602914Y-133187333D01*
X89602914Y-133187333D02*
X89507676Y-133154000D01*
X89507676Y-133154000D02*
X89412438Y-133087333D01*
X89412438Y-133087333D02*
X89364819Y-132987333D01*
X89364819Y-132987333D02*
X89364819Y-132920666D01*
X89364819Y-132920666D02*
X89412438Y-132820666D01*
X89412438Y-132820666D02*
X89460057Y-132787333D01*
X90364819Y-132154000D02*
X90364819Y-132487333D01*
X90364819Y-132487333D02*
X89364819Y-132487333D01*
X89364819Y-136527333D02*
X90364819Y-136294000D01*
X90364819Y-136294000D02*
X89364819Y-136060666D01*
X90364819Y-135827333D02*
X89364819Y-135827333D01*
X89364819Y-135827333D02*
X89364819Y-135660666D01*
X89364819Y-135660666D02*
X89412438Y-135560666D01*
X89412438Y-135560666D02*
X89507676Y-135494000D01*
X89507676Y-135494000D02*
X89602914Y-135460666D01*
X89602914Y-135460666D02*
X89793390Y-135427333D01*
X89793390Y-135427333D02*
X89936247Y-135427333D01*
X89936247Y-135427333D02*
X90126723Y-135460666D01*
X90126723Y-135460666D02*
X90221961Y-135494000D01*
X90221961Y-135494000D02*
X90317200Y-135560666D01*
X90317200Y-135560666D02*
X90364819Y-135660666D01*
X90364819Y-135660666D02*
X90364819Y-135827333D01*
X90364819Y-135127333D02*
X89364819Y-135127333D01*
X89364819Y-135127333D02*
X89364819Y-134960666D01*
X89364819Y-134960666D02*
X89412438Y-134860666D01*
X89412438Y-134860666D02*
X89507676Y-134794000D01*
X89507676Y-134794000D02*
X89602914Y-134760666D01*
X89602914Y-134760666D02*
X89793390Y-134727333D01*
X89793390Y-134727333D02*
X89936247Y-134727333D01*
X89936247Y-134727333D02*
X90126723Y-134760666D01*
X90126723Y-134760666D02*
X90221961Y-134794000D01*
X90221961Y-134794000D02*
X90317200Y-134860666D01*
X90317200Y-134860666D02*
X90364819Y-134960666D01*
X90364819Y-134960666D02*
X90364819Y-135127333D01*
X89412438Y-138667332D02*
X89364819Y-138733999D01*
X89364819Y-138733999D02*
X89364819Y-138833999D01*
X89364819Y-138833999D02*
X89412438Y-138933999D01*
X89412438Y-138933999D02*
X89507676Y-139000666D01*
X89507676Y-139000666D02*
X89602914Y-139033999D01*
X89602914Y-139033999D02*
X89793390Y-139067332D01*
X89793390Y-139067332D02*
X89936247Y-139067332D01*
X89936247Y-139067332D02*
X90126723Y-139033999D01*
X90126723Y-139033999D02*
X90221961Y-139000666D01*
X90221961Y-139000666D02*
X90317200Y-138933999D01*
X90317200Y-138933999D02*
X90364819Y-138833999D01*
X90364819Y-138833999D02*
X90364819Y-138767332D01*
X90364819Y-138767332D02*
X90317200Y-138667332D01*
X90317200Y-138667332D02*
X90269580Y-138633999D01*
X90269580Y-138633999D02*
X89936247Y-138633999D01*
X89936247Y-138633999D02*
X89936247Y-138767332D01*
X90364819Y-138333999D02*
X89364819Y-138333999D01*
X89364819Y-138333999D02*
X90364819Y-137933999D01*
X90364819Y-137933999D02*
X89364819Y-137933999D01*
X90364819Y-137600666D02*
X89364819Y-137600666D01*
X89364819Y-137600666D02*
X89364819Y-137433999D01*
X89364819Y-137433999D02*
X89412438Y-137333999D01*
X89412438Y-137333999D02*
X89507676Y-137267333D01*
X89507676Y-137267333D02*
X89602914Y-137233999D01*
X89602914Y-137233999D02*
X89793390Y-137200666D01*
X89793390Y-137200666D02*
X89936247Y-137200666D01*
X89936247Y-137200666D02*
X90126723Y-137233999D01*
X90126723Y-137233999D02*
X90221961Y-137267333D01*
X90221961Y-137267333D02*
X90317200Y-137333999D01*
X90317200Y-137333999D02*
X90364819Y-137433999D01*
X90364819Y-137433999D02*
X90364819Y-137600666D01*
X82166667Y-63033200D02*
X82309524Y-63080819D01*
X82309524Y-63080819D02*
X82547619Y-63080819D01*
X82547619Y-63080819D02*
X82642857Y-63033200D01*
X82642857Y-63033200D02*
X82690476Y-62985580D01*
X82690476Y-62985580D02*
X82738095Y-62890342D01*
X82738095Y-62890342D02*
X82738095Y-62795104D01*
X82738095Y-62795104D02*
X82690476Y-62699866D01*
X82690476Y-62699866D02*
X82642857Y-62652247D01*
X82642857Y-62652247D02*
X82547619Y-62604628D01*
X82547619Y-62604628D02*
X82357143Y-62557009D01*
X82357143Y-62557009D02*
X82261905Y-62509390D01*
X82261905Y-62509390D02*
X82214286Y-62461771D01*
X82214286Y-62461771D02*
X82166667Y-62366533D01*
X82166667Y-62366533D02*
X82166667Y-62271295D01*
X82166667Y-62271295D02*
X82214286Y-62176057D01*
X82214286Y-62176057D02*
X82261905Y-62128438D01*
X82261905Y-62128438D02*
X82357143Y-62080819D01*
X82357143Y-62080819D02*
X82595238Y-62080819D01*
X82595238Y-62080819D02*
X82738095Y-62128438D01*
X83071429Y-62080819D02*
X83309524Y-63080819D01*
X83309524Y-63080819D02*
X83500000Y-62366533D01*
X83500000Y-62366533D02*
X83690476Y-63080819D01*
X83690476Y-63080819D02*
X83928572Y-62080819D01*
X84261905Y-62176057D02*
X84309524Y-62128438D01*
X84309524Y-62128438D02*
X84404762Y-62080819D01*
X84404762Y-62080819D02*
X84642857Y-62080819D01*
X84642857Y-62080819D02*
X84738095Y-62128438D01*
X84738095Y-62128438D02*
X84785714Y-62176057D01*
X84785714Y-62176057D02*
X84833333Y-62271295D01*
X84833333Y-62271295D02*
X84833333Y-62366533D01*
X84833333Y-62366533D02*
X84785714Y-62509390D01*
X84785714Y-62509390D02*
X84214286Y-63080819D01*
X84214286Y-63080819D02*
X84833333Y-63080819D01*
X127238095Y-110834819D02*
X127238095Y-111644342D01*
X127238095Y-111644342D02*
X127285714Y-111739580D01*
X127285714Y-111739580D02*
X127333333Y-111787200D01*
X127333333Y-111787200D02*
X127428571Y-111834819D01*
X127428571Y-111834819D02*
X127619047Y-111834819D01*
X127619047Y-111834819D02*
X127714285Y-111787200D01*
X127714285Y-111787200D02*
X127761904Y-111739580D01*
X127761904Y-111739580D02*
X127809523Y-111644342D01*
X127809523Y-111644342D02*
X127809523Y-110834819D01*
X128809523Y-111834819D02*
X128238095Y-111834819D01*
X128523809Y-111834819D02*
X128523809Y-110834819D01*
X128523809Y-110834819D02*
X128428571Y-110977676D01*
X128428571Y-110977676D02*
X128333333Y-111072914D01*
X128333333Y-111072914D02*
X128238095Y-111120533D01*
%TO.C,R1*%
D13*
X111440000Y-67500000D02*
X112390000Y-67500000D01*
X117180000Y-67500000D02*
X116230000Y-67500000D01*
X112390000Y-66580000D02*
X116230000Y-66580000D01*
X116230000Y-68420000D01*
X112390000Y-68420000D01*
X112390000Y-66580000D01*
%TO.C,J2*%
X68120000Y-110000000D02*
X69500000Y-110000000D01*
X68120000Y-111380000D02*
X68120000Y-110000000D01*
X68120000Y-112650000D02*
X68120000Y-130540000D01*
X68120000Y-112650000D02*
X70880000Y-112650000D01*
X68120000Y-130540000D02*
X70880000Y-130540000D01*
X70880000Y-112650000D02*
X70880000Y-130540000D01*
%TO.C,U2*%
D14*
X119586000Y-75395000D02*
X119586000Y-89365000D01*
X121491000Y-73490000D02*
X138636000Y-73490000D01*
X121491000Y-91270000D02*
X138636000Y-91270000D01*
X140541000Y-77885000D02*
X141551272Y-77888728D01*
D15*
X140541000Y-89365000D02*
X140541000Y-75395000D01*
D14*
X140541000Y-89365000D02*
X140541000Y-75395000D01*
X141551000Y-86884000D02*
X140541000Y-86884000D01*
X142051000Y-78388728D02*
X142051000Y-86384000D01*
X119586000Y-75395000D02*
G75*
G02*
X121491000Y-73490000I1905001J-1D01*
G01*
X121491000Y-91270000D02*
G75*
G02*
X119586000Y-89365000I1J1905001D01*
G01*
X138636000Y-73490000D02*
G75*
G02*
X140541000Y-75395000I0J-1905000D01*
G01*
X140541000Y-89365000D02*
G75*
G02*
X138636000Y-91270000I-1905000J0D01*
G01*
X141551272Y-77888728D02*
G75*
G02*
X142050972Y-78388728I-272J-499972D01*
G01*
X142051000Y-86384000D02*
G75*
G02*
X141551000Y-86884000I-500000J0D01*
G01*
D16*
X139672000Y-74573000D02*
G75*
G02*
X139168000Y-74573000I-252000J0D01*
G01*
X139168000Y-74573000D02*
G75*
G02*
X139672000Y-74573000I252000J0D01*
G01*
X140552000Y-73430000D02*
G75*
G02*
X140048000Y-73430000I-252000J0D01*
G01*
X140048000Y-73430000D02*
G75*
G02*
X140552000Y-73430000I252000J0D01*
G01*
D17*
%TO.C,G\u002A\u002A\u002A*%
G36*
X100364680Y-127519153D02*
G01*
X100620956Y-127522884D01*
X100836161Y-127533005D01*
X101023046Y-127551034D01*
X101194364Y-127578490D01*
X101362866Y-127616890D01*
X101494816Y-127653712D01*
X101661701Y-127703253D01*
X101661701Y-128533907D01*
X101661701Y-129364561D01*
X101490767Y-129348599D01*
X101360513Y-129345852D01*
X101262408Y-129368919D01*
X101191848Y-129423341D01*
X101144230Y-129514660D01*
X101114952Y-129648417D01*
X101099972Y-129819054D01*
X101086891Y-130069148D01*
X101370291Y-130069148D01*
X101653691Y-130069148D01*
X101671045Y-130292074D01*
X101675512Y-130376949D01*
X101679564Y-130506671D01*
X101683047Y-130672047D01*
X101685805Y-130863883D01*
X101687684Y-131072983D01*
X101688529Y-131290153D01*
X101688561Y-131332393D01*
X101688722Y-132149786D01*
X101429099Y-132149786D01*
X101169476Y-132149786D01*
X101179152Y-136443730D01*
X101188829Y-140737674D01*
X101094254Y-140753327D01*
X101045212Y-140757091D01*
X100951084Y-140760328D01*
X100818342Y-140763044D01*
X100653454Y-140765241D01*
X100462890Y-140766925D01*
X100253120Y-140768101D01*
X100030611Y-140768771D01*
X99801835Y-140768942D01*
X99573260Y-140768617D01*
X99351356Y-140767801D01*
X99142591Y-140766499D01*
X98953437Y-140764714D01*
X98790361Y-140762451D01*
X98659833Y-140759715D01*
X98568322Y-140756510D01*
X98522299Y-140752840D01*
X98518226Y-140751559D01*
X98515982Y-140722800D01*
X98513818Y-140643241D01*
X98511752Y-140516127D01*
X98509801Y-140344700D01*
X98507981Y-140132205D01*
X98506310Y-139881883D01*
X98504805Y-139596980D01*
X98503483Y-139280738D01*
X98502361Y-138936401D01*
X98501456Y-138567211D01*
X98500784Y-138176414D01*
X98500364Y-137767250D01*
X98500212Y-137342966D01*
X98500212Y-137324268D01*
X98500064Y-136879653D01*
X98499634Y-136437158D01*
X98498940Y-136001234D01*
X98498001Y-135576333D01*
X98496834Y-135166906D01*
X98495459Y-134777405D01*
X98493894Y-134412281D01*
X98492157Y-134075986D01*
X98490267Y-133772971D01*
X98488242Y-133507688D01*
X98486101Y-133284588D01*
X98483863Y-133108122D01*
X98482331Y-133018878D01*
X98464450Y-132122765D01*
X98239139Y-132122765D01*
X98013829Y-132122765D01*
X98013829Y-131095957D01*
X98013829Y-130069148D01*
X98243510Y-130069148D01*
X98473191Y-130069148D01*
X98473191Y-129584720D01*
X98475995Y-129321490D01*
X98485156Y-129102115D01*
X98501796Y-128916661D01*
X98527036Y-128755194D01*
X98562000Y-128607782D01*
X98595857Y-128498765D01*
X98709091Y-128243864D01*
X98862759Y-128024485D01*
X99055663Y-127841691D01*
X99286606Y-127696546D01*
X99554391Y-127590111D01*
X99648616Y-127564166D01*
X99733286Y-127546346D01*
X99828485Y-127533540D01*
X99944084Y-127525127D01*
X100089953Y-127520487D01*
X100275961Y-127519000D01*
X100364680Y-127519153D01*
G37*
G36*
X118704595Y-122879364D02*
G01*
X118746774Y-122941042D01*
X118800001Y-123041238D01*
X118816108Y-123074863D01*
X118856589Y-123159972D01*
X118916529Y-123284525D01*
X118991539Y-123439470D01*
X119077227Y-123615756D01*
X119169203Y-123804331D01*
X119259749Y-123989361D01*
X119603967Y-124691746D01*
X119942890Y-125383722D01*
X120275733Y-126063673D01*
X120601712Y-126729987D01*
X120920043Y-127381050D01*
X121229940Y-128015249D01*
X121530621Y-128630970D01*
X121821299Y-129226599D01*
X122101192Y-129800522D01*
X122369514Y-130351128D01*
X122625481Y-130876801D01*
X122868309Y-131375928D01*
X123097213Y-131846897D01*
X123311409Y-132288092D01*
X123510114Y-132697901D01*
X123692541Y-133074711D01*
X123857907Y-133416907D01*
X124005428Y-133722876D01*
X124134319Y-133991004D01*
X124243795Y-134219679D01*
X124333073Y-134407286D01*
X124401368Y-134552213D01*
X124447896Y-134652844D01*
X124471872Y-134707568D01*
X124475082Y-134717723D01*
X124447718Y-134732594D01*
X124377518Y-134768235D01*
X124270263Y-134821814D01*
X124131735Y-134890504D01*
X123967716Y-134971475D01*
X123783987Y-135061897D01*
X123586330Y-135158941D01*
X123380527Y-135259778D01*
X123172360Y-135361579D01*
X122967610Y-135461514D01*
X122772060Y-135556753D01*
X122591490Y-135644469D01*
X122431682Y-135721830D01*
X122298419Y-135786008D01*
X122197482Y-135834174D01*
X122134653Y-135863499D01*
X122123917Y-135868278D01*
X122036452Y-135906173D01*
X121897158Y-135628990D01*
X121833331Y-135501241D01*
X121750071Y-135333399D01*
X121648627Y-135128025D01*
X121530244Y-134887681D01*
X121396172Y-134614928D01*
X121247658Y-134312329D01*
X121085948Y-133982445D01*
X120912292Y-133627838D01*
X120727936Y-133251069D01*
X120534127Y-132854701D01*
X120332115Y-132441294D01*
X120123145Y-132013411D01*
X119908466Y-131573613D01*
X119689325Y-131124462D01*
X119466970Y-130668520D01*
X119242648Y-130208348D01*
X119017608Y-129746509D01*
X118793095Y-129285563D01*
X118570359Y-128828073D01*
X118350646Y-128376600D01*
X118135205Y-127933705D01*
X117925282Y-127501952D01*
X117722126Y-127083901D01*
X117526983Y-126682113D01*
X117341102Y-126299152D01*
X117165730Y-125937578D01*
X117002115Y-125599953D01*
X116851504Y-125288839D01*
X116715144Y-125006797D01*
X116594284Y-124756390D01*
X116490171Y-124540179D01*
X116404052Y-124360725D01*
X116337175Y-124220590D01*
X116290788Y-124122337D01*
X116266138Y-124068526D01*
X116262303Y-124058631D01*
X116287184Y-124043269D01*
X116355001Y-124007026D01*
X116460110Y-123952700D01*
X116596865Y-123883087D01*
X116759624Y-123800983D01*
X116942741Y-123709184D01*
X117140571Y-123610485D01*
X117347471Y-123507684D01*
X117557796Y-123403576D01*
X117765901Y-123300957D01*
X117966142Y-123202624D01*
X118152875Y-123111372D01*
X118320455Y-123029998D01*
X118463238Y-122961297D01*
X118575579Y-122908067D01*
X118651834Y-122873102D01*
X118677408Y-122862253D01*
X118704595Y-122879364D01*
G37*
G36*
X95755530Y-127322728D02*
G01*
X96045754Y-127346916D01*
X96340997Y-127390586D01*
X96630315Y-127452803D01*
X96902763Y-127532631D01*
X96919467Y-127538352D01*
X97057018Y-127586943D01*
X97151219Y-127624237D01*
X97210172Y-127655473D01*
X97241978Y-127685889D01*
X97254737Y-127720724D01*
X97256669Y-127756411D01*
X97253753Y-127806176D01*
X97245943Y-127897857D01*
X97234116Y-128023248D01*
X97219149Y-128174142D01*
X97201921Y-128342336D01*
X97183308Y-128519621D01*
X97164187Y-128697792D01*
X97145437Y-128868644D01*
X97127935Y-129023969D01*
X97112557Y-129155563D01*
X97100182Y-129255220D01*
X97091686Y-129314732D01*
X97088626Y-129328039D01*
X97059646Y-129326398D01*
X96995990Y-129311741D01*
X96947890Y-129298111D01*
X96805148Y-129272109D01*
X96692046Y-129290192D01*
X96605617Y-129353347D01*
X96557969Y-129427844D01*
X96533656Y-129492759D01*
X96507781Y-129584437D01*
X96483274Y-129688659D01*
X96463061Y-129791207D01*
X96450072Y-129877861D01*
X96447235Y-129934403D01*
X96450960Y-129947414D01*
X96479989Y-129954087D01*
X96550862Y-129964711D01*
X96651676Y-129977609D01*
X96728782Y-129986548D01*
X96843259Y-130000332D01*
X96936053Y-130013425D01*
X96995079Y-130024013D01*
X97009639Y-130028717D01*
X97009831Y-130057446D01*
X97004755Y-130132680D01*
X96995154Y-130247216D01*
X96981773Y-130393853D01*
X96965360Y-130565389D01*
X96946658Y-130754622D01*
X96926413Y-130954349D01*
X96905370Y-131157368D01*
X96884276Y-131356478D01*
X96863874Y-131544477D01*
X96844910Y-131714162D01*
X96828131Y-131858331D01*
X96814280Y-131969783D01*
X96804104Y-132041315D01*
X96798863Y-132065409D01*
X96767277Y-132072469D01*
X96695096Y-132072912D01*
X96595342Y-132066902D01*
X96545643Y-132062211D01*
X96438723Y-132052063D01*
X96354601Y-132046023D01*
X96305880Y-132044906D01*
X96298858Y-132046234D01*
X96295181Y-132073651D01*
X96286198Y-132151917D01*
X96272217Y-132278134D01*
X96253549Y-132449402D01*
X96230502Y-132662820D01*
X96203385Y-132915489D01*
X96172506Y-133204509D01*
X96138176Y-133526980D01*
X96100702Y-133880002D01*
X96060395Y-134260675D01*
X96017562Y-134666100D01*
X95972513Y-135093376D01*
X95925557Y-135539605D01*
X95877003Y-136001884D01*
X95854493Y-136216488D01*
X95805129Y-136687087D01*
X95757136Y-137144162D01*
X95710833Y-137584714D01*
X95666535Y-138005743D01*
X95624560Y-138404253D01*
X95585226Y-138777242D01*
X95548849Y-139121714D01*
X95515745Y-139434668D01*
X95486233Y-139713107D01*
X95460630Y-139954031D01*
X95439251Y-140154441D01*
X95422415Y-140311340D01*
X95410438Y-140421727D01*
X95403638Y-140482605D01*
X95402413Y-140492605D01*
X95386413Y-140561894D01*
X95364736Y-140601004D01*
X95355920Y-140604411D01*
X95323651Y-140600999D01*
X95242989Y-140592390D01*
X95119277Y-140579156D01*
X94957856Y-140561869D01*
X94764067Y-140541102D01*
X94543253Y-140517426D01*
X94300754Y-140491414D01*
X94041913Y-140463639D01*
X94028191Y-140462166D01*
X92731169Y-140322956D01*
X92737635Y-140242276D01*
X92741684Y-140200001D01*
X92751015Y-140107587D01*
X92765249Y-139968639D01*
X92784009Y-139786765D01*
X92806916Y-139565570D01*
X92833593Y-139308660D01*
X92863661Y-139019642D01*
X92896743Y-138702121D01*
X92932462Y-138359705D01*
X92970438Y-137995998D01*
X93010294Y-137614607D01*
X93051652Y-137219138D01*
X93094134Y-136813198D01*
X93137362Y-136400393D01*
X93180958Y-135984328D01*
X93224545Y-135568610D01*
X93267743Y-135156845D01*
X93310177Y-134752639D01*
X93351466Y-134359598D01*
X93391234Y-133981329D01*
X93429103Y-133621437D01*
X93464694Y-133283529D01*
X93497630Y-132971211D01*
X93527532Y-132688089D01*
X93554023Y-132437769D01*
X93576725Y-132223858D01*
X93595260Y-132049961D01*
X93609250Y-131919684D01*
X93618317Y-131836635D01*
X93621529Y-131808559D01*
X93631915Y-131724035D01*
X93411476Y-131704805D01*
X93307585Y-131694782D01*
X93225774Y-131685091D01*
X93179885Y-131677431D01*
X93175214Y-131675798D01*
X93175850Y-131648742D01*
X93181767Y-131575136D01*
X93192206Y-131462132D01*
X93206404Y-131316882D01*
X93223601Y-131146541D01*
X93243036Y-130958260D01*
X93263949Y-130759193D01*
X93285578Y-130556492D01*
X93307163Y-130357311D01*
X93327944Y-130168802D01*
X93347158Y-129998119D01*
X93364045Y-129852413D01*
X93377845Y-129738838D01*
X93387797Y-129664548D01*
X93391518Y-129642221D01*
X93416681Y-129640519D01*
X93479669Y-129643917D01*
X93564660Y-129650972D01*
X93655834Y-129660238D01*
X93737370Y-129670271D01*
X93787572Y-129678381D01*
X93808281Y-129680074D01*
X93824365Y-129670825D01*
X93837489Y-129643387D01*
X93849317Y-129590509D01*
X93861514Y-129504943D01*
X93875746Y-129379441D01*
X93891891Y-129224198D01*
X93933292Y-128889651D01*
X93985012Y-128602650D01*
X94049071Y-128357340D01*
X94127486Y-128147866D01*
X94222277Y-127968373D01*
X94335461Y-127813007D01*
X94404382Y-127737645D01*
X94564909Y-127602532D01*
X94756989Y-127484619D01*
X94958298Y-127396912D01*
X95024422Y-127376409D01*
X95233919Y-127336539D01*
X95481270Y-127318957D01*
X95755530Y-127322728D01*
G37*
G36*
X114798582Y-127078564D02*
G01*
X115110583Y-127132471D01*
X115403431Y-127225525D01*
X115519300Y-127274938D01*
X115813909Y-127439133D01*
X116088927Y-127651872D01*
X116342160Y-127910534D01*
X116571410Y-128212496D01*
X116774483Y-128555137D01*
X116949181Y-128935833D01*
X116982846Y-129022462D01*
X117026123Y-129141105D01*
X117079651Y-129294000D01*
X117141680Y-129475664D01*
X117210458Y-129680614D01*
X117284234Y-129903366D01*
X117361256Y-130138439D01*
X117439773Y-130380349D01*
X117518032Y-130623613D01*
X117594284Y-130862749D01*
X117666776Y-131092273D01*
X117733756Y-131306702D01*
X117793474Y-131500554D01*
X117844178Y-131668345D01*
X117884116Y-131804593D01*
X117911537Y-131903814D01*
X117924690Y-131960527D01*
X117925008Y-131971865D01*
X117898348Y-131981578D01*
X117824469Y-132006866D01*
X117707472Y-132046362D01*
X117551457Y-132098696D01*
X117360523Y-132162501D01*
X117138770Y-132236407D01*
X116890298Y-132319047D01*
X116619206Y-132409052D01*
X116329594Y-132505053D01*
X116087031Y-132585349D01*
X114259064Y-133190105D01*
X114644165Y-134353748D01*
X114746493Y-134659930D01*
X114841023Y-134936740D01*
X114926358Y-135180306D01*
X115001102Y-135386753D01*
X115063860Y-135552207D01*
X115113234Y-135672795D01*
X115140836Y-135731833D01*
X115248347Y-135921761D01*
X115350451Y-136062535D01*
X115453213Y-136157815D01*
X115562694Y-136211259D01*
X115684959Y-136226526D01*
X115826071Y-136207274D01*
X115897390Y-136188307D01*
X116054117Y-136121244D01*
X116168051Y-136024160D01*
X116241405Y-135893867D01*
X116276392Y-135727174D01*
X116280212Y-135636555D01*
X116279374Y-135587862D01*
X116275815Y-135539364D01*
X116267968Y-135485308D01*
X116254264Y-135419941D01*
X116233135Y-135337510D01*
X116203014Y-135232261D01*
X116162332Y-135098442D01*
X116109522Y-134930298D01*
X116043016Y-134722078D01*
X115964524Y-134478197D01*
X115905243Y-134292097D01*
X115852774Y-134123041D01*
X115809091Y-133977752D01*
X115776169Y-133862949D01*
X115755983Y-133785355D01*
X115750507Y-133751689D01*
X115750854Y-133750988D01*
X115778227Y-133740133D01*
X115850787Y-133714404D01*
X115962398Y-133675852D01*
X116106924Y-133626529D01*
X116278228Y-133568487D01*
X116470175Y-133503778D01*
X116676627Y-133434453D01*
X116891449Y-133362564D01*
X117108505Y-133290162D01*
X117321657Y-133219301D01*
X117524771Y-133152030D01*
X117711709Y-133090402D01*
X117876335Y-133036469D01*
X118012514Y-132992283D01*
X118114108Y-132959895D01*
X118151127Y-132948428D01*
X118279170Y-132909478D01*
X118427400Y-133374047D01*
X118533406Y-133714914D01*
X118620012Y-134014482D01*
X118688848Y-134281231D01*
X118741549Y-134523644D01*
X118779746Y-134750202D01*
X118805071Y-134969387D01*
X118819157Y-135189681D01*
X118823637Y-135419566D01*
X118823637Y-135432871D01*
X118815520Y-135733059D01*
X118790539Y-135993002D01*
X118746842Y-136224374D01*
X118682574Y-136438848D01*
X118650574Y-136522812D01*
X118501597Y-136819659D01*
X118302791Y-137096519D01*
X118054744Y-137352875D01*
X117758041Y-137588207D01*
X117413269Y-137802000D01*
X117021014Y-137993734D01*
X116953377Y-138022542D01*
X116526362Y-138182925D01*
X116104974Y-138305851D01*
X115695464Y-138390147D01*
X115304085Y-138434642D01*
X114937087Y-138438164D01*
X114794042Y-138427383D01*
X114463901Y-138366697D01*
X114147663Y-138254274D01*
X113846034Y-138090782D01*
X113559723Y-137876890D01*
X113289435Y-137613268D01*
X113035878Y-137300583D01*
X112799759Y-136939505D01*
X112581784Y-136530703D01*
X112429091Y-136189467D01*
X112395497Y-136103177D01*
X112348154Y-135973974D01*
X112290028Y-135810337D01*
X112224083Y-135620748D01*
X112153282Y-135413685D01*
X112080591Y-135197630D01*
X112046522Y-135095105D01*
X111844539Y-134484042D01*
X111659649Y-133923326D01*
X111491585Y-133412127D01*
X111340080Y-132949614D01*
X111204866Y-132534956D01*
X111085675Y-132167324D01*
X110982239Y-131845887D01*
X110894292Y-131569814D01*
X110821565Y-131338274D01*
X110763791Y-131150437D01*
X110720701Y-131005473D01*
X110692030Y-130902551D01*
X110680735Y-130856620D01*
X110649739Y-130672774D01*
X110629469Y-130459141D01*
X110619917Y-130229978D01*
X110621076Y-129999539D01*
X110627706Y-129878001D01*
X113243001Y-129878001D01*
X113248268Y-130003008D01*
X113259777Y-130123842D01*
X113275244Y-130217822D01*
X113278578Y-130231276D01*
X113293979Y-130283417D01*
X113322641Y-130375969D01*
X113362108Y-130501315D01*
X113409925Y-130651837D01*
X113463635Y-130819917D01*
X113520782Y-130997936D01*
X113578911Y-131178277D01*
X113635567Y-131353323D01*
X113688292Y-131515454D01*
X113734632Y-131657052D01*
X113772130Y-131770501D01*
X113798332Y-131848182D01*
X113810780Y-131882478D01*
X113811056Y-131883028D01*
X113837542Y-131879217D01*
X113906446Y-131861236D01*
X114008874Y-131831876D01*
X114135933Y-131793926D01*
X114278728Y-131750178D01*
X114428366Y-131703421D01*
X114575953Y-131656446D01*
X114712594Y-131612043D01*
X114829396Y-131573003D01*
X114917465Y-131542116D01*
X114967907Y-131522173D01*
X114975911Y-131517562D01*
X114972023Y-131488493D01*
X114952329Y-131415707D01*
X114919256Y-131306360D01*
X114875235Y-131167607D01*
X114822695Y-131006605D01*
X114764065Y-130830509D01*
X114701774Y-130646475D01*
X114638252Y-130461658D01*
X114575927Y-130283215D01*
X114517230Y-130118302D01*
X114464588Y-129974073D01*
X114420432Y-129857686D01*
X114387191Y-129776295D01*
X114377872Y-129755917D01*
X114258582Y-129543772D01*
X114130853Y-129381816D01*
X113996069Y-129270731D01*
X113855612Y-129211201D01*
X113710865Y-129203909D01*
X113563212Y-129249535D01*
X113467871Y-129306792D01*
X113360594Y-129409989D01*
X113288933Y-129543326D01*
X113250785Y-129712145D01*
X113243001Y-129878001D01*
X110627706Y-129878001D01*
X110632938Y-129782082D01*
X110655497Y-129591862D01*
X110681442Y-129468137D01*
X110775354Y-129172444D01*
X110888458Y-128914216D01*
X111029180Y-128678911D01*
X111205949Y-128451983D01*
X111375675Y-128270027D01*
X111581232Y-128075603D01*
X111785526Y-127911007D01*
X112004045Y-127765440D01*
X112252274Y-127628104D01*
X112401154Y-127554971D01*
X112837045Y-127367375D01*
X113258759Y-127226435D01*
X113675300Y-127129991D01*
X114095672Y-127075880D01*
X114456276Y-127061565D01*
X114798582Y-127078564D01*
G37*
G36*
X88124042Y-128030406D02*
G01*
X88366291Y-128032924D01*
X88570192Y-128040503D01*
X88751354Y-128055154D01*
X88925386Y-128078886D01*
X89107894Y-128113708D01*
X89314489Y-128161630D01*
X89490714Y-128206359D01*
X89726325Y-128271459D01*
X89929476Y-128337362D01*
X90121320Y-128411637D01*
X90323014Y-128501852D01*
X90342535Y-128511089D01*
X90647614Y-128679358D01*
X90933358Y-128882731D01*
X91193367Y-129114538D01*
X91421240Y-129368103D01*
X91610575Y-129636755D01*
X91754974Y-129913820D01*
X91800764Y-130031327D01*
X91876501Y-130310417D01*
X91921589Y-130617749D01*
X91934828Y-130936251D01*
X91915017Y-131248851D01*
X91895600Y-131379680D01*
X91886300Y-131421614D01*
X91864760Y-131512518D01*
X91831838Y-131648930D01*
X91788394Y-131827390D01*
X91735287Y-132044437D01*
X91673377Y-132296611D01*
X91603524Y-132580449D01*
X91526587Y-132892491D01*
X91443425Y-133229277D01*
X91354899Y-133587344D01*
X91261866Y-133963233D01*
X91165188Y-134353483D01*
X91065723Y-134754632D01*
X90964332Y-135163219D01*
X90861872Y-135575784D01*
X90759205Y-135988865D01*
X90657190Y-136399003D01*
X90556685Y-136802735D01*
X90458551Y-137196600D01*
X90363648Y-137577139D01*
X90272833Y-137940890D01*
X90186968Y-138284392D01*
X90106912Y-138604183D01*
X90033523Y-138896804D01*
X89967662Y-139158794D01*
X89910189Y-139386690D01*
X89861962Y-139577033D01*
X89823841Y-139726362D01*
X89796851Y-139830584D01*
X89772336Y-139894661D01*
X89744407Y-139928168D01*
X89737521Y-139929675D01*
X89705485Y-139922709D01*
X89626349Y-139903611D01*
X89505354Y-139873697D01*
X89347745Y-139834283D01*
X89158762Y-139786685D01*
X88943649Y-139732220D01*
X88707647Y-139672203D01*
X88455999Y-139607951D01*
X88452078Y-139606948D01*
X88200914Y-139542473D01*
X87965962Y-139481739D01*
X87752371Y-139426107D01*
X87565289Y-139376936D01*
X87409864Y-139335589D01*
X87291244Y-139303425D01*
X87214577Y-139281805D01*
X87185011Y-139272091D01*
X87184919Y-139272011D01*
X87187180Y-139242804D01*
X87201523Y-139169012D01*
X87226211Y-139058295D01*
X87259503Y-138918312D01*
X87299659Y-138756723D01*
X87320275Y-138676014D01*
X87363302Y-138507933D01*
X87400938Y-138358900D01*
X87431348Y-138236339D01*
X87452702Y-138147676D01*
X87463167Y-138100334D01*
X87463786Y-138094467D01*
X87446535Y-138114868D01*
X87407499Y-138168256D01*
X87357092Y-138240244D01*
X87171330Y-138469421D01*
X86955261Y-138665901D01*
X86716332Y-138825448D01*
X86461988Y-138943826D01*
X86199675Y-139016800D01*
X85950899Y-139040212D01*
X85688701Y-139019875D01*
X85417030Y-138962066D01*
X85146599Y-138871589D01*
X84888118Y-138753246D01*
X84652300Y-138611842D01*
X84449858Y-138452178D01*
X84311566Y-138305122D01*
X84159176Y-138070522D01*
X84043654Y-137796454D01*
X83965004Y-137482969D01*
X83923229Y-137130114D01*
X83918332Y-136737939D01*
X83929946Y-136581276D01*
X86684163Y-136581276D01*
X86695140Y-136775009D01*
X86732340Y-136928205D01*
X86797937Y-137048724D01*
X86821296Y-137077241D01*
X86918379Y-137152047D01*
X87045239Y-137202777D01*
X87183368Y-137225753D01*
X87314257Y-137217297D01*
X87391798Y-137190635D01*
X87494554Y-137114199D01*
X87595621Y-136996721D01*
X87684758Y-136850520D01*
X87699496Y-136820519D01*
X87713958Y-136778324D01*
X87740095Y-136689881D01*
X87776448Y-136560789D01*
X87821555Y-136396647D01*
X87873955Y-136203053D01*
X87932186Y-135985606D01*
X87994789Y-135749905D01*
X88060302Y-135501549D01*
X88127263Y-135246136D01*
X88194213Y-134989266D01*
X88259689Y-134736536D01*
X88322231Y-134493547D01*
X88380378Y-134265896D01*
X88432669Y-134059182D01*
X88477643Y-133879004D01*
X88513838Y-133730961D01*
X88539794Y-133620652D01*
X88554050Y-133553675D01*
X88556382Y-133536850D01*
X88532344Y-133531424D01*
X88468544Y-133537742D01*
X88377454Y-133553682D01*
X88271545Y-133577122D01*
X88181999Y-133600561D01*
X87933887Y-133689245D01*
X87711304Y-133805817D01*
X87523890Y-133944449D01*
X87401665Y-134072452D01*
X87347477Y-134145919D01*
X87298207Y-134225301D01*
X87251780Y-134316441D01*
X87206126Y-134425181D01*
X87159171Y-134557363D01*
X87108843Y-134718830D01*
X87053069Y-134915424D01*
X86989776Y-135152987D01*
X86916894Y-135437362D01*
X86915457Y-135443042D01*
X86851839Y-135696187D01*
X86800810Y-135903658D01*
X86761039Y-136071998D01*
X86731198Y-136207752D01*
X86709956Y-136317466D01*
X86695983Y-136407683D01*
X86687949Y-136484949D01*
X86684525Y-136555807D01*
X86684163Y-136581276D01*
X83929946Y-136581276D01*
X83950317Y-136306492D01*
X84019187Y-135835825D01*
X84114714Y-135370004D01*
X84236929Y-134894257D01*
X84372761Y-134469911D01*
X84522534Y-134095983D01*
X84568473Y-133997144D01*
X84688796Y-133761118D01*
X84805831Y-133564070D01*
X84928808Y-133392408D01*
X85066959Y-133232536D01*
X85136232Y-133161125D01*
X85268599Y-133035704D01*
X85402468Y-132924806D01*
X85542294Y-132827176D01*
X85692529Y-132741561D01*
X85857627Y-132666708D01*
X86042041Y-132601363D01*
X86250224Y-132544272D01*
X86486631Y-132494181D01*
X86755714Y-132449838D01*
X87061926Y-132409988D01*
X87409722Y-132373378D01*
X87803554Y-132338754D01*
X88153647Y-132311724D01*
X88346888Y-132297281D01*
X88521542Y-132283810D01*
X88670641Y-132271883D01*
X88787215Y-132262070D01*
X88864298Y-132254942D01*
X88894922Y-132251071D01*
X88895144Y-132250940D01*
X88902763Y-132224002D01*
X88921427Y-132151817D01*
X88949314Y-132041629D01*
X88984597Y-131900679D01*
X89025452Y-131736209D01*
X89056784Y-131609361D01*
X89117333Y-131357393D01*
X89162928Y-131150244D01*
X89194062Y-130980946D01*
X89211234Y-130842531D01*
X89214937Y-130728032D01*
X89205669Y-130630480D01*
X89183924Y-130542907D01*
X89150199Y-130458347D01*
X89140172Y-130437306D01*
X89062174Y-130305861D01*
X88973273Y-130217452D01*
X88861219Y-130161088D01*
X88817380Y-130147730D01*
X88676489Y-130136153D01*
X88539934Y-130175301D01*
X88413052Y-130261867D01*
X88301176Y-130392544D01*
X88234303Y-130509206D01*
X88195223Y-130603356D01*
X88150311Y-130732653D01*
X88105337Y-130879461D01*
X88068901Y-131014696D01*
X88036811Y-131141785D01*
X88009092Y-131248283D01*
X87988434Y-131324084D01*
X87977531Y-131359081D01*
X87976883Y-131360207D01*
X87950199Y-131355356D01*
X87877321Y-131338788D01*
X87764447Y-131312043D01*
X87617775Y-131276665D01*
X87443500Y-131234195D01*
X87247822Y-131186174D01*
X87036937Y-131134145D01*
X86817042Y-131079649D01*
X86594335Y-131024228D01*
X86375013Y-130969425D01*
X86165273Y-130916780D01*
X85971312Y-130867836D01*
X85799329Y-130824135D01*
X85655520Y-130787218D01*
X85546082Y-130758628D01*
X85477213Y-130739905D01*
X85455065Y-130732796D01*
X85456704Y-130702902D01*
X85471191Y-130631225D01*
X85495860Y-130527748D01*
X85528045Y-130402455D01*
X85565081Y-130265331D01*
X85604300Y-130126360D01*
X85643039Y-129995525D01*
X85678630Y-129882811D01*
X85694436Y-129836303D01*
X85826597Y-129497933D01*
X85970672Y-129204688D01*
X86131713Y-128948086D01*
X86314775Y-128719647D01*
X86433264Y-128596488D01*
X86668112Y-128396663D01*
X86918551Y-128243554D01*
X87196603Y-128130380D01*
X87326914Y-128092496D01*
X87416236Y-128070490D01*
X87498400Y-128054242D01*
X87583980Y-128042927D01*
X87683547Y-128035724D01*
X87807674Y-128031807D01*
X87966934Y-128030355D01*
X88124042Y-128030406D01*
G37*
G36*
X106949540Y-128988568D02*
G01*
X107340657Y-129055014D01*
X107703190Y-129162156D01*
X108035379Y-129309163D01*
X108335468Y-129495205D01*
X108601699Y-129719451D01*
X108832316Y-129981071D01*
X109025560Y-130279234D01*
X109179674Y-130613110D01*
X109226150Y-130744680D01*
X109255630Y-130848087D01*
X109288472Y-130983845D01*
X109319781Y-131130899D01*
X109336106Y-131217552D01*
X109352262Y-131313809D01*
X109374711Y-131455273D01*
X109402959Y-131638486D01*
X109436512Y-131859992D01*
X109474875Y-132116334D01*
X109517554Y-132404057D01*
X109564057Y-132719703D01*
X109613888Y-133059815D01*
X109666553Y-133420938D01*
X109721560Y-133799614D01*
X109778413Y-134192387D01*
X109836618Y-134595801D01*
X109895682Y-135006398D01*
X109955111Y-135420723D01*
X110014410Y-135835318D01*
X110073086Y-136246727D01*
X110130644Y-136651493D01*
X110186591Y-137046160D01*
X110240433Y-137427272D01*
X110291675Y-137791371D01*
X110339823Y-138135001D01*
X110384384Y-138454705D01*
X110424864Y-138747028D01*
X110460768Y-139008511D01*
X110491602Y-139235700D01*
X110516873Y-139425136D01*
X110536087Y-139573364D01*
X110548749Y-139676926D01*
X110554365Y-139732367D01*
X110554275Y-139741094D01*
X110521956Y-139748744D01*
X110442961Y-139762637D01*
X110323590Y-139781877D01*
X110170140Y-139805572D01*
X109988911Y-139832827D01*
X109786199Y-139862746D01*
X109568304Y-139894437D01*
X109341524Y-139927004D01*
X109112157Y-139959553D01*
X108886502Y-139991190D01*
X108670856Y-140021021D01*
X108471519Y-140048151D01*
X108294789Y-140071685D01*
X108146963Y-140090730D01*
X108034341Y-140104392D01*
X107963221Y-140111775D01*
X107939910Y-140112321D01*
X107932075Y-140082562D01*
X107918021Y-140007070D01*
X107899028Y-139893632D01*
X107876378Y-139750035D01*
X107851351Y-139584066D01*
X107838299Y-139494794D01*
X107810054Y-139301934D01*
X107787932Y-139157841D01*
X107770855Y-139057718D01*
X107757748Y-138996770D01*
X107747533Y-138970203D01*
X107739132Y-138973220D01*
X107731469Y-139001028D01*
X107729612Y-139010907D01*
X107653818Y-139296065D01*
X107533130Y-139574760D01*
X107374874Y-139833011D01*
X107186378Y-140056836D01*
X107176141Y-140067020D01*
X106958208Y-140246894D01*
X106718966Y-140377322D01*
X106457978Y-140458938D01*
X106321444Y-140481076D01*
X106153549Y-140498150D01*
X105971063Y-140509432D01*
X105790758Y-140514197D01*
X105629403Y-140511717D01*
X105503770Y-140501265D01*
X105498722Y-140500520D01*
X105221241Y-140438435D01*
X104971839Y-140339149D01*
X104747023Y-140199760D01*
X104543300Y-140017366D01*
X104357178Y-139789067D01*
X104185164Y-139511960D01*
X104092910Y-139332755D01*
X103974981Y-139056559D01*
X103864910Y-138734003D01*
X103764619Y-138372444D01*
X103676030Y-137979236D01*
X103601065Y-137561735D01*
X103564519Y-137310850D01*
X103545645Y-137132483D01*
X103531813Y-136925902D01*
X103523149Y-136703876D01*
X103519782Y-136479175D01*
X103521840Y-136264567D01*
X103529452Y-136072823D01*
X103542747Y-135916712D01*
X103549994Y-135865212D01*
X103596230Y-135649578D01*
X106124634Y-135649578D01*
X106126701Y-135752650D01*
X106133708Y-135866812D01*
X106146461Y-136000566D01*
X106165766Y-136162414D01*
X106192430Y-136360860D01*
X106225858Y-136594786D01*
X106271086Y-136899407D01*
X106311453Y-137155689D01*
X106348315Y-137368976D01*
X106383025Y-137544613D01*
X106416936Y-137687947D01*
X106451403Y-137804320D01*
X106487779Y-137899078D01*
X106527418Y-137977567D01*
X106571673Y-138045131D01*
X106603447Y-138085590D01*
X106717799Y-138182909D01*
X106858411Y-138241223D01*
X107010965Y-138257220D01*
X107161140Y-138227586D01*
X107181665Y-138219391D01*
X107260636Y-138173055D01*
X107336006Y-138110266D01*
X107341509Y-138104550D01*
X107396475Y-138020420D01*
X107444574Y-137900685D01*
X107480132Y-137763766D01*
X107497473Y-137628087D01*
X107498297Y-137595597D01*
X107494608Y-137553562D01*
X107484074Y-137465099D01*
X107467490Y-137335818D01*
X107445652Y-137171327D01*
X107419356Y-136977237D01*
X107389400Y-136759157D01*
X107356579Y-136522697D01*
X107321690Y-136273466D01*
X107285528Y-136017074D01*
X107248891Y-135759131D01*
X107212573Y-135505246D01*
X107177373Y-135261028D01*
X107144085Y-135032088D01*
X107113507Y-134824035D01*
X107086434Y-134642479D01*
X107063663Y-134493029D01*
X107045990Y-134381295D01*
X107034211Y-134312886D01*
X107029506Y-134293052D01*
X107004389Y-134302358D01*
X106945932Y-134335005D01*
X106865789Y-134384399D01*
X106848758Y-134395335D01*
X106623961Y-134565492D01*
X106432089Y-134761525D01*
X106282104Y-134973781D01*
X106241615Y-135049200D01*
X106194356Y-135148605D01*
X106163409Y-135228451D01*
X106144677Y-135306550D01*
X106134067Y-135400717D01*
X106127484Y-135528763D01*
X106126700Y-135549093D01*
X106124634Y-135649578D01*
X103596230Y-135649578D01*
X103596799Y-135646926D01*
X103664635Y-135417554D01*
X103746749Y-135196629D01*
X103836390Y-135003679D01*
X103866802Y-134948910D01*
X103955155Y-134809220D01*
X104053639Y-134677294D01*
X104166140Y-134550360D01*
X104296548Y-134425650D01*
X104448748Y-134300394D01*
X104626630Y-134171820D01*
X104834080Y-134037160D01*
X105074987Y-133893644D01*
X105353237Y-133738500D01*
X105672719Y-133568960D01*
X106037320Y-133382254D01*
X106133723Y-133333702D01*
X106312964Y-133243552D01*
X106476009Y-133161300D01*
X106616747Y-133090048D01*
X106729065Y-133032901D01*
X106806851Y-132992960D01*
X106843995Y-132973330D01*
X106846230Y-132971945D01*
X106846784Y-132942431D01*
X106839639Y-132868433D01*
X106826127Y-132758752D01*
X106807582Y-132622187D01*
X106785335Y-132467538D01*
X106760720Y-132303604D01*
X106735070Y-132139184D01*
X106709716Y-131983079D01*
X106685993Y-131844087D01*
X106665231Y-131731009D01*
X106648765Y-131652643D01*
X106643196Y-131631331D01*
X106561598Y-131420217D01*
X106455421Y-131256198D01*
X106323381Y-131137608D01*
X106222410Y-131083815D01*
X106076005Y-131044986D01*
X105942163Y-131057653D01*
X105816732Y-131122766D01*
X105736592Y-131194874D01*
X105665059Y-131287692D01*
X105615915Y-131396118D01*
X105588260Y-131527337D01*
X105581194Y-131688533D01*
X105593819Y-131886890D01*
X105622133Y-132108933D01*
X105638972Y-132232939D01*
X105650894Y-132341968D01*
X105656511Y-132421863D01*
X105655909Y-132453133D01*
X105652046Y-132467088D01*
X105641766Y-132479728D01*
X105620565Y-132491908D01*
X105583934Y-132504482D01*
X105527368Y-132518306D01*
X105446360Y-132534233D01*
X105336403Y-132553117D01*
X105192990Y-132575814D01*
X105011616Y-132603177D01*
X104787773Y-132636062D01*
X104516955Y-132675322D01*
X104378997Y-132695234D01*
X104123755Y-132731743D01*
X103885140Y-132765287D01*
X103668420Y-132795165D01*
X103478862Y-132820679D01*
X103321734Y-132841131D01*
X103202305Y-132855822D01*
X103125841Y-132864054D01*
X103097628Y-132865145D01*
X103078088Y-132819628D01*
X103059511Y-132728364D01*
X103042323Y-132599648D01*
X103026948Y-132441774D01*
X103013811Y-132263035D01*
X103003337Y-132071725D01*
X102995950Y-131876138D01*
X102992076Y-131684568D01*
X102992140Y-131505308D01*
X102996566Y-131346652D01*
X103005779Y-131216895D01*
X103011005Y-131174206D01*
X103046214Y-130989907D01*
X103098665Y-130791848D01*
X103162543Y-130598149D01*
X103232032Y-130426936D01*
X103283045Y-130326414D01*
X103461823Y-130069551D01*
X103688220Y-129837590D01*
X103961755Y-129630797D01*
X104281947Y-129449436D01*
X104648315Y-129293769D01*
X105060379Y-129164062D01*
X105517658Y-129060577D01*
X105622248Y-129041707D01*
X106088578Y-128981084D01*
X106531594Y-128963648D01*
X106949540Y-128988568D01*
G37*
G36*
X80463116Y-122922106D02*
G01*
X80534103Y-122951787D01*
X80647028Y-123000242D01*
X80798184Y-123065844D01*
X80983863Y-123146970D01*
X81200360Y-123241994D01*
X81443968Y-123349292D01*
X81710979Y-123467237D01*
X81997686Y-123594206D01*
X82300383Y-123728573D01*
X82427246Y-123784977D01*
X82822071Y-123960777D01*
X83170838Y-124116676D01*
X83476952Y-124254545D01*
X83743819Y-124376255D01*
X83974842Y-124483676D01*
X84173427Y-124578678D01*
X84342979Y-124663133D01*
X84486902Y-124738912D01*
X84608603Y-124807884D01*
X84711486Y-124871922D01*
X84798955Y-124932895D01*
X84874416Y-124992674D01*
X84941275Y-125053130D01*
X85002935Y-125116133D01*
X85062802Y-125183555D01*
X85124280Y-125257266D01*
X85138305Y-125274445D01*
X85288367Y-125491761D01*
X85398432Y-125728809D01*
X85470523Y-125992094D01*
X85506664Y-126288120D01*
X85511953Y-126475318D01*
X85505466Y-126685270D01*
X85484763Y-126888699D01*
X85447407Y-127099382D01*
X85390959Y-127331093D01*
X85313830Y-127594871D01*
X85227651Y-127856856D01*
X85126503Y-128137897D01*
X85015479Y-128425492D01*
X84899673Y-128707135D01*
X84784176Y-128970325D01*
X84674082Y-129202556D01*
X84603191Y-129339574D01*
X84418274Y-129653963D01*
X84224748Y-129932229D01*
X84026023Y-130170476D01*
X83825512Y-130364808D01*
X83626626Y-130511328D01*
X83530425Y-130564673D01*
X83295832Y-130658864D01*
X83048734Y-130720456D01*
X82810841Y-130744118D01*
X82799321Y-130744211D01*
X82649174Y-130744680D01*
X82788548Y-130888575D01*
X82942848Y-131083216D01*
X83053103Y-131299919D01*
X83114787Y-131529313D01*
X83121024Y-131577070D01*
X83127612Y-131866630D01*
X83089004Y-132177550D01*
X83006344Y-132503386D01*
X82908459Y-132772430D01*
X82865700Y-132873591D01*
X82805356Y-133012630D01*
X82729299Y-133185432D01*
X82639406Y-133387889D01*
X82537550Y-133615888D01*
X82425606Y-133865317D01*
X82305449Y-134132066D01*
X82178952Y-134412023D01*
X82047991Y-134701077D01*
X81914439Y-134995117D01*
X81780172Y-135290030D01*
X81647063Y-135581706D01*
X81516988Y-135866034D01*
X81391820Y-136138902D01*
X81273434Y-136396198D01*
X81163705Y-136633812D01*
X81064507Y-136847632D01*
X80977714Y-137033546D01*
X80905201Y-137187444D01*
X80848843Y-137305214D01*
X80810513Y-137382745D01*
X80792087Y-137415924D01*
X80790948Y-137416876D01*
X80760824Y-137405747D01*
X80686405Y-137374678D01*
X80572702Y-137325858D01*
X80424723Y-137261477D01*
X80247479Y-137183721D01*
X80045980Y-137094781D01*
X79825235Y-136996844D01*
X79613685Y-136902566D01*
X79380641Y-136798388D01*
X79163090Y-136700931D01*
X78965931Y-136612406D01*
X78794063Y-136535020D01*
X78652384Y-136470984D01*
X78545795Y-136422507D01*
X78479194Y-136391797D01*
X78457460Y-136381148D01*
X78466544Y-136355539D01*
X78495836Y-136284722D01*
X78543527Y-136172842D01*
X78607811Y-136024046D01*
X78686879Y-135842481D01*
X78778925Y-135632293D01*
X78882141Y-135397628D01*
X78994719Y-135142633D01*
X79114851Y-134871455D01*
X79154991Y-134781043D01*
X79367156Y-134303413D01*
X79558476Y-133872616D01*
X79730031Y-133486087D01*
X79882896Y-133141264D01*
X80018150Y-132835581D01*
X80136870Y-132566476D01*
X80240133Y-132331383D01*
X80329016Y-132127740D01*
X80404597Y-131952982D01*
X80467954Y-131804544D01*
X80520164Y-131679864D01*
X80562304Y-131576377D01*
X80595451Y-131491519D01*
X80620684Y-131422726D01*
X80639078Y-131367434D01*
X80651713Y-131323080D01*
X80659665Y-131287098D01*
X80664011Y-131256926D01*
X80665830Y-131229999D01*
X80666198Y-131203753D01*
X80666169Y-131184759D01*
X80654988Y-131092939D01*
X80629662Y-131006847D01*
X80570485Y-130914645D01*
X80471803Y-130814393D01*
X80345277Y-130715451D01*
X80202566Y-130627175D01*
X80087650Y-130571802D01*
X79988940Y-130530558D01*
X79935956Y-130644374D01*
X79917885Y-130684361D01*
X79879441Y-130770338D01*
X79822143Y-130898887D01*
X79747511Y-131066587D01*
X79657064Y-131270020D01*
X79552320Y-131505766D01*
X79434798Y-131770405D01*
X79306017Y-132060517D01*
X79167497Y-132372685D01*
X79020756Y-132703487D01*
X78867314Y-133049505D01*
X78733184Y-133352057D01*
X78576189Y-133705992D01*
X78425164Y-134046006D01*
X78281568Y-134368839D01*
X78146859Y-134671234D01*
X78022496Y-134949932D01*
X77909936Y-135201674D01*
X77810640Y-135423201D01*
X77726065Y-135611254D01*
X77657669Y-135762576D01*
X77606912Y-135873907D01*
X77575251Y-135941989D01*
X77564303Y-135963579D01*
X77537708Y-135955671D01*
X77467576Y-135928301D01*
X77359732Y-135884010D01*
X77219999Y-135825338D01*
X77054204Y-135754825D01*
X76868169Y-135675012D01*
X76667720Y-135588439D01*
X76458681Y-135497646D01*
X76246876Y-135405172D01*
X76038131Y-135313559D01*
X75838269Y-135225346D01*
X75653114Y-135143074D01*
X75488493Y-135069282D01*
X75350227Y-135006512D01*
X75244144Y-134957302D01*
X75176066Y-134924194D01*
X75156429Y-134913456D01*
X75153448Y-134900399D01*
X75159869Y-134868552D01*
X75176815Y-134815252D01*
X75205408Y-134737834D01*
X75246772Y-134633635D01*
X75302030Y-134499989D01*
X75372303Y-134334233D01*
X75458715Y-134133702D01*
X75562389Y-133895733D01*
X75684447Y-133617660D01*
X75826013Y-133296821D01*
X75988208Y-132930550D01*
X76065445Y-132756460D01*
X76191048Y-132473481D01*
X76336346Y-132146116D01*
X76499114Y-131779378D01*
X76677128Y-131378278D01*
X76868163Y-130947829D01*
X77069995Y-130493044D01*
X77280401Y-130018934D01*
X77497154Y-129530512D01*
X77718032Y-129032789D01*
X77940810Y-128530779D01*
X77996197Y-128405966D01*
X80977416Y-128405966D01*
X80978078Y-128429457D01*
X80985550Y-128443327D01*
X80996753Y-128451258D01*
X81076360Y-128490562D01*
X81180876Y-128537651D01*
X81298114Y-128587585D01*
X81415888Y-128635424D01*
X81522013Y-128676228D01*
X81604302Y-128705058D01*
X81650570Y-128716975D01*
X81652446Y-128717049D01*
X81709989Y-128706041D01*
X81789138Y-128678649D01*
X81817306Y-128666570D01*
X81956787Y-128576819D01*
X82096597Y-128435066D01*
X82235475Y-128243329D01*
X82372156Y-128003624D01*
X82505377Y-127717970D01*
X82633876Y-127388383D01*
X82654862Y-127328984D01*
X82719212Y-127116230D01*
X82749481Y-126940904D01*
X82745163Y-126798089D01*
X82705753Y-126682867D01*
X82630747Y-126590319D01*
X82574575Y-126547588D01*
X82522705Y-126518775D01*
X82438442Y-126477387D01*
X82333730Y-126428700D01*
X82220515Y-126377992D01*
X82110742Y-126330539D01*
X82016354Y-126291619D01*
X81949296Y-126266510D01*
X81923427Y-126259909D01*
X81907056Y-126284010D01*
X81871456Y-126352634D01*
X81818973Y-126460755D01*
X81751950Y-126603346D01*
X81672733Y-126775380D01*
X81583665Y-126971830D01*
X81487092Y-127187670D01*
X81419008Y-127341414D01*
X81304672Y-127600950D01*
X81210594Y-127815515D01*
X81135094Y-127989528D01*
X81076490Y-128127408D01*
X81033101Y-128233573D01*
X81003247Y-128312442D01*
X80985246Y-128368434D01*
X80977416Y-128405966D01*
X77996197Y-128405966D01*
X78163262Y-128029494D01*
X78383166Y-127533945D01*
X78598296Y-127049145D01*
X78721032Y-126772552D01*
X78912843Y-126340352D01*
X79098701Y-125921675D01*
X79277426Y-125519179D01*
X79447835Y-125135519D01*
X79608747Y-124773354D01*
X79758979Y-124435341D01*
X79897350Y-124124136D01*
X80022679Y-123842397D01*
X80133782Y-123592781D01*
X80229479Y-123377944D01*
X80308588Y-123200545D01*
X80369926Y-123063240D01*
X80412312Y-122968686D01*
X80434565Y-122919541D01*
X80437774Y-122912824D01*
X80463116Y-122922106D01*
G37*
%TO.C,SW1*%
D13*
X58595000Y-88515000D02*
X72565000Y-88515000D01*
X58595000Y-102485000D02*
X58595000Y-88515000D01*
X72565000Y-88515000D02*
X72565000Y-102485000D01*
X72565000Y-102485000D02*
X58595000Y-102485000D01*
%TO.C,J1*%
X86354000Y-148040000D02*
X86354000Y-120608000D01*
X86421000Y-136864000D02*
X86421000Y-129184000D01*
X89081000Y-129184000D02*
X86421000Y-129184000D01*
X89081000Y-136864000D02*
X86421000Y-136864000D01*
X89081000Y-136864000D02*
X89081000Y-129184000D01*
X89081000Y-138134000D02*
X89081000Y-139464000D01*
X89081000Y-139464000D02*
X87751000Y-139464000D01*
X91561000Y-148040000D02*
X91561000Y-120608000D01*
X108452000Y-148040000D02*
X108452000Y-120608000D01*
X113532000Y-120608000D02*
X86354000Y-120608000D01*
X113532000Y-120608000D02*
X113532000Y-148040000D01*
X113532000Y-148040000D02*
X86354000Y-147913000D01*
%TO.C,SW2*%
X76515000Y-63515000D02*
X90485000Y-63515000D01*
X76515000Y-77485000D02*
X76515000Y-63515000D01*
X90485000Y-63515000D02*
X90485000Y-77485000D01*
X90485000Y-77485000D02*
X76515000Y-77485000D01*
%TO.C,U1*%
X125840000Y-112280000D02*
X125840000Y-114280000D01*
X125840000Y-112280000D02*
X127450000Y-112280000D01*
X126120000Y-124820000D02*
X126120000Y-112570000D01*
X126130000Y-112560000D02*
X131870000Y-112560000D01*
X131880000Y-112560000D02*
X131880000Y-124820000D01*
X131880000Y-124820000D02*
X126120000Y-124820000D01*
%TD*%
M02*
