%TF.GenerationSoftware,KiCad,Pcbnew,10.0.6*%
%TF.CreationDate,2026-10-09T20:20:08+02:00*%
%TF.ProjectId,Starbie,53746172-6269-4652-9e6b-696361645f70,rev?*%
%TF.SameCoordinates,Original*%
%TF.FileFunction,Copper,L2,Bot*%
%TF.FilePolarity,Positive*%
%FSLAX46Y46*%
G04 Gerber Fmt 4.6, Leading zero omitted, Abs format (unit mm)*
G04 Created by KiCad (PCBNEW 10.0.6) date 2026-10-09 20:20:08*
%MOMM*%
%LPD*%
G01*
G04 APERTURE LIST*
%TA.AperFunction,ComponentPad*%
%ADD10C,1.400000*%
%TD*%
%TA.AperFunction,ComponentPad*%
%ADD11R,1.700000X1.700000*%
%TD*%
%TA.AperFunction,ComponentPad*%
%ADD12C,1.700000*%
%TD*%
%TA.AperFunction,ComponentPad*%
%ADD13C,1.524000*%
%TD*%
%TA.AperFunction,ComponentPad*%
%ADD14C,2.200000*%
%TD*%
%TA.AperFunction,ComponentPad*%
%ADD15O,1.700000X1.700000*%
%TD*%
%TA.AperFunction,ComponentPad*%
%ADD16R,1.500000X1.500000*%
%TD*%
%TA.AperFunction,ComponentPad*%
%ADD17C,1.500000*%
%TD*%
%TA.AperFunction,Conductor*%
%ADD18C,0.200000*%
%TD*%
G04 APERTURE END LIST*
D10*
%TO.P,R1,1*%
%TO.N,+3.3V*%
X110500000Y-67500000D03*
%TO.P,R1,2*%
%TO.N,/DHT11 DATA*%
X118120000Y-67500000D03*
%TD*%
D11*
%TO.P,J2,1,Pin_1_1*%
%TO.N,+3.3V*%
X69500000Y-111380000D03*
D12*
%TO.P,J2,2,Pin_2_2*%
%TO.N,GND*%
X69500000Y-113920000D03*
%TO.P,J2,3,Pin_3_3*%
%TO.N,/SCL*%
X69500000Y-116460000D03*
%TO.P,J2,4,Pin_4_4*%
%TO.N,/SDA*%
X69500000Y-119000000D03*
%TO.P,J2,5,Pin_5_5*%
%TO.N,unconnected-(J2-Pin_5-Pad5)*%
X69500000Y-121540000D03*
%TO.P,J2,6,Pin_6_6*%
%TO.N,unconnected-(J2-Pin_6-Pad6)*%
X69500000Y-124080000D03*
%TO.P,J2,7,Pin_7_7*%
%TO.N,unconnected-(J2-Pin_7-Pad7)*%
X69500000Y-126620000D03*
%TO.P,J2,8,Pin_8_8*%
%TO.N,unconnected-(J2-Pin_8-Pad8)*%
X69500000Y-129160000D03*
%TD*%
D13*
%TO.P,U2,1,D0_1*%
%TO.N,unconnected-(U2-D0-Pad1)_1*%
X137620000Y-74760000D03*
%TO.P,U2,2,D1_2*%
%TO.N,/DHT11 DATA*%
X135080000Y-74760000D03*
%TO.P,U2,3,D2_3*%
%TO.N,/GPIO2*%
X132540000Y-74760000D03*
%TO.P,U2,4,D3_4*%
%TO.N,/GPIO3*%
X130000000Y-74760000D03*
%TO.P,U2,5,D4_5*%
%TO.N,/SCL*%
X127460000Y-74760000D03*
%TO.P,U2,6,D5_6*%
%TO.N,/SDA*%
X124920000Y-74760000D03*
%TO.P,U2,7,D6_7*%
%TO.N,unconnected-(U2-D6-Pad7)_1*%
X122380000Y-74760000D03*
%TO.P,U2,8,D7_8*%
%TO.N,unconnected-(U2-D7-Pad8)_1*%
X122380000Y-90000000D03*
%TO.P,U2,9,D8_9*%
%TO.N,unconnected-(U2-D8-Pad9)_1*%
X124920000Y-90000000D03*
%TO.P,U2,10,D9/BOOT_10*%
%TO.N,unconnected-(U2-D9{slash}BOOT-Pad10)_1*%
X127460000Y-90000000D03*
%TO.P,U2,11,D10_11*%
%TO.N,unconnected-(U2-D10-Pad11)*%
X130000000Y-90000000D03*
%TO.P,U2,12,3V3_OUT_12*%
%TO.N,+3.3V*%
X132540000Y-90000000D03*
%TO.P,U2,13,GND_13*%
%TO.N,GND*%
X135080000Y-90000000D03*
%TO.P,U2,14,VBUS_14*%
%TO.N,+5V*%
X137620000Y-90000000D03*
%TD*%
D14*
%TO.P,SW1,1,1_1*%
%TO.N,/GPIO2*%
X68120000Y-90420000D03*
%TO.P,SW1,2,2_2*%
%TO.N,GND*%
X61770000Y-92960000D03*
%TD*%
D11*
%TO.P,J1,1,Pin_1_1*%
%TO.N,GND*%
X87751000Y-138134000D03*
D15*
%TO.P,J1,2,Pin_2_2*%
%TO.N,+3.3V*%
X87751000Y-135594000D03*
%TO.P,J1,3,Pin_3_3*%
%TO.N,/SCL*%
X87751000Y-133054000D03*
%TO.P,J1,4,Pin_4_4*%
%TO.N,/SDA*%
X87751000Y-130514000D03*
%TD*%
D14*
%TO.P,SW2,1,1_1*%
%TO.N,/GPIO3*%
X86040000Y-65420000D03*
%TO.P,SW2,2,2_2*%
%TO.N,GND*%
X79690000Y-67960000D03*
%TD*%
D16*
%TO.P,U1,1,VDD_1*%
%TO.N,+3.3V*%
X129000000Y-114880000D03*
D17*
%TO.P,U1,2,DATA_2*%
%TO.N,/DHT11 DATA*%
X129000000Y-117420000D03*
%TO.P,U1,3,NC_3*%
%TO.N,unconnected-(U1-NC-Pad3)*%
X129000000Y-119960000D03*
%TO.P,U1,4,GND_4*%
%TO.N,GND*%
X129000000Y-122500000D03*
%TD*%
%TO.N,+3.3V*%
D18*
X127000000Y-71000000D02*
X114000000Y-71000000D01*
X69023654Y-127770000D02*
X67950000Y-126696346D01*
X69976346Y-115070000D02*
X71000000Y-114046346D01*
X71000000Y-112880000D02*
X69500000Y-111380000D01*
X132540000Y-90000000D02*
X132500000Y-90000000D01*
X114000000Y-71000000D02*
X110500000Y-67500000D01*
X132540000Y-90000000D02*
X129040000Y-86500000D01*
X69023654Y-115070000D02*
X69976346Y-115070000D01*
X129000000Y-86500000D02*
X128938000Y-86438000D01*
X129040000Y-86500000D02*
X129000000Y-86500000D01*
X132540000Y-90000000D02*
X132540000Y-89540000D01*
X69736346Y-127770000D02*
X69023654Y-127770000D01*
X128938000Y-72938000D02*
X127000000Y-71000000D01*
X87751000Y-135594000D02*
X77560346Y-135594000D01*
X67950000Y-126696346D02*
X67950000Y-116143654D01*
X71000000Y-114046346D02*
X71000000Y-112880000D01*
X132540000Y-110960000D02*
X132540000Y-90000000D01*
X77560346Y-135594000D02*
X69736346Y-127770000D01*
X129000000Y-114880000D02*
X129000000Y-114500000D01*
X132540000Y-89540000D02*
X132500000Y-89500000D01*
X129000000Y-115000000D02*
X107000000Y-137000000D01*
X128938000Y-86438000D02*
X128938000Y-72938000D01*
X129000000Y-114500000D02*
X132540000Y-110960000D01*
X89157000Y-137000000D02*
X87751000Y-135594000D01*
X107000000Y-137000000D02*
X89157000Y-137000000D01*
X67950000Y-116143654D02*
X69023654Y-115070000D01*
X129000000Y-114880000D02*
X129000000Y-115000000D01*
%TO.N,/DHT11 DATA*%
X134018000Y-112402000D02*
X129000000Y-117420000D01*
X135080000Y-74760000D02*
X134018000Y-75822000D01*
X134018000Y-75822000D02*
X134018000Y-112402000D01*
X127820000Y-67500000D02*
X118120000Y-67500000D01*
X135080000Y-74760000D02*
X127820000Y-67500000D01*
%TO.N,GND*%
X72634000Y-138134000D02*
X62500000Y-128000000D01*
X62500000Y-118500000D02*
X67080000Y-113920000D01*
X135080000Y-90000000D02*
X135080000Y-116420000D01*
X113366000Y-138134000D02*
X87751000Y-138134000D01*
X87751000Y-138134000D02*
X72634000Y-138134000D01*
X67080000Y-113920000D02*
X69500000Y-113920000D01*
X61770000Y-92960000D02*
X61770000Y-84730000D01*
X61770000Y-84730000D02*
X78540000Y-67960000D01*
X61770000Y-104770000D02*
X61770000Y-92960000D01*
X62500000Y-128000000D02*
X62500000Y-118500000D01*
X62000000Y-105000000D02*
X61770000Y-104770000D01*
X135080000Y-116420000D02*
X129000000Y-122500000D01*
X62000000Y-106420000D02*
X62000000Y-105000000D01*
X69500000Y-113920000D02*
X62000000Y-106420000D01*
X78540000Y-67960000D02*
X79690000Y-67960000D01*
X129000000Y-122500000D02*
X113366000Y-138134000D01*
%TO.N,/SCL*%
X87751000Y-133054000D02*
X82640346Y-133054000D01*
X82640346Y-133054000D02*
X69736346Y-120150000D01*
X69023654Y-120150000D02*
X68350000Y-119476346D01*
X123442000Y-106256486D02*
X96644486Y-133054000D01*
X68350000Y-117610000D02*
X69500000Y-116460000D01*
X123442000Y-78778000D02*
X123442000Y-106256486D01*
X127460000Y-74760000D02*
X123442000Y-78778000D01*
X96644486Y-133054000D02*
X87751000Y-133054000D01*
X68350000Y-119476346D02*
X68350000Y-117610000D01*
X69736346Y-120150000D02*
X69023654Y-120150000D01*
%TO.N,/SDA*%
X70890000Y-120390000D02*
X69500000Y-119000000D01*
X77627000Y-120390000D02*
X70890000Y-120390000D01*
X124920000Y-74760000D02*
X120600000Y-79080000D01*
X120600000Y-79080000D02*
X120600000Y-108532800D01*
X98618800Y-130514000D02*
X87751000Y-130514000D01*
X87751000Y-130514000D02*
X77627000Y-120390000D01*
X120600000Y-108532800D02*
X98618800Y-130514000D01*
%TO.N,/GPIO2*%
X81150000Y-77350000D02*
X80500000Y-78000000D01*
X117500000Y-68500000D02*
X113000000Y-64000000D01*
X85000000Y-64000000D02*
X81150000Y-67850000D01*
X80500000Y-78000000D02*
X80500000Y-78040000D01*
X113000000Y-64000000D02*
X85000000Y-64000000D01*
X132540000Y-73540000D02*
X127500000Y-68500000D01*
X127500000Y-68500000D02*
X117500000Y-68500000D01*
X81150000Y-67850000D02*
X81150000Y-77350000D01*
X132540000Y-74760000D02*
X132540000Y-73540000D01*
X80500000Y-78040000D02*
X68120000Y-90420000D01*
%TO.N,/GPIO3*%
X109834214Y-65420000D02*
X86040000Y-65420000D01*
X115014214Y-70600000D02*
X109834214Y-65420000D01*
X130000000Y-73434315D02*
X127165685Y-70600000D01*
X130000000Y-74760000D02*
X130000000Y-73434315D01*
X127165685Y-70600000D02*
X115014214Y-70600000D01*
%TD*%
%TA.AperFunction,Conductor*%
%TO.N,+5V*%
G36*
X100695952Y-50505417D02*
G01*
X102080386Y-50544260D01*
X102083735Y-50544401D01*
X103466583Y-50622060D01*
X103470036Y-50622303D01*
X104850124Y-50738712D01*
X104853470Y-50739042D01*
X106193980Y-50890080D01*
X106229760Y-50894112D01*
X106233213Y-50894550D01*
X107604545Y-51088150D01*
X107607935Y-51088677D01*
X108973367Y-51320673D01*
X108976768Y-51321301D01*
X110335101Y-51591490D01*
X110338440Y-51592203D01*
X111688689Y-51900388D01*
X111692063Y-51901207D01*
X113033165Y-52247149D01*
X113036411Y-52248035D01*
X114367349Y-52631472D01*
X114370558Y-52632445D01*
X115690146Y-53053035D01*
X115693377Y-53054115D01*
X117000664Y-53511555D01*
X117003930Y-53512750D01*
X118297789Y-54006642D01*
X118301021Y-54007928D01*
X119580537Y-54537921D01*
X119583731Y-54539297D01*
X120847879Y-55104966D01*
X120851003Y-55106417D01*
X121523320Y-55430188D01*
X122098812Y-55707330D01*
X122101924Y-55708883D01*
X123332385Y-56344554D01*
X123335379Y-56346153D01*
X124270829Y-56863159D01*
X124547556Y-57016101D01*
X124550576Y-57017826D01*
X125743427Y-57721471D01*
X125746398Y-57723280D01*
X126829579Y-58403887D01*
X126919066Y-58460115D01*
X126921975Y-58462000D01*
X128073523Y-59231441D01*
X128076343Y-59233383D01*
X129205920Y-60034859D01*
X129208668Y-60036869D01*
X129904624Y-60560630D01*
X130315241Y-60869651D01*
X130317991Y-60871781D01*
X131400790Y-61735285D01*
X131403478Y-61737491D01*
X132461613Y-62631006D01*
X132464239Y-62633287D01*
X133399807Y-63469361D01*
X133496909Y-63556136D01*
X133499470Y-63558490D01*
X134505866Y-64509954D01*
X134508359Y-64512379D01*
X135487620Y-65491640D01*
X135490045Y-65494133D01*
X136415709Y-66473240D01*
X136441509Y-66500529D01*
X136443863Y-66503090D01*
X137366712Y-67535760D01*
X137368993Y-67538386D01*
X138262508Y-68596521D01*
X138264714Y-68599209D01*
X139128218Y-69682008D01*
X139130348Y-69684758D01*
X139963108Y-70791301D01*
X139965148Y-70794092D01*
X140761793Y-71916858D01*
X140766601Y-71923634D01*
X140768568Y-71926491D01*
X140891060Y-72109813D01*
X141537992Y-73078014D01*
X141539884Y-73080933D01*
X142276719Y-74253601D01*
X142278528Y-74256572D01*
X142982173Y-75449423D01*
X142983898Y-75452443D01*
X143653826Y-76664584D01*
X143655465Y-76667651D01*
X144291116Y-77898075D01*
X144292669Y-77901187D01*
X144893575Y-79148981D01*
X144895040Y-79152136D01*
X145460702Y-80416268D01*
X145462078Y-80419462D01*
X145992071Y-81698978D01*
X145993357Y-81702210D01*
X146487249Y-82996069D01*
X146488444Y-82999335D01*
X146945873Y-84306589D01*
X146946975Y-84309888D01*
X147367535Y-85629381D01*
X147368541Y-85632695D01*
X147706771Y-86806716D01*
X147751949Y-86963533D01*
X147752865Y-86966889D01*
X148098790Y-88307931D01*
X148099611Y-88311310D01*
X148407789Y-89661528D01*
X148408515Y-89664930D01*
X148678696Y-91023222D01*
X148679327Y-91026642D01*
X148911318Y-92392041D01*
X148911852Y-92395478D01*
X149105449Y-93766789D01*
X149105887Y-93770239D01*
X149260951Y-95146471D01*
X149261292Y-95149933D01*
X149377695Y-96529955D01*
X149377939Y-96533424D01*
X149455595Y-97916202D01*
X149455741Y-97919677D01*
X149494583Y-99304047D01*
X149494632Y-99307525D01*
X149494632Y-100692474D01*
X149494583Y-100695952D01*
X149455741Y-102080322D01*
X149455595Y-102083797D01*
X149377939Y-103466575D01*
X149377695Y-103470044D01*
X149261292Y-104850066D01*
X149260951Y-104853528D01*
X149105887Y-106229760D01*
X149105449Y-106233210D01*
X148911852Y-107604521D01*
X148911318Y-107607958D01*
X148679327Y-108973357D01*
X148678696Y-108976777D01*
X148408515Y-110335069D01*
X148407789Y-110338471D01*
X148099611Y-111688689D01*
X148098790Y-111692068D01*
X147752865Y-113033110D01*
X147751949Y-113036466D01*
X147368545Y-114367290D01*
X147367535Y-114370618D01*
X146946975Y-115690111D01*
X146945873Y-115693410D01*
X146488444Y-117000664D01*
X146487249Y-117003930D01*
X145993357Y-118297789D01*
X145992071Y-118301021D01*
X145462078Y-119580537D01*
X145460702Y-119583731D01*
X144895040Y-120847863D01*
X144893575Y-120851018D01*
X144292669Y-122098812D01*
X144291116Y-122101924D01*
X143655465Y-123332348D01*
X143653826Y-123335415D01*
X142983898Y-124547556D01*
X142982173Y-124550576D01*
X142278528Y-125743427D01*
X142276719Y-125746398D01*
X141539884Y-126919066D01*
X141537992Y-126921985D01*
X140768573Y-128073501D01*
X140766601Y-128076365D01*
X139965161Y-129205890D01*
X139963108Y-129208698D01*
X139130348Y-130315241D01*
X139128218Y-130317991D01*
X138264714Y-131400790D01*
X138262508Y-131403478D01*
X137368993Y-132461613D01*
X137366712Y-132464239D01*
X136443863Y-133496909D01*
X136441509Y-133499470D01*
X135490045Y-134505866D01*
X135487620Y-134508359D01*
X134508359Y-135487620D01*
X134505866Y-135490045D01*
X133499470Y-136441509D01*
X133496909Y-136443863D01*
X132464239Y-137366712D01*
X132461613Y-137368993D01*
X131403478Y-138262508D01*
X131400790Y-138264714D01*
X130317991Y-139128218D01*
X130315241Y-139130348D01*
X129208698Y-139963108D01*
X129205890Y-139965161D01*
X128076365Y-140766601D01*
X128073501Y-140768573D01*
X126921985Y-141537992D01*
X126919066Y-141539884D01*
X125746398Y-142276719D01*
X125743427Y-142278528D01*
X124550576Y-142982173D01*
X124547556Y-142983898D01*
X123335415Y-143653826D01*
X123332348Y-143655465D01*
X122101924Y-144291116D01*
X122098812Y-144292669D01*
X120851018Y-144893575D01*
X120847863Y-144895040D01*
X119583731Y-145460702D01*
X119580537Y-145462078D01*
X118301021Y-145992071D01*
X118297789Y-145993357D01*
X117003930Y-146487249D01*
X117000664Y-146488444D01*
X115693410Y-146945873D01*
X115690111Y-146946975D01*
X114370618Y-147367535D01*
X114367290Y-147368545D01*
X113036466Y-147751949D01*
X113033110Y-147752865D01*
X112548984Y-147877746D01*
X112479153Y-147875430D01*
X112421659Y-147835728D01*
X112394757Y-147771245D01*
X112406987Y-147702454D01*
X112454467Y-147651196D01*
X112455950Y-147650324D01*
X112585965Y-147575261D01*
X112788813Y-147419610D01*
X112969610Y-147238813D01*
X113125261Y-147035965D01*
X113253104Y-146814535D01*
X113350950Y-146578313D01*
X113417126Y-146331340D01*
X113450500Y-146077843D01*
X113450500Y-144922157D01*
X113417126Y-144668660D01*
X113350950Y-144421687D01*
X113253104Y-144185465D01*
X113253102Y-144185462D01*
X113253100Y-144185457D01*
X113125265Y-143964042D01*
X113125261Y-143964035D01*
X112969610Y-143761187D01*
X112969605Y-143761181D01*
X112788818Y-143580394D01*
X112788811Y-143580388D01*
X112585973Y-143424745D01*
X112585971Y-143424743D01*
X112585965Y-143424739D01*
X112585960Y-143424736D01*
X112585957Y-143424734D01*
X112364542Y-143296899D01*
X112364531Y-143296894D01*
X112128322Y-143199053D01*
X112128315Y-143199051D01*
X112128313Y-143199050D01*
X111881340Y-143132874D01*
X111825007Y-143125457D01*
X111627850Y-143099500D01*
X111627843Y-143099500D01*
X111372157Y-143099500D01*
X111372149Y-143099500D01*
X111146826Y-143129165D01*
X111118660Y-143132874D01*
X110871687Y-143199050D01*
X110871677Y-143199053D01*
X110635468Y-143296894D01*
X110635457Y-143296899D01*
X110414042Y-143424734D01*
X110414026Y-143424745D01*
X110211188Y-143580388D01*
X110211181Y-143580394D01*
X110030394Y-143761181D01*
X110030388Y-143761188D01*
X109874745Y-143964026D01*
X109874734Y-143964042D01*
X109746899Y-144185457D01*
X109746894Y-144185468D01*
X109649053Y-144421677D01*
X109649050Y-144421687D01*
X109582874Y-144668661D01*
X109549500Y-144922149D01*
X109549500Y-146077850D01*
X109575457Y-146275007D01*
X109582874Y-146331340D01*
X109624650Y-146487249D01*
X109649050Y-146578312D01*
X109649053Y-146578322D01*
X109746894Y-146814531D01*
X109746899Y-146814542D01*
X109874734Y-147035957D01*
X109874745Y-147035973D01*
X110030388Y-147238811D01*
X110030394Y-147238818D01*
X110211181Y-147419605D01*
X110211188Y-147419611D01*
X110355638Y-147530452D01*
X110414035Y-147575261D01*
X110414042Y-147575265D01*
X110635457Y-147703100D01*
X110635462Y-147703102D01*
X110635465Y-147703104D01*
X110753388Y-147751949D01*
X110799972Y-147771245D01*
X110871687Y-147800950D01*
X111118660Y-147867126D01*
X111372157Y-147900500D01*
X111372164Y-147900500D01*
X111460524Y-147900500D01*
X111527563Y-147920185D01*
X111573318Y-147972989D01*
X111583262Y-148042147D01*
X111554237Y-148105703D01*
X111495459Y-148143477D01*
X111488116Y-148145391D01*
X110338470Y-148407789D01*
X110335069Y-148408515D01*
X108976777Y-148678696D01*
X108973357Y-148679327D01*
X107607958Y-148911318D01*
X107604521Y-148911852D01*
X106233210Y-149105449D01*
X106229760Y-149105887D01*
X104853528Y-149260951D01*
X104850066Y-149261292D01*
X103470044Y-149377695D01*
X103466575Y-149377939D01*
X102083797Y-149455595D01*
X102080322Y-149455741D01*
X100695952Y-149494583D01*
X100692474Y-149494632D01*
X99307526Y-149494632D01*
X99304048Y-149494583D01*
X97919677Y-149455741D01*
X97916202Y-149455595D01*
X96533424Y-149377939D01*
X96529955Y-149377695D01*
X95149933Y-149261292D01*
X95146471Y-149260951D01*
X93770239Y-149105887D01*
X93766789Y-149105449D01*
X92395478Y-148911852D01*
X92392041Y-148911318D01*
X91026642Y-148679327D01*
X91023222Y-148678696D01*
X89664930Y-148408515D01*
X89661528Y-148407789D01*
X88505479Y-148143929D01*
X88444501Y-148109820D01*
X88411643Y-148048159D01*
X88417338Y-147978522D01*
X88459778Y-147923018D01*
X88516886Y-147900099D01*
X88767340Y-147867126D01*
X89014313Y-147800950D01*
X89250535Y-147703104D01*
X89471965Y-147575261D01*
X89674813Y-147419610D01*
X89855610Y-147238813D01*
X90011261Y-147035965D01*
X90139104Y-146814535D01*
X90236950Y-146578313D01*
X90303126Y-146331340D01*
X90336500Y-146077843D01*
X90336500Y-144922157D01*
X90303126Y-144668660D01*
X90236950Y-144421687D01*
X90139104Y-144185465D01*
X90139102Y-144185462D01*
X90139100Y-144185457D01*
X90011265Y-143964042D01*
X90011261Y-143964035D01*
X89855610Y-143761187D01*
X89855605Y-143761181D01*
X89674818Y-143580394D01*
X89674811Y-143580388D01*
X89471973Y-143424745D01*
X89471971Y-143424743D01*
X89471965Y-143424739D01*
X89471960Y-143424736D01*
X89471957Y-143424734D01*
X89250542Y-143296899D01*
X89250531Y-143296894D01*
X89014322Y-143199053D01*
X89014315Y-143199051D01*
X89014313Y-143199050D01*
X88767340Y-143132874D01*
X88711007Y-143125457D01*
X88513850Y-143099500D01*
X88513843Y-143099500D01*
X88258157Y-143099500D01*
X88258149Y-143099500D01*
X88032826Y-143129165D01*
X88004660Y-143132874D01*
X87757687Y-143199050D01*
X87757677Y-143199053D01*
X87521468Y-143296894D01*
X87521457Y-143296899D01*
X87300042Y-143424734D01*
X87300026Y-143424745D01*
X87097188Y-143580388D01*
X87097181Y-143580394D01*
X86916394Y-143761181D01*
X86916388Y-143761188D01*
X86760745Y-143964026D01*
X86760734Y-143964042D01*
X86632899Y-144185457D01*
X86632894Y-144185468D01*
X86535053Y-144421677D01*
X86535050Y-144421687D01*
X86468874Y-144668661D01*
X86435500Y-144922149D01*
X86435500Y-146077850D01*
X86461457Y-146275007D01*
X86468874Y-146331340D01*
X86510650Y-146487249D01*
X86535050Y-146578312D01*
X86535053Y-146578322D01*
X86632894Y-146814531D01*
X86632899Y-146814542D01*
X86760734Y-147035957D01*
X86760745Y-147035973D01*
X86916388Y-147238811D01*
X86916394Y-147238818D01*
X87097181Y-147419605D01*
X87097188Y-147419611D01*
X87241638Y-147530452D01*
X87300035Y-147575261D01*
X87300046Y-147575267D01*
X87300047Y-147575268D01*
X87337920Y-147597135D01*
X87386135Y-147647702D01*
X87399357Y-147716310D01*
X87373389Y-147781174D01*
X87316474Y-147821702D01*
X87246683Y-147825025D01*
X87244972Y-147824597D01*
X86966882Y-147752863D01*
X86963533Y-147751949D01*
X85632695Y-147368541D01*
X85629396Y-147367539D01*
X84309888Y-146946975D01*
X84306589Y-146945873D01*
X82999335Y-146488444D01*
X82996069Y-146487249D01*
X81702210Y-145993357D01*
X81698978Y-145992071D01*
X80419462Y-145462078D01*
X80416268Y-145460702D01*
X79152136Y-144895040D01*
X79148981Y-144893575D01*
X77901187Y-144292669D01*
X77898075Y-144291116D01*
X76667651Y-143655465D01*
X76664584Y-143653826D01*
X75452443Y-142983898D01*
X75449423Y-142982173D01*
X74256572Y-142278528D01*
X74253601Y-142276719D01*
X73080933Y-141539884D01*
X73078014Y-141537992D01*
X71926498Y-140768573D01*
X71923634Y-140766601D01*
X70794092Y-139965148D01*
X70791318Y-139963120D01*
X70155343Y-139484500D01*
X69684758Y-139130348D01*
X69682008Y-139128218D01*
X68599209Y-138264714D01*
X68596521Y-138262508D01*
X67538386Y-137368993D01*
X67535760Y-137366712D01*
X66503090Y-136443863D01*
X66500529Y-136441509D01*
X66195973Y-136153577D01*
X65494133Y-135490045D01*
X65491640Y-135487620D01*
X64512379Y-134508359D01*
X64509954Y-134505866D01*
X64338015Y-134324000D01*
X63558485Y-133499465D01*
X63556136Y-133496909D01*
X63489830Y-133422713D01*
X62633287Y-132464239D01*
X62631006Y-132461613D01*
X61737491Y-131403478D01*
X61735285Y-131400790D01*
X60871781Y-130317991D01*
X60869651Y-130315241D01*
X60486546Y-129806184D01*
X60036869Y-129208668D01*
X60034859Y-129205920D01*
X59233383Y-128076343D01*
X59231426Y-128073501D01*
X59129487Y-127920939D01*
X58462000Y-126921975D01*
X58460115Y-126919066D01*
X58338983Y-126726286D01*
X57723280Y-125746398D01*
X57721471Y-125743427D01*
X57017826Y-124550576D01*
X57016101Y-124547556D01*
X56969115Y-124462542D01*
X56346153Y-123335379D01*
X56344554Y-123332385D01*
X55863687Y-122401577D01*
X55708883Y-122101924D01*
X55707330Y-122098812D01*
X55288156Y-121228388D01*
X55106417Y-120851003D01*
X55104959Y-120847863D01*
X55074983Y-120780874D01*
X54656235Y-119845062D01*
X54539297Y-119583731D01*
X54537921Y-119580537D01*
X54007928Y-118301021D01*
X54006642Y-118297789D01*
X54004502Y-118292184D01*
X53512749Y-117003928D01*
X53511555Y-117000664D01*
X53395974Y-116670354D01*
X53054115Y-115693377D01*
X53053035Y-115690146D01*
X52632445Y-114370558D01*
X52631472Y-114367349D01*
X52248035Y-113036411D01*
X52247149Y-113033165D01*
X51901207Y-111692063D01*
X51900388Y-111688689D01*
X51843745Y-111440520D01*
X51592203Y-110338440D01*
X51591484Y-110335069D01*
X51580272Y-110278704D01*
X51321301Y-108976768D01*
X51320672Y-108973357D01*
X51206220Y-108299741D01*
X51088677Y-107607935D01*
X51088147Y-107604521D01*
X51068530Y-107465570D01*
X50894550Y-106233210D01*
X50894112Y-106229760D01*
X50870864Y-106023427D01*
X50739042Y-104853470D01*
X50738712Y-104850124D01*
X50622303Y-103470036D01*
X50622060Y-103466575D01*
X50593967Y-102966330D01*
X50544401Y-102083735D01*
X50544260Y-102080386D01*
X50505417Y-100695952D01*
X50505368Y-100692474D01*
X50505368Y-99307525D01*
X50505417Y-99304047D01*
X50505764Y-99291686D01*
X50544260Y-97919610D01*
X50544401Y-97916267D01*
X50622060Y-96533411D01*
X50622304Y-96529955D01*
X50716485Y-95413389D01*
X59399500Y-95413389D01*
X59399500Y-95586611D01*
X59426598Y-95757701D01*
X59480127Y-95922445D01*
X59558768Y-96076788D01*
X59660586Y-96216928D01*
X59783072Y-96339414D01*
X59923212Y-96441232D01*
X60077555Y-96519873D01*
X60242299Y-96573402D01*
X60413389Y-96600500D01*
X60413390Y-96600500D01*
X60586610Y-96600500D01*
X60586611Y-96600500D01*
X60757701Y-96573402D01*
X60922445Y-96519873D01*
X60989206Y-96485856D01*
X61057874Y-96472961D01*
X61122615Y-96499237D01*
X61162872Y-96556344D01*
X61169500Y-96596342D01*
X61169500Y-104683330D01*
X61169499Y-104683348D01*
X61169499Y-104849054D01*
X61169498Y-104849054D01*
X61210423Y-105001785D01*
X61239358Y-105051900D01*
X61239359Y-105051904D01*
X61239360Y-105051904D01*
X61289479Y-105138714D01*
X61289481Y-105138717D01*
X61363181Y-105212417D01*
X61396666Y-105273740D01*
X61399500Y-105300098D01*
X61399500Y-106333330D01*
X61399499Y-106333348D01*
X61399499Y-106499054D01*
X61399498Y-106499054D01*
X61440423Y-106651785D01*
X61469358Y-106701900D01*
X61469359Y-106701904D01*
X61469360Y-106701904D01*
X61519479Y-106788714D01*
X61519481Y-106788717D01*
X61638349Y-106907585D01*
X61638355Y-106907590D01*
X67838583Y-113107819D01*
X67872068Y-113169142D01*
X67867084Y-113238834D01*
X67825212Y-113294767D01*
X67759748Y-113319184D01*
X67750902Y-113319500D01*
X67159057Y-113319500D01*
X67000943Y-113319500D01*
X66848215Y-113360423D01*
X66848214Y-113360423D01*
X66848212Y-113360424D01*
X66848209Y-113360425D01*
X66798096Y-113389359D01*
X66798095Y-113389360D01*
X66754689Y-113414420D01*
X66711285Y-113439479D01*
X66711282Y-113439481D01*
X62019482Y-118131281D01*
X62019478Y-118131287D01*
X61969407Y-118218013D01*
X61940424Y-118268212D01*
X61940423Y-118268213D01*
X61919961Y-118344579D01*
X61899499Y-118420943D01*
X61899499Y-118420945D01*
X61899499Y-118589046D01*
X61899500Y-118589059D01*
X61899500Y-127913330D01*
X61899499Y-127913348D01*
X61899499Y-128079054D01*
X61899498Y-128079054D01*
X61940423Y-128231786D01*
X61951238Y-128250516D01*
X61951239Y-128250521D01*
X61951240Y-128250521D01*
X62019475Y-128368709D01*
X62019481Y-128368717D01*
X62138349Y-128487585D01*
X62138355Y-128487590D01*
X72149139Y-138498374D01*
X72149149Y-138498385D01*
X72153479Y-138502715D01*
X72153480Y-138502716D01*
X72265284Y-138614520D01*
X72352095Y-138664639D01*
X72352097Y-138664641D01*
X72402213Y-138693576D01*
X72402215Y-138693577D01*
X72554942Y-138734500D01*
X72554943Y-138734500D01*
X86276501Y-138734500D01*
X86343540Y-138754185D01*
X86389295Y-138806989D01*
X86400501Y-138858500D01*
X86400501Y-139031876D01*
X86406908Y-139091483D01*
X86457202Y-139226328D01*
X86457206Y-139226335D01*
X86543452Y-139341544D01*
X86543455Y-139341547D01*
X86658664Y-139427793D01*
X86658671Y-139427797D01*
X86793517Y-139478091D01*
X86793516Y-139478091D01*
X86800444Y-139478835D01*
X86853127Y-139484500D01*
X88648872Y-139484499D01*
X88708483Y-139478091D01*
X88843331Y-139427796D01*
X88958546Y-139341546D01*
X89044796Y-139226331D01*
X89095091Y-139091483D01*
X89101500Y-139031873D01*
X89101500Y-138858500D01*
X89121185Y-138791461D01*
X89173989Y-138745706D01*
X89225500Y-138734500D01*
X113279331Y-138734500D01*
X113279347Y-138734501D01*
X113286943Y-138734501D01*
X113445054Y-138734501D01*
X113445057Y-138734501D01*
X113597785Y-138693577D01*
X113647904Y-138664639D01*
X113734716Y-138614520D01*
X113846520Y-138502716D01*
X113846520Y-138502714D01*
X113856728Y-138492507D01*
X113856730Y-138492504D01*
X128595468Y-123753765D01*
X128656789Y-123720282D01*
X128702546Y-123718975D01*
X128707168Y-123719707D01*
X128707174Y-123719709D01*
X128824642Y-123738313D01*
X128901579Y-123750500D01*
X128901583Y-123750500D01*
X129098422Y-123750500D01*
X129292826Y-123719709D01*
X129295085Y-123718975D01*
X129480025Y-123658884D01*
X129655405Y-123569524D01*
X129814646Y-123453828D01*
X129953828Y-123314646D01*
X130069524Y-123155405D01*
X130158884Y-122980025D01*
X130219709Y-122792826D01*
X130219910Y-122791557D01*
X130250500Y-122598422D01*
X130250500Y-122401578D01*
X130226146Y-122247817D01*
X130219709Y-122207174D01*
X130219707Y-122207168D01*
X130218975Y-122202546D01*
X130227929Y-122133252D01*
X130253764Y-122095469D01*
X135438506Y-116910728D01*
X135438511Y-116910724D01*
X135448714Y-116900520D01*
X135448716Y-116900520D01*
X135560520Y-116788716D01*
X135639577Y-116651784D01*
X135680500Y-116499057D01*
X135680500Y-91186730D01*
X135700185Y-91119691D01*
X135737866Y-91082808D01*
X135737752Y-91082651D01*
X135738823Y-91081872D01*
X135739715Y-91081000D01*
X135741690Y-91079789D01*
X135741689Y-91079789D01*
X135741694Y-91079787D01*
X135902464Y-90962981D01*
X136042981Y-90822464D01*
X136159787Y-90661694D01*
X136239796Y-90504667D01*
X136287769Y-90453872D01*
X136355590Y-90437077D01*
X136421725Y-90459614D01*
X136460765Y-90504668D01*
X136540641Y-90661432D01*
X136567730Y-90698715D01*
X136567731Y-90698716D01*
X137182352Y-90084094D01*
X137205792Y-90171571D01*
X137264311Y-90272930D01*
X137347070Y-90355689D01*
X137448429Y-90414208D01*
X137535905Y-90437647D01*
X136921283Y-91052268D01*
X136921283Y-91052269D01*
X136958567Y-91079358D01*
X137135562Y-91169542D01*
X137324477Y-91230924D01*
X137520679Y-91262000D01*
X137719321Y-91262000D01*
X137915520Y-91230924D01*
X137915523Y-91230924D01*
X138104437Y-91169542D01*
X138281425Y-91079362D01*
X138318716Y-91052268D01*
X137704095Y-90437647D01*
X137791571Y-90414208D01*
X137892930Y-90355689D01*
X137975689Y-90272930D01*
X138034208Y-90171571D01*
X138057647Y-90084094D01*
X138672268Y-90698715D01*
X138699362Y-90661425D01*
X138789542Y-90484437D01*
X138850924Y-90295523D01*
X138850924Y-90295520D01*
X138882000Y-90099321D01*
X138882000Y-89900678D01*
X138850924Y-89704479D01*
X138850924Y-89704476D01*
X138789542Y-89515562D01*
X138699358Y-89338567D01*
X138672268Y-89301283D01*
X138057647Y-89915904D01*
X138034208Y-89828429D01*
X137975689Y-89727070D01*
X137892930Y-89644311D01*
X137791571Y-89585792D01*
X137704094Y-89562352D01*
X138318716Y-88947731D01*
X138318715Y-88947730D01*
X138281432Y-88920641D01*
X138104437Y-88830457D01*
X137915522Y-88769075D01*
X137719321Y-88738000D01*
X137520679Y-88738000D01*
X137324479Y-88769075D01*
X137324476Y-88769075D01*
X137135562Y-88830457D01*
X136958564Y-88920643D01*
X136921283Y-88947729D01*
X136921282Y-88947730D01*
X137535906Y-89562352D01*
X137448429Y-89585792D01*
X137347070Y-89644311D01*
X137264311Y-89727070D01*
X137205792Y-89828429D01*
X137182352Y-89915905D01*
X136567730Y-89301282D01*
X136567729Y-89301283D01*
X136540641Y-89338566D01*
X136460764Y-89495332D01*
X136412790Y-89546127D01*
X136344969Y-89562922D01*
X136278834Y-89540384D01*
X136239796Y-89495332D01*
X136159787Y-89338306D01*
X136042981Y-89177536D01*
X135902464Y-89037019D01*
X135741694Y-88920213D01*
X135678159Y-88887840D01*
X135564632Y-88829994D01*
X135564629Y-88829993D01*
X135375637Y-88768587D01*
X135277498Y-88753043D01*
X135179361Y-88737500D01*
X134980639Y-88737500D01*
X134915214Y-88747862D01*
X134784362Y-88768587D01*
X134780807Y-88769742D01*
X134710966Y-88771730D01*
X134651136Y-88735644D01*
X134620314Y-88672940D01*
X134618500Y-88651807D01*
X134618500Y-76122097D01*
X134638185Y-76055058D01*
X134654819Y-76034416D01*
X134665473Y-76023762D01*
X134726796Y-75990277D01*
X134779521Y-75990843D01*
X134779552Y-75990651D01*
X134780856Y-75990857D01*
X134782109Y-75990871D01*
X134784355Y-75991410D01*
X134784364Y-75991413D01*
X134980639Y-76022500D01*
X134980640Y-76022500D01*
X135179360Y-76022500D01*
X135179361Y-76022500D01*
X135375636Y-75991413D01*
X135564632Y-75930005D01*
X135741694Y-75839787D01*
X135902464Y-75722981D01*
X136042981Y-75582464D01*
X136159787Y-75421694D01*
X136239515Y-75265218D01*
X136287490Y-75214423D01*
X136355311Y-75197628D01*
X136421446Y-75220165D01*
X136460484Y-75265218D01*
X136540213Y-75421694D01*
X136657019Y-75582464D01*
X136797536Y-75722981D01*
X136958306Y-75839787D01*
X137014637Y-75868489D01*
X137135367Y-75930005D01*
X137135370Y-75930006D01*
X137229866Y-75960709D01*
X137324364Y-75991413D01*
X137520639Y-76022500D01*
X137520640Y-76022500D01*
X137719360Y-76022500D01*
X137719361Y-76022500D01*
X137915636Y-75991413D01*
X138104632Y-75930005D01*
X138281694Y-75839787D01*
X138442464Y-75722981D01*
X138582981Y-75582464D01*
X138699787Y-75421694D01*
X138790005Y-75244632D01*
X138851413Y-75055636D01*
X138882500Y-74859361D01*
X138882500Y-74660639D01*
X138851413Y-74464364D01*
X138790005Y-74275368D01*
X138790005Y-74275367D01*
X138699786Y-74098305D01*
X138582981Y-73937536D01*
X138442464Y-73797019D01*
X138281694Y-73680213D01*
X138243359Y-73660680D01*
X138104632Y-73589994D01*
X138104629Y-73589993D01*
X137915637Y-73528587D01*
X137817498Y-73513043D01*
X137719361Y-73497500D01*
X137520639Y-73497500D01*
X137455214Y-73507862D01*
X137324362Y-73528587D01*
X137135370Y-73589993D01*
X137135367Y-73589994D01*
X136958305Y-73680213D01*
X136797533Y-73797021D01*
X136657021Y-73937533D01*
X136540213Y-74098305D01*
X136460485Y-74254780D01*
X136412510Y-74305576D01*
X136344689Y-74322371D01*
X136278554Y-74299833D01*
X136239515Y-74254780D01*
X136159786Y-74098305D01*
X136042981Y-73937536D01*
X135902464Y-73797019D01*
X135741694Y-73680213D01*
X135703359Y-73660680D01*
X135564632Y-73589994D01*
X135564629Y-73589993D01*
X135375637Y-73528587D01*
X135277498Y-73513043D01*
X135179361Y-73497500D01*
X134980639Y-73497500D01*
X134941384Y-73503717D01*
X134784360Y-73528587D01*
X134782087Y-73529133D01*
X134781197Y-73529088D01*
X134779552Y-73529349D01*
X134779497Y-73529003D01*
X134712305Y-73525635D01*
X134665472Y-73496237D01*
X128307590Y-67138355D01*
X128307588Y-67138352D01*
X128188717Y-67019481D01*
X128188716Y-67019480D01*
X128081948Y-66957838D01*
X128081947Y-66957837D01*
X128051783Y-66940422D01*
X127995881Y-66925443D01*
X127899057Y-66899499D01*
X127740943Y-66899499D01*
X127733347Y-66899499D01*
X127733331Y-66899500D01*
X119230792Y-66899500D01*
X119163753Y-66879815D01*
X119130474Y-66848386D01*
X119035690Y-66717927D01*
X118902073Y-66584310D01*
X118749199Y-66473240D01*
X118728413Y-66462649D01*
X118580836Y-66387454D01*
X118401118Y-66329059D01*
X118214486Y-66299500D01*
X118214481Y-66299500D01*
X118025519Y-66299500D01*
X118025514Y-66299500D01*
X117838881Y-66329059D01*
X117659163Y-66387454D01*
X117490800Y-66473240D01*
X117449716Y-66503090D01*
X117337927Y-66584310D01*
X117337925Y-66584312D01*
X117337924Y-66584312D01*
X117204312Y-66717924D01*
X117204312Y-66717925D01*
X117204310Y-66717927D01*
X117188851Y-66739205D01*
X117093238Y-66870803D01*
X117044750Y-66965965D01*
X116996775Y-67016760D01*
X116928954Y-67033555D01*
X116862820Y-67011017D01*
X116846585Y-66997350D01*
X113487590Y-63638355D01*
X113487588Y-63638352D01*
X113368717Y-63519481D01*
X113368716Y-63519480D01*
X113281904Y-63469360D01*
X113281904Y-63469359D01*
X113281900Y-63469358D01*
X113231785Y-63440423D01*
X113079057Y-63399499D01*
X112920943Y-63399499D01*
X112913347Y-63399499D01*
X112913331Y-63399500D01*
X85079057Y-63399500D01*
X84920942Y-63399500D01*
X84768215Y-63440423D01*
X84768214Y-63440423D01*
X84768212Y-63440424D01*
X84768209Y-63440425D01*
X84718096Y-63469359D01*
X84718095Y-63469360D01*
X84674689Y-63494420D01*
X84631285Y-63519479D01*
X84631282Y-63519481D01*
X84519478Y-63631286D01*
X81149218Y-67001545D01*
X81087895Y-67035030D01*
X81018203Y-67030046D01*
X80962270Y-66988174D01*
X80961219Y-66986750D01*
X80957106Y-66981089D01*
X80910793Y-66917344D01*
X80732656Y-66739207D01*
X80732654Y-66739205D01*
X80732649Y-66739201D01*
X80528848Y-66591132D01*
X80528847Y-66591131D01*
X80528845Y-66591130D01*
X80458747Y-66555413D01*
X80304383Y-66476760D01*
X80064785Y-66398910D01*
X79992449Y-66387453D01*
X79815962Y-66359500D01*
X79564038Y-66359500D01*
X79439626Y-66379205D01*
X79315214Y-66398910D01*
X79075616Y-66476760D01*
X78851151Y-66591132D01*
X78647350Y-66739201D01*
X78647345Y-66739205D01*
X78469205Y-66917345D01*
X78469201Y-66917350D01*
X78321132Y-67121151D01*
X78206761Y-67345615D01*
X78168605Y-67463045D01*
X78138356Y-67512405D01*
X78059480Y-67591283D01*
X78059478Y-67591286D01*
X61289481Y-84361282D01*
X61289479Y-84361285D01*
X61239361Y-84448094D01*
X61239359Y-84448096D01*
X61210425Y-84498209D01*
X61210424Y-84498210D01*
X61210423Y-84498215D01*
X61169499Y-84650943D01*
X61169499Y-84650945D01*
X61169499Y-84819046D01*
X61169500Y-84819059D01*
X61169500Y-91393699D01*
X61149815Y-91460738D01*
X61101795Y-91504184D01*
X60931151Y-91591132D01*
X60727350Y-91739201D01*
X60727345Y-91739205D01*
X60549205Y-91917345D01*
X60549201Y-91917350D01*
X60401132Y-92121151D01*
X60286760Y-92345616D01*
X60208910Y-92585214D01*
X60169500Y-92834038D01*
X60169500Y-93085961D01*
X60208910Y-93334785D01*
X60286760Y-93574383D01*
X60401132Y-93798848D01*
X60549201Y-94002649D01*
X60549205Y-94002654D01*
X60549207Y-94002656D01*
X60727344Y-94180793D01*
X60727345Y-94180794D01*
X60727344Y-94180794D01*
X60733661Y-94185383D01*
X60776327Y-94240714D01*
X60782305Y-94310327D01*
X60749699Y-94372122D01*
X60688860Y-94406479D01*
X60641378Y-94408174D01*
X60586611Y-94399500D01*
X60413389Y-94399500D01*
X60373728Y-94405781D01*
X60242302Y-94426597D01*
X60077552Y-94480128D01*
X59923211Y-94558768D01*
X59863407Y-94602219D01*
X59783072Y-94660586D01*
X59783070Y-94660588D01*
X59783069Y-94660588D01*
X59660588Y-94783069D01*
X59660588Y-94783070D01*
X59660586Y-94783072D01*
X59616859Y-94843256D01*
X59558768Y-94923211D01*
X59480128Y-95077552D01*
X59426597Y-95242302D01*
X59409146Y-95352486D01*
X59399500Y-95413389D01*
X50716485Y-95413389D01*
X50738713Y-95149868D01*
X50739041Y-95146536D01*
X50894112Y-93770232D01*
X50894550Y-93766789D01*
X50951363Y-93364364D01*
X51088152Y-92395443D01*
X51088675Y-92392075D01*
X51320676Y-91026619D01*
X51321303Y-91023222D01*
X51333286Y-90962981D01*
X51591493Y-89664883D01*
X51592200Y-89661573D01*
X51900392Y-88311289D01*
X51901209Y-88307931D01*
X52247153Y-86966816D01*
X52248029Y-86963606D01*
X52631477Y-85632630D01*
X52632439Y-85629461D01*
X53053042Y-84309832D01*
X53054107Y-84306643D01*
X53511563Y-82999310D01*
X53512750Y-82996069D01*
X53644021Y-82652176D01*
X54006653Y-81702181D01*
X54007928Y-81698978D01*
X54045081Y-81609285D01*
X54537927Y-80419446D01*
X54539297Y-80416268D01*
X54775402Y-79888625D01*
X55104979Y-79152092D01*
X55106404Y-79149023D01*
X55707337Y-77901171D01*
X55708883Y-77898075D01*
X55743783Y-77830520D01*
X56344569Y-76667584D01*
X56346137Y-76664649D01*
X57016118Y-75452411D01*
X57017807Y-75449454D01*
X57721483Y-74256550D01*
X57723280Y-74253601D01*
X58460142Y-73080890D01*
X58461978Y-73078057D01*
X59231464Y-71926442D01*
X59233360Y-71923689D01*
X60034883Y-70794046D01*
X60036843Y-70791365D01*
X60869664Y-69684740D01*
X60871781Y-69682008D01*
X60888865Y-69660586D01*
X61735293Y-68599198D01*
X61737491Y-68596521D01*
X61838200Y-68477258D01*
X62631030Y-67538357D01*
X62633262Y-67535788D01*
X63556173Y-66503049D01*
X63558452Y-66500569D01*
X64509988Y-65494097D01*
X64512343Y-65491676D01*
X65491676Y-64512343D01*
X65494097Y-64509988D01*
X66500569Y-63558452D01*
X66503049Y-63556173D01*
X67535788Y-62633262D01*
X67538357Y-62631030D01*
X68596531Y-61737482D01*
X68599209Y-61735285D01*
X69682025Y-60871767D01*
X69684740Y-60869664D01*
X70791365Y-60036843D01*
X70794046Y-60034883D01*
X71923689Y-59233360D01*
X71926442Y-59231464D01*
X73078057Y-58461978D01*
X73080890Y-58460142D01*
X74253621Y-57723267D01*
X74256550Y-57721483D01*
X75449454Y-57017807D01*
X75452411Y-57016118D01*
X76664649Y-56346137D01*
X76667584Y-56344569D01*
X77898090Y-55708875D01*
X77901171Y-55707337D01*
X79149023Y-55106404D01*
X79152092Y-55104979D01*
X80416284Y-54539290D01*
X80419446Y-54537927D01*
X81699006Y-54007916D01*
X81702181Y-54006653D01*
X82996094Y-53512740D01*
X82999310Y-53511563D01*
X84306643Y-53054107D01*
X84309832Y-53053042D01*
X85629461Y-52632439D01*
X85632630Y-52631477D01*
X86963606Y-52248029D01*
X86966816Y-52247153D01*
X88307952Y-51901203D01*
X88311289Y-51900392D01*
X89661573Y-51592200D01*
X89664883Y-51591493D01*
X91023244Y-51321298D01*
X91026619Y-51320676D01*
X92392075Y-51088675D01*
X92395443Y-51088152D01*
X93766795Y-50894549D01*
X93770232Y-50894112D01*
X95146536Y-50739041D01*
X95149868Y-50738713D01*
X96529968Y-50622303D01*
X96533411Y-50622060D01*
X97916267Y-50544401D01*
X97919610Y-50544260D01*
X99304048Y-50505417D01*
X99307526Y-50505368D01*
X100692474Y-50505368D01*
X100695952Y-50505417D01*
G37*
%TD.AperFunction*%
%TD*%
M02*
