%TF.GenerationSoftware,KiCad,Pcbnew,10.0.6*%
%TF.CreationDate,2026-10-09T20:20:08+02:00*%
%TF.ProjectId,Starbie,53746172-6269-4652-9e6b-696361645f70,rev?*%
%TF.SameCoordinates,Original*%
%TF.FileFunction,Soldermask,Top*%
%TF.FilePolarity,Negative*%
%FSLAX46Y46*%
G04 Gerber Fmt 4.6, Leading zero omitted, Abs format (unit mm)*
G04 Created by KiCad (PCBNEW 10.0.6) date 2026-10-09 20:20:08*
%MOMM*%
%LPD*%
G01*
G04 APERTURE LIST*
G04 Aperture macros list*
%AMRoundRect*
0 Rectangle with rounded corners*
0 $1 Rounding radius*
0 $2 $3 $4 $5 $6 $7 $8 $9 X,Y pos of 4 corners*
0 Add a 4 corners polygon primitive as box body*
4,1,4,$2,$3,$4,$5,$6,$7,$8,$9,$2,$3,0*
0 Add four circle primitives for the rounded corners*
1,1,$1+$1,$2,$3*
1,1,$1+$1,$4,$5*
1,1,$1+$1,$6,$7*
1,1,$1+$1,$8,$9*
0 Add four rect primitives between the rounded corners*
20,1,$1+$1,$2,$3,$4,$5,0*
20,1,$1+$1,$4,$5,$6,$7,0*
20,1,$1+$1,$6,$7,$8,$9,0*
20,1,$1+$1,$8,$9,$2,$3,0*%
G04 Aperture macros list end*
%ADD10C,1.400000*%
%ADD11R,1.700000X1.700000*%
%ADD12C,1.700000*%
%ADD13RoundRect,0.152400X0.609600X-1.063600X0.609600X1.063600X-0.609600X1.063600X-0.609600X-1.063600X0*%
%ADD14C,1.524000*%
%ADD15RoundRect,0.152400X-0.609600X1.063600X-0.609600X-1.063600X0.609600X-1.063600X0.609600X1.063600X0*%
%ADD16C,4.000000*%
%ADD17C,2.200000*%
%ADD18O,2.900000X3.800000*%
%ADD19O,1.700000X1.700000*%
%ADD20R,1.500000X1.500000*%
%ADD21C,1.500000*%
G04 APERTURE END LIST*
D10*
%TO.C,R1*%
X110500000Y-67500000D03*
X118120000Y-67500000D03*
%TD*%
D11*
%TO.C,J2*%
X69500000Y-111380000D03*
D12*
X69500000Y-113920000D03*
X69500000Y-116460000D03*
X69500000Y-119000000D03*
X69500000Y-121540000D03*
X69500000Y-124080000D03*
X69500000Y-126620000D03*
X69500000Y-129160000D03*
%TD*%
D13*
%TO.C,U2*%
X137620000Y-73925000D03*
D14*
X137620000Y-74760000D03*
D13*
X135080000Y-73925000D03*
D14*
X135080000Y-74760000D03*
D13*
X132540000Y-73925000D03*
D14*
X132540000Y-74760000D03*
D13*
X130000000Y-73925000D03*
D14*
X130000000Y-74760000D03*
D13*
X127460000Y-73925000D03*
D14*
X127460000Y-74760000D03*
D13*
X124920000Y-73925000D03*
D14*
X124920000Y-74760000D03*
D13*
X122380000Y-73925000D03*
D14*
X122380000Y-74760000D03*
X122380000Y-90000000D03*
D15*
X122380000Y-90835000D03*
D14*
X124920000Y-90000000D03*
D15*
X124920000Y-90835000D03*
D14*
X127460000Y-90000000D03*
D15*
X127460000Y-90835000D03*
D14*
X130000000Y-90000000D03*
D15*
X130000000Y-90835000D03*
D14*
X132540000Y-90000000D03*
D15*
X132540000Y-90835000D03*
D14*
X135080000Y-90000000D03*
D15*
X135080000Y-90835000D03*
D14*
X137620000Y-90000000D03*
D15*
X137620000Y-90835000D03*
%TD*%
D12*
%TO.C,SW1*%
X60500000Y-95500000D03*
D16*
X65580000Y-95500000D03*
D12*
X70660000Y-95500000D03*
D17*
X68120000Y-90420000D03*
X61770000Y-92960000D03*
%TD*%
D18*
%TO.C,J1*%
X88386000Y-145500000D03*
X111500000Y-145500000D03*
X88386000Y-123148000D03*
X111500000Y-123148000D03*
D11*
X87751000Y-138134000D03*
D19*
X87751000Y-135594000D03*
X87751000Y-133054000D03*
X87751000Y-130514000D03*
%TD*%
D12*
%TO.C,SW2*%
X78420000Y-70500000D03*
D16*
X83500000Y-70500000D03*
D12*
X88580000Y-70500000D03*
D17*
X86040000Y-65420000D03*
X79690000Y-67960000D03*
%TD*%
D20*
%TO.C,U1*%
X129000000Y-114880000D03*
D21*
X129000000Y-117420000D03*
X129000000Y-119960000D03*
X129000000Y-122500000D03*
%TD*%
M02*
